<?xml version="1.0" encoding="UTF-8" standalone="no"?>
<!DOCTYPE svg PUBLIC "-//W3C//DTD SVG 1.1//EN"
 "http://www.w3.org/Graphics/SVG/1.1/DTD/svg11.dtd">
<!-- Generated by graphviz version 12.1.2 (20240928.0832)
 -->
<!-- Title: public.profiles Pages: 1 -->
<svg width="2986pt" height="1592pt"
 viewBox="0.00 0.00 2986.37 1591.60" xmlns="http://www.w3.org/2000/svg" xmlns:xlink="http://www.w3.org/1999/xlink">
<g id="graph0" class="graph" transform="scale(1 1) rotate(0) translate(4 1587.6)">
<title>public.profiles</title>
<polygon fill="white" stroke="none" points="-4,4 -4,-1587.6 2982.37,-1587.6 2982.37,4 -4,4"/>
<!-- public.profiles -->
<g id="node1" class="node">
<title>public.profiles</title>
<polygon fill="#efefef" stroke="none" points="1486.34,-789.4 1486.34,-825 1740.02,-825 1740.02,-789.4 1486.34,-789.4"/>
<polygon fill="none" stroke="black" points="1486.34,-789.4 1486.34,-825 1740.02,-825 1740.02,-789.4 1486.34,-789.4"/>
<text text-anchor="start" x="1498.7" y="-802.8" font-family="Arial Bold" font-size="18.00">public.profiles</text>
<text text-anchor="start" x="1603.17" y="-802.8" font-family="Arial" font-size="14.00">    </text>
<text text-anchor="start" x="1634.29" y="-802.8" font-family="Arial" font-size="14.00" fill="#666666">[BASE TABLE]</text>
<polygon fill="none" stroke="black" points="1486.34,-758.6 1486.34,-789.4 1740.02,-789.4 1740.02,-758.6 1486.34,-758.6"/>
<text text-anchor="start" x="1493.34" y="-770.8" font-family="Arial" font-size="14.00">created_at </text>
<text text-anchor="start" x="1563.39" y="-770.8" font-family="Arial" font-size="14.00" fill="#666666">[timestamp with time zone]</text>
<polygon fill="none" stroke="black" points="1486.34,-727.8 1486.34,-758.6 1740.02,-758.6 1740.02,-727.8 1486.34,-727.8"/>
<text text-anchor="start" x="1493.34" y="-740" font-family="Arial" font-size="14.00">created_by </text>
<text text-anchor="start" x="1566.5" y="-740" font-family="Arial" font-size="14.00" fill="#666666">[uuid]</text>
<polygon fill="none" stroke="black" points="1486.34,-697 1486.34,-727.8 1740.02,-727.8 1740.02,-697 1486.34,-697"/>
<text text-anchor="start" x="1493.34" y="-709.2" font-family="Arial" font-size="14.00">updated_at </text>
<text text-anchor="start" x="1567.3" y="-709.2" font-family="Arial" font-size="14.00" fill="#666666">[timestamp with time zone]</text>
<polygon fill="none" stroke="black" points="1486.34,-666.2 1486.34,-697 1740.02,-697 1740.02,-666.2 1486.34,-666.2"/>
<text text-anchor="start" x="1493.34" y="-678.4" font-family="Arial" font-size="14.00">updated_by </text>
<text text-anchor="start" x="1570.41" y="-678.4" font-family="Arial" font-size="14.00" fill="#666666">[uuid]</text>
<polygon fill="none" stroke="black" points="1486.34,-635.4 1486.34,-666.2 1740.02,-666.2 1740.02,-635.4 1486.34,-635.4"/>
<text text-anchor="start" x="1493.34" y="-647.6" font-family="Arial" font-size="14.00">id </text>
<text text-anchor="start" x="1508.12" y="-647.6" font-family="Arial" font-size="14.00" fill="#666666">[uuid]</text>
<polygon fill="none" stroke="black" points="1486.34,-604.6 1486.34,-635.4 1740.02,-635.4 1740.02,-604.6 1486.34,-604.6"/>
<text text-anchor="start" x="1493.34" y="-616.8" font-family="Arial" font-size="14.00">first_name </text>
<text text-anchor="start" x="1562.59" y="-616.8" font-family="Arial" font-size="14.00" fill="#666666">[text]</text>
<polygon fill="none" stroke="black" points="1486.34,-573.8 1486.34,-604.6 1740.02,-604.6 1740.02,-573.8 1486.34,-573.8"/>
<text text-anchor="start" x="1493.34" y="-586" font-family="Arial" font-size="14.00">last_name </text>
<text text-anchor="start" x="1561.82" y="-586" font-family="Arial" font-size="14.00" fill="#666666">[text]</text>
<polygon fill="none" stroke="black" points="1486.34,-543 1486.34,-573.8 1740.02,-573.8 1740.02,-543 1486.34,-543"/>
<text text-anchor="start" x="1493.34" y="-555.2" font-family="Arial" font-size="14.00">national_id </text>
<text text-anchor="start" x="1564.95" y="-555.2" font-family="Arial" font-size="14.00" fill="#666666">[text]</text>
<polygon fill="none" stroke="black" points="1486.34,-512.2 1486.34,-543 1740.02,-543 1740.02,-512.2 1486.34,-512.2"/>
<text text-anchor="start" x="1493.34" y="-524.4" font-family="Arial" font-size="14.00">email </text>
<text text-anchor="start" x="1530.68" y="-524.4" font-family="Arial" font-size="14.00" fill="#666666">[text]</text>
<polygon fill="none" stroke="black" points="1486.34,-481.4 1486.34,-512.2 1740.02,-512.2 1740.02,-481.4 1486.34,-481.4"/>
<text text-anchor="start" x="1493.34" y="-493.6" font-family="Arial" font-size="14.00">primary_contact </text>
<text text-anchor="start" x="1596.82" y="-493.6" font-family="Arial" font-size="14.00" fill="#666666">[text]</text>
<polygon fill="none" stroke="black" points="1486.34,-450.6 1486.34,-481.4 1740.02,-481.4 1740.02,-450.6 1486.34,-450.6"/>
<text text-anchor="start" x="1493.34" y="-462.8" font-family="Arial" font-size="14.00">secondary_contact </text>
<text text-anchor="start" x="1614.74" y="-462.8" font-family="Arial" font-size="14.00" fill="#666666">[text]</text>
<polygon fill="none" stroke="black" points="1486.34,-419.8 1486.34,-450.6 1740.02,-450.6 1740.02,-419.8 1486.34,-419.8"/>
<text text-anchor="start" x="1493.34" y="-432" font-family="Arial" font-size="14.00">role_id </text>
<text text-anchor="start" x="1539.26" y="-432" font-family="Arial" font-size="14.00" fill="#666666">[bigint]</text>
<polygon fill="none" stroke="black" stroke-width="3" points="1484.84,-418.3 1484.84,-826.5 1741.52,-826.5 1741.52,-418.3 1484.84,-418.3"/>
</g>
<!-- public.roles -->
<g id="node10" class="node">
<title>public.roles</title>
<polygon fill="#efefef" stroke="none" points="1486.34,-258.8 1486.34,-294.4 1740.02,-294.4 1740.02,-258.8 1486.34,-258.8"/>
<polygon fill="none" stroke="black" points="1486.34,-258.8 1486.34,-294.4 1740.02,-294.4 1740.02,-258.8 1486.34,-258.8"/>
<text text-anchor="start" x="1508.69" y="-272.2" font-family="Arial Bold" font-size="18.00">public.roles</text>
<text text-anchor="start" x="1593.18" y="-272.2" font-family="Arial" font-size="14.00">    </text>
<text text-anchor="start" x="1624.29" y="-272.2" font-family="Arial" font-size="14.00" fill="#666666">[BASE TABLE]</text>
<polygon fill="none" stroke="black" points="1486.34,-228 1486.34,-258.8 1740.02,-258.8 1740.02,-228 1486.34,-228"/>
<text text-anchor="start" x="1493.34" y="-240.2" font-family="Arial" font-size="14.00">created_at </text>
<text text-anchor="start" x="1563.39" y="-240.2" font-family="Arial" font-size="14.00" fill="#666666">[timestamp with time zone]</text>
<polygon fill="none" stroke="black" points="1486.34,-197.2 1486.34,-228 1740.02,-228 1740.02,-197.2 1486.34,-197.2"/>
<text text-anchor="start" x="1493.34" y="-209.4" font-family="Arial" font-size="14.00">created_by </text>
<text text-anchor="start" x="1566.5" y="-209.4" font-family="Arial" font-size="14.00" fill="#666666">[uuid]</text>
<polygon fill="none" stroke="black" points="1486.34,-166.4 1486.34,-197.2 1740.02,-197.2 1740.02,-166.4 1486.34,-166.4"/>
<text text-anchor="start" x="1493.34" y="-178.6" font-family="Arial" font-size="14.00">updated_at </text>
<text text-anchor="start" x="1567.3" y="-178.6" font-family="Arial" font-size="14.00" fill="#666666">[timestamp with time zone]</text>
<polygon fill="none" stroke="black" points="1486.34,-135.6 1486.34,-166.4 1740.02,-166.4 1740.02,-135.6 1486.34,-135.6"/>
<text text-anchor="start" x="1493.34" y="-147.8" font-family="Arial" font-size="14.00">updated_by </text>
<text text-anchor="start" x="1570.41" y="-147.8" font-family="Arial" font-size="14.00" fill="#666666">[uuid]</text>
<polygon fill="none" stroke="black" points="1486.34,-104.8 1486.34,-135.6 1740.02,-135.6 1740.02,-104.8 1486.34,-104.8"/>
<text text-anchor="start" x="1493.34" y="-117" font-family="Arial" font-size="14.00">id </text>
<text text-anchor="start" x="1508.12" y="-117" font-family="Arial" font-size="14.00" fill="#666666">[bigint]</text>
<polygon fill="none" stroke="black" points="1486.34,-74 1486.34,-104.8 1740.02,-104.8 1740.02,-74 1486.34,-74"/>
<text text-anchor="start" x="1493.34" y="-86.2" font-family="Arial" font-size="14.00">role_name </text>
<text text-anchor="start" x="1563.38" y="-86.2" font-family="Arial" font-size="14.00" fill="#666666">[text]</text>
<polygon fill="none" stroke="black" points="1486.34,-43.2 1486.34,-74 1740.02,-74 1740.02,-43.2 1486.34,-43.2"/>
<text text-anchor="start" x="1493.34" y="-55.4" font-family="Arial" font-size="14.00">permission_level </text>
<text text-anchor="start" x="1601.5" y="-55.4" font-family="Arial" font-size="14.00" fill="#666666">[integer]</text>
</g>
<!-- public.profiles&#45;&gt;public.roles -->
<g id="edge12" class="edge">
<title>public.profiles:role_id&#45;&gt;public.roles:id</title>
<path fill="none" stroke="black" d="M1614.06,-408.46C1623.69,-356.56 1709.58,-392.92 1740.02,-337.6 1786.6,-252.94 1837.64,-120.2 1741.02,-120.2"/>
<polygon fill="black" stroke="black" points="1614.06,-408.5 1608.72,-418.08 1613.6,-413.82 1613.24,-418.13 1613.24,-418.13 1613.24,-418.13 1613.6,-413.82 1617.69,-418.85 1614.06,-408.5"/>
<text text-anchor="start" x="1388.36" y="-428.8" font-family="Arial" font-size="10.00">FOREIGN KEY (role_id) REFERENCES roles(id)</text>
</g>
<!-- public.campuses -->
<g id="node2" class="node">
<title>public.campuses</title>
<polygon fill="#efefef" stroke="none" points="43.2,-1350.8 43.2,-1386.4 301.16,-1386.4 301.16,-1350.8 43.2,-1350.8"/>
<polygon fill="none" stroke="black" points="43.2,-1350.8 43.2,-1386.4 301.16,-1386.4 301.16,-1350.8 43.2,-1350.8"/>
<text text-anchor="start" x="50.2" y="-1364.2" font-family="Arial Bold" font-size="18.00">public.campuses</text>
<text text-anchor="start" x="169.67" y="-1364.2" font-family="Arial" font-size="14.00">    </text>
<text text-anchor="start" x="200.79" y="-1364.2" font-family="Arial" font-size="14.00" fill="#666666">[BASE TABLE]</text>
<polygon fill="none" stroke="black" points="43.2,-1320 43.2,-1350.8 301.16,-1350.8 301.16,-1320 43.2,-1320"/>
<text text-anchor="start" x="50.2" y="-1332.2" font-family="Arial" font-size="14.00">created_at </text>
<text text-anchor="start" x="120.25" y="-1332.2" font-family="Arial" font-size="14.00" fill="#666666">[timestamp with time zone]</text>
<polygon fill="none" stroke="black" points="43.2,-1289.2 43.2,-1320 301.16,-1320 301.16,-1289.2 43.2,-1289.2"/>
<text text-anchor="start" x="50.2" y="-1301.4" font-family="Arial" font-size="14.00">created_by </text>
<text text-anchor="start" x="123.36" y="-1301.4" font-family="Arial" font-size="14.00" fill="#666666">[uuid]</text>
<polygon fill="none" stroke="black" points="43.2,-1258.4 43.2,-1289.2 301.16,-1289.2 301.16,-1258.4 43.2,-1258.4"/>
<text text-anchor="start" x="50.2" y="-1270.6" font-family="Arial" font-size="14.00">updated_at </text>
<text text-anchor="start" x="124.16" y="-1270.6" font-family="Arial" font-size="14.00" fill="#666666">[timestamp with time zone]</text>
<polygon fill="none" stroke="black" points="43.2,-1227.6 43.2,-1258.4 301.16,-1258.4 301.16,-1227.6 43.2,-1227.6"/>
<text text-anchor="start" x="50.2" y="-1239.8" font-family="Arial" font-size="14.00">updated_by </text>
<text text-anchor="start" x="127.27" y="-1239.8" font-family="Arial" font-size="14.00" fill="#666666">[uuid]</text>
<polygon fill="none" stroke="black" points="43.2,-1196.8 43.2,-1227.6 301.16,-1227.6 301.16,-1196.8 43.2,-1196.8"/>
<text text-anchor="start" x="50.2" y="-1209" font-family="Arial" font-size="14.00">id </text>
<text text-anchor="start" x="64.99" y="-1209" font-family="Arial" font-size="14.00" fill="#666666">[bigint]</text>
<polygon fill="none" stroke="black" points="43.2,-1166 43.2,-1196.8 301.16,-1196.8 301.16,-1166 43.2,-1166"/>
<text text-anchor="start" x="50.2" y="-1178.2" font-family="Arial" font-size="14.00">location_id </text>
<text text-anchor="start" x="121.03" y="-1178.2" font-family="Arial" font-size="14.00" fill="#666666">[bigint]</text>
<polygon fill="none" stroke="black" points="43.2,-1135.2 43.2,-1166 301.16,-1166 301.16,-1135.2 43.2,-1135.2"/>
<text text-anchor="start" x="50.2" y="-1147.4" font-family="Arial" font-size="14.00">campus_name </text>
<text text-anchor="start" x="145.92" y="-1147.4" font-family="Arial" font-size="14.00" fill="#666666">[text]</text>
<polygon fill="none" stroke="black" points="43.2,-1104.4 43.2,-1135.2 301.16,-1135.2 301.16,-1104.4 43.2,-1104.4"/>
<text text-anchor="start" x="50.2" y="-1116.6" font-family="Arial" font-size="14.00">president_profile_id </text>
<text text-anchor="start" x="176.28" y="-1116.6" font-family="Arial" font-size="14.00" fill="#666666">[uuid]</text>
</g>
<!-- public.campuses&#45;&gt;public.profiles -->
<g id="edge1" class="edge">
<title>public.campuses:president_profile_id&#45;&gt;public.profiles:id</title>
<path fill="none" stroke="black" d="M312.12,-1119.21C391.03,-1109.19 286.6,-972.94 353.18,-907.2 536.75,-725.97 1227.38,-650.8 1485.34,-650.8"/>
<polygon fill="black" stroke="black" points="312.48,-1119.19 302.23,-1115.29 307.15,-1119.51 302.83,-1119.76 302.83,-1119.76 302.83,-1119.76 307.15,-1119.51 302.76,-1124.27 312.48,-1119.19"/>
<text text-anchor="start" x="159.34" y="-1103.8" font-family="Arial" font-size="10.00">FOREIGN KEY (president_profile_id) REFERENCES profiles(id)</text>
</g>
<!-- public.faculties -->
<g id="node3" class="node">
<title>public.faculties</title>
<polygon fill="#efefef" stroke="none" points="405.34,-1366.2 405.34,-1401.8 659.02,-1401.8 659.02,-1366.2 405.34,-1366.2"/>
<polygon fill="none" stroke="black" points="405.34,-1366.2 405.34,-1401.8 659.02,-1401.8 659.02,-1366.2 405.34,-1366.2"/>
<text text-anchor="start" x="414.7" y="-1379.6" font-family="Arial Bold" font-size="18.00">public.faculties</text>
<text text-anchor="start" x="525.17" y="-1379.6" font-family="Arial" font-size="14.00">    </text>
<text text-anchor="start" x="556.28" y="-1379.6" font-family="Arial" font-size="14.00" fill="#666666">[BASE TABLE]</text>
<polygon fill="none" stroke="black" points="405.34,-1335.4 405.34,-1366.2 659.02,-1366.2 659.02,-1335.4 405.34,-1335.4"/>
<text text-anchor="start" x="412.34" y="-1347.6" font-family="Arial" font-size="14.00">created_at </text>
<text text-anchor="start" x="482.39" y="-1347.6" font-family="Arial" font-size="14.00" fill="#666666">[timestamp with time zone]</text>
<polygon fill="none" stroke="black" points="405.34,-1304.6 405.34,-1335.4 659.02,-1335.4 659.02,-1304.6 405.34,-1304.6"/>
<text text-anchor="start" x="412.34" y="-1316.8" font-family="Arial" font-size="14.00">created_by </text>
<text text-anchor="start" x="485.5" y="-1316.8" font-family="Arial" font-size="14.00" fill="#666666">[uuid]</text>
<polygon fill="none" stroke="black" points="405.34,-1273.8 405.34,-1304.6 659.02,-1304.6 659.02,-1273.8 405.34,-1273.8"/>
<text text-anchor="start" x="412.34" y="-1286" font-family="Arial" font-size="14.00">updated_at </text>
<text text-anchor="start" x="486.3" y="-1286" font-family="Arial" font-size="14.00" fill="#666666">[timestamp with time zone]</text>
<polygon fill="none" stroke="black" points="405.34,-1243 405.34,-1273.8 659.02,-1273.8 659.02,-1243 405.34,-1243"/>
<text text-anchor="start" x="412.34" y="-1255.2" font-family="Arial" font-size="14.00">updated_by </text>
<text text-anchor="start" x="489.41" y="-1255.2" font-family="Arial" font-size="14.00" fill="#666666">[uuid]</text>
<polygon fill="none" stroke="black" points="405.34,-1212.2 405.34,-1243 659.02,-1243 659.02,-1212.2 405.34,-1212.2"/>
<text text-anchor="start" x="412.34" y="-1224.4" font-family="Arial" font-size="14.00">id </text>
<text text-anchor="start" x="427.12" y="-1224.4" font-family="Arial" font-size="14.00" fill="#666666">[bigint]</text>
<polygon fill="none" stroke="black" points="405.34,-1181.4 405.34,-1212.2 659.02,-1212.2 659.02,-1181.4 405.34,-1181.4"/>
<text text-anchor="start" x="412.34" y="-1193.6" font-family="Arial" font-size="14.00">campus_id </text>
<text text-anchor="start" x="483.93" y="-1193.6" font-family="Arial" font-size="14.00" fill="#666666">[bigint]</text>
<polygon fill="none" stroke="black" points="405.34,-1150.6 405.34,-1181.4 659.02,-1181.4 659.02,-1150.6 405.34,-1150.6"/>
<text text-anchor="start" x="412.34" y="-1162.8" font-family="Arial" font-size="14.00">faculty_name </text>
<text text-anchor="start" x="499.5" y="-1162.8" font-family="Arial" font-size="14.00" fill="#666666">[text]</text>
<polygon fill="none" stroke="black" points="405.34,-1119.8 405.34,-1150.6 659.02,-1150.6 659.02,-1119.8 405.34,-1119.8"/>
<text text-anchor="start" x="412.34" y="-1132" font-family="Arial" font-size="14.00">dean_profile_id </text>
<text text-anchor="start" x="511.97" y="-1132" font-family="Arial" font-size="14.00" fill="#666666">[uuid]</text>
<polygon fill="none" stroke="black" points="405.34,-1089 405.34,-1119.8 659.02,-1119.8 659.02,-1089 405.34,-1089"/>
<text text-anchor="start" x="412.34" y="-1101.2" font-family="Arial" font-size="14.00">coordinator_profile_id </text>
<text text-anchor="start" x="550.87" y="-1101.2" font-family="Arial" font-size="14.00" fill="#666666">[uuid]</text>
</g>
<!-- public.faculties&#45;&gt;public.profiles -->
<g id="edge2" class="edge">
<title>public.faculties:coordinator_profile_id&#45;&gt;public.profiles:id</title>
<path fill="none" stroke="black" d="M670.22,-1103.75C742.53,-1093.76 651.84,-970.59 711.18,-907.2 835.03,-774.9 1304.11,-650.8 1485.34,-650.8"/>
<polygon fill="black" stroke="black" points="670.33,-1103.74 660.07,-1099.89 665.01,-1104.08 660.69,-1104.36 660.69,-1104.36 660.69,-1104.36 665.01,-1104.08 660.64,-1108.87 670.33,-1103.74"/>
<text text-anchor="start" x="512.75" y="-1088.4" font-family="Arial" font-size="10.00">FOREIGN KEY (coordinator_profile_id) REFERENCES profiles(id)</text>
</g>
<!-- public.faculties&#45;&gt;public.profiles -->
<g id="edge3" class="edge">
<title>public.faculties:dean_profile_id&#45;&gt;public.profiles:id</title>
<path fill="none" stroke="black" d="M670.41,-1134.62C755.28,-1124.38 643.99,-981.4 711.18,-907.2 832.82,-772.86 1304.11,-650.8 1485.34,-650.8"/>
<polygon fill="black" stroke="black" points="670.34,-1134.62 660.1,-1130.69 665.01,-1134.92 660.69,-1135.16 660.69,-1135.16 660.69,-1135.16 665.01,-1134.92 660.61,-1139.67 670.34,-1134.62"/>
<text text-anchor="start" x="526.64" y="-1119.2" font-family="Arial" font-size="10.00">FOREIGN KEY (dean_profile_id) REFERENCES profiles(id)</text>
</g>
<!-- public.schools -->
<g id="node4" class="node">
<title>public.schools</title>
<polygon fill="#efefef" stroke="none" points="763.34,-1350.8 763.34,-1386.4 1017.02,-1386.4 1017.02,-1350.8 763.34,-1350.8"/>
<polygon fill="none" stroke="black" points="763.34,-1350.8 763.34,-1386.4 1017.02,-1386.4 1017.02,-1350.8 763.34,-1350.8"/>
<text text-anchor="start" x="776.19" y="-1364.2" font-family="Arial Bold" font-size="18.00">public.schools</text>
<text text-anchor="start" x="879.68" y="-1364.2" font-family="Arial" font-size="14.00">    </text>
<text text-anchor="start" x="910.8" y="-1364.2" font-family="Arial" font-size="14.00" fill="#666666">[BASE TABLE]</text>
<polygon fill="none" stroke="black" points="763.34,-1320 763.34,-1350.8 1017.02,-1350.8 1017.02,-1320 763.34,-1320"/>
<text text-anchor="start" x="770.34" y="-1332.2" font-family="Arial" font-size="14.00">created_at </text>
<text text-anchor="start" x="840.39" y="-1332.2" font-family="Arial" font-size="14.00" fill="#666666">[timestamp with time zone]</text>
<polygon fill="none" stroke="black" points="763.34,-1289.2 763.34,-1320 1017.02,-1320 1017.02,-1289.2 763.34,-1289.2"/>
<text text-anchor="start" x="770.34" y="-1301.4" font-family="Arial" font-size="14.00">created_by </text>
<text text-anchor="start" x="843.5" y="-1301.4" font-family="Arial" font-size="14.00" fill="#666666">[uuid]</text>
<polygon fill="none" stroke="black" points="763.34,-1258.4 763.34,-1289.2 1017.02,-1289.2 1017.02,-1258.4 763.34,-1258.4"/>
<text text-anchor="start" x="770.34" y="-1270.6" font-family="Arial" font-size="14.00">updated_at </text>
<text text-anchor="start" x="844.3" y="-1270.6" font-family="Arial" font-size="14.00" fill="#666666">[timestamp with time zone]</text>
<polygon fill="none" stroke="black" points="763.34,-1227.6 763.34,-1258.4 1017.02,-1258.4 1017.02,-1227.6 763.34,-1227.6"/>
<text text-anchor="start" x="770.34" y="-1239.8" font-family="Arial" font-size="14.00">updated_by </text>
<text text-anchor="start" x="847.41" y="-1239.8" font-family="Arial" font-size="14.00" fill="#666666">[uuid]</text>
<polygon fill="none" stroke="black" points="763.34,-1196.8 763.34,-1227.6 1017.02,-1227.6 1017.02,-1196.8 763.34,-1196.8"/>
<text text-anchor="start" x="770.34" y="-1209" font-family="Arial" font-size="14.00">id </text>
<text text-anchor="start" x="785.12" y="-1209" font-family="Arial" font-size="14.00" fill="#666666">[bigint]</text>
<polygon fill="none" stroke="black" points="763.34,-1166 763.34,-1196.8 1017.02,-1196.8 1017.02,-1166 763.34,-1166"/>
<text text-anchor="start" x="770.34" y="-1178.2" font-family="Arial" font-size="14.00">faculty_id </text>
<text text-anchor="start" x="833.37" y="-1178.2" font-family="Arial" font-size="14.00" fill="#666666">[bigint]</text>
<polygon fill="none" stroke="black" points="763.34,-1135.2 763.34,-1166 1017.02,-1166 1017.02,-1135.2 763.34,-1135.2"/>
<text text-anchor="start" x="770.34" y="-1147.4" font-family="Arial" font-size="14.00">school_name </text>
<text text-anchor="start" x="857.5" y="-1147.4" font-family="Arial" font-size="14.00" fill="#666666">[text]</text>
<polygon fill="none" stroke="black" points="763.34,-1104.4 763.34,-1135.2 1017.02,-1135.2 1017.02,-1104.4 763.34,-1104.4"/>
<text text-anchor="start" x="770.34" y="-1116.6" font-family="Arial" font-size="14.00">tutor_profile_id </text>
<text text-anchor="start" x="866.84" y="-1116.6" font-family="Arial" font-size="14.00" fill="#666666">[uuid]</text>
</g>
<!-- public.schools&#45;&gt;public.profiles -->
<g id="edge4" class="edge">
<title>public.schools:tutor_profile_id&#45;&gt;public.profiles:id</title>
<path fill="none" stroke="black" d="M1028.03,-1119.26C1107.78,-1109.94 1014.25,-982.96 1069.18,-907.2 1196.71,-731.32 1268.09,-650.8 1485.34,-650.8"/>
<polygon fill="black" stroke="black" points="1028.34,-1119.24 1018.11,-1115.29 1023.01,-1119.53 1018.69,-1119.76 1018.69,-1119.76 1018.69,-1119.76 1023.01,-1119.53 1018.6,-1124.28 1028.34,-1119.24"/>
<text text-anchor="start" x="885.76" y="-1103.8" font-family="Arial" font-size="10.00">FOREIGN KEY (tutor_profile_id) REFERENCES profiles(id)</text>
</g>
<!-- public.students -->
<g id="node5" class="node">
<title>public.students</title>
<polygon fill="#efefef" stroke="none" points="1121.34,-1397 1121.34,-1432.6 1375.02,-1432.6 1375.02,-1397 1121.34,-1397"/>
<polygon fill="none" stroke="black" points="1121.34,-1397 1121.34,-1432.6 1375.02,-1432.6 1375.02,-1397 1121.34,-1397"/>
<text text-anchor="start" x="1131.69" y="-1410.4" font-family="Arial Bold" font-size="18.00">public.students</text>
<text text-anchor="start" x="1240.18" y="-1410.4" font-family="Arial" font-size="14.00">    </text>
<text text-anchor="start" x="1271.3" y="-1410.4" font-family="Arial" font-size="14.00" fill="#666666">[BASE TABLE]</text>
<polygon fill="none" stroke="black" points="1121.34,-1366.2 1121.34,-1397 1375.02,-1397 1375.02,-1366.2 1121.34,-1366.2"/>
<text text-anchor="start" x="1128.34" y="-1378.4" font-family="Arial" font-size="14.00">created_at </text>
<text text-anchor="start" x="1198.39" y="-1378.4" font-family="Arial" font-size="14.00" fill="#666666">[timestamp with time zone]</text>
<polygon fill="none" stroke="black" points="1121.34,-1335.4 1121.34,-1366.2 1375.02,-1366.2 1375.02,-1335.4 1121.34,-1335.4"/>
<text text-anchor="start" x="1128.34" y="-1347.6" font-family="Arial" font-size="14.00">created_by </text>
<text text-anchor="start" x="1201.5" y="-1347.6" font-family="Arial" font-size="14.00" fill="#666666">[uuid]</text>
<polygon fill="none" stroke="black" points="1121.34,-1304.6 1121.34,-1335.4 1375.02,-1335.4 1375.02,-1304.6 1121.34,-1304.6"/>
<text text-anchor="start" x="1128.34" y="-1316.8" font-family="Arial" font-size="14.00">updated_at </text>
<text text-anchor="start" x="1202.3" y="-1316.8" font-family="Arial" font-size="14.00" fill="#666666">[timestamp with time zone]</text>
<polygon fill="none" stroke="black" points="1121.34,-1273.8 1121.34,-1304.6 1375.02,-1304.6 1375.02,-1273.8 1121.34,-1273.8"/>
<text text-anchor="start" x="1128.34" y="-1286" font-family="Arial" font-size="14.00">updated_by </text>
<text text-anchor="start" x="1205.41" y="-1286" font-family="Arial" font-size="14.00" fill="#666666">[uuid]</text>
<polygon fill="none" stroke="black" points="1121.34,-1243 1121.34,-1273.8 1375.02,-1273.8 1375.02,-1243 1121.34,-1243"/>
<text text-anchor="start" x="1128.34" y="-1255.2" font-family="Arial" font-size="14.00">id </text>
<text text-anchor="start" x="1143.12" y="-1255.2" font-family="Arial" font-size="14.00" fill="#666666">[bigint]</text>
<polygon fill="none" stroke="black" points="1121.34,-1212.2 1121.34,-1243 1375.02,-1243 1375.02,-1212.2 1121.34,-1212.2"/>
<text text-anchor="start" x="1128.34" y="-1224.4" font-family="Arial" font-size="14.00">profile_id </text>
<text text-anchor="start" x="1189.04" y="-1224.4" font-family="Arial" font-size="14.00" fill="#666666">[uuid]</text>
<polygon fill="none" stroke="black" points="1121.34,-1181.4 1121.34,-1212.2 1375.02,-1212.2 1375.02,-1181.4 1121.34,-1181.4"/>
<text text-anchor="start" x="1128.34" y="-1193.6" font-family="Arial" font-size="14.00">faculty_id </text>
<text text-anchor="start" x="1191.37" y="-1193.6" font-family="Arial" font-size="14.00" fill="#666666">[bigint]</text>
<polygon fill="none" stroke="black" points="1121.34,-1150.6 1121.34,-1181.4 1375.02,-1181.4 1375.02,-1150.6 1121.34,-1150.6"/>
<text text-anchor="start" x="1128.34" y="-1162.8" font-family="Arial" font-size="14.00">school_id </text>
<text text-anchor="start" x="1191.38" y="-1162.8" font-family="Arial" font-size="14.00" fill="#666666">[bigint]</text>
<polygon fill="none" stroke="black" points="1121.34,-1119.8 1121.34,-1150.6 1375.02,-1150.6 1375.02,-1119.8 1121.34,-1119.8"/>
<text text-anchor="start" x="1128.34" y="-1132" font-family="Arial" font-size="14.00">semester </text>
<text text-anchor="start" x="1189.8" y="-1132" font-family="Arial" font-size="14.00" fill="#666666">[semester_enum]</text>
<polygon fill="none" stroke="black" points="1121.34,-1089 1121.34,-1119.8 1375.02,-1119.8 1375.02,-1089 1121.34,-1089"/>
<text text-anchor="start" x="1128.34" y="-1101.2" font-family="Arial" font-size="14.00">shift </text>
<text text-anchor="start" x="1157.9" y="-1101.2" font-family="Arial" font-size="14.00" fill="#666666">[shift_enum]</text>
<polygon fill="none" stroke="black" points="1121.34,-1058.2 1121.34,-1089 1375.02,-1089 1375.02,-1058.2 1121.34,-1058.2"/>
<text text-anchor="start" x="1128.34" y="-1070.4" font-family="Arial" font-size="14.00">section </text>
<text text-anchor="start" x="1176.59" y="-1070.4" font-family="Arial" font-size="14.00" fill="#666666">[section_enum]</text>
</g>
<!-- public.students&#45;&gt;public.profiles -->
<g id="edge5" class="edge">
<title>public.students:profile_id&#45;&gt;public.profiles:id</title>
<path fill="none" stroke="black" d="M1386.2,-1225.73C1444.73,-1202.71 1414.21,-974.4 1427.18,-907.2 1449.33,-792.47 1368.49,-650.8 1485.34,-650.8"/>
<polygon fill="black" stroke="black" points="1386.18,-1225.73 1375.53,-1223.11 1380.94,-1226.69 1376.68,-1227.48 1376.68,-1227.48 1376.68,-1227.48 1380.94,-1226.69 1377.16,-1231.96 1386.18,-1225.73"/>
<text text-anchor="start" x="1383.02" y="-1237.6" font-family="Arial" font-size="10.00">FOREIGN KEY (profile_id) REFERENCES profiles(id)</text>
</g>
<!-- public.institutions -->
<g id="node6" class="node">
<title>public.institutions</title>
<polygon fill="#efefef" stroke="none" points="1479.18,-1350.8 1479.18,-1386.4 1747.18,-1386.4 1747.18,-1350.8 1479.18,-1350.8"/>
<polygon fill="none" stroke="black" points="1479.18,-1350.8 1479.18,-1386.4 1747.18,-1386.4 1747.18,-1350.8 1479.18,-1350.8"/>
<text text-anchor="start" x="1486.18" y="-1364.2" font-family="Arial Bold" font-size="18.00">public.institutions</text>
<text text-anchor="start" x="1615.69" y="-1364.2" font-family="Arial" font-size="14.00">    </text>
<text text-anchor="start" x="1646.81" y="-1364.2" font-family="Arial" font-size="14.00" fill="#666666">[BASE TABLE]</text>
<polygon fill="none" stroke="black" points="1479.18,-1320 1479.18,-1350.8 1747.18,-1350.8 1747.18,-1320 1479.18,-1320"/>
<text text-anchor="start" x="1486.18" y="-1332.2" font-family="Arial" font-size="14.00">created_at </text>
<text text-anchor="start" x="1556.23" y="-1332.2" font-family="Arial" font-size="14.00" fill="#666666">[timestamp with time zone]</text>
<polygon fill="none" stroke="black" points="1479.18,-1289.2 1479.18,-1320 1747.18,-1320 1747.18,-1289.2 1479.18,-1289.2"/>
<text text-anchor="start" x="1486.18" y="-1301.4" font-family="Arial" font-size="14.00">created_by </text>
<text text-anchor="start" x="1559.34" y="-1301.4" font-family="Arial" font-size="14.00" fill="#666666">[uuid]</text>
<polygon fill="none" stroke="black" points="1479.18,-1258.4 1479.18,-1289.2 1747.18,-1289.2 1747.18,-1258.4 1479.18,-1258.4"/>
<text text-anchor="start" x="1486.18" y="-1270.6" font-family="Arial" font-size="14.00">updated_at </text>
<text text-anchor="start" x="1560.14" y="-1270.6" font-family="Arial" font-size="14.00" fill="#666666">[timestamp with time zone]</text>
<polygon fill="none" stroke="black" points="1479.18,-1227.6 1479.18,-1258.4 1747.18,-1258.4 1747.18,-1227.6 1479.18,-1227.6"/>
<text text-anchor="start" x="1486.18" y="-1239.8" font-family="Arial" font-size="14.00">updated_by </text>
<text text-anchor="start" x="1563.25" y="-1239.8" font-family="Arial" font-size="14.00" fill="#666666">[uuid]</text>
<polygon fill="none" stroke="black" points="1479.18,-1196.8 1479.18,-1227.6 1747.18,-1227.6 1747.18,-1196.8 1479.18,-1196.8"/>
<text text-anchor="start" x="1486.18" y="-1209" font-family="Arial" font-size="14.00">id </text>
<text text-anchor="start" x="1500.97" y="-1209" font-family="Arial" font-size="14.00" fill="#666666">[bigint]</text>
<polygon fill="none" stroke="black" points="1479.18,-1166 1479.18,-1196.8 1747.18,-1196.8 1747.18,-1166 1479.18,-1166"/>
<text text-anchor="start" x="1486.18" y="-1178.2" font-family="Arial" font-size="14.00">location_id </text>
<text text-anchor="start" x="1557.01" y="-1178.2" font-family="Arial" font-size="14.00" fill="#666666">[bigint]</text>
<polygon fill="none" stroke="black" points="1479.18,-1135.2 1479.18,-1166 1747.18,-1166 1747.18,-1135.2 1479.18,-1135.2"/>
<text text-anchor="start" x="1486.18" y="-1147.4" font-family="Arial" font-size="14.00">contact_person_profile_id </text>
<text text-anchor="start" x="1650.4" y="-1147.4" font-family="Arial" font-size="14.00" fill="#666666">[uuid]</text>
<polygon fill="none" stroke="black" points="1479.18,-1104.4 1479.18,-1135.2 1747.18,-1135.2 1747.18,-1104.4 1479.18,-1104.4"/>
<text text-anchor="start" x="1486.18" y="-1116.6" font-family="Arial" font-size="14.00">institution_name </text>
<text text-anchor="start" x="1592.02" y="-1116.6" font-family="Arial" font-size="14.00" fill="#666666">[text]</text>
</g>
<!-- public.institutions&#45;&gt;public.profiles -->
<g id="edge6" class="edge">
<title>public.institutions:contact_person_profile_id&#45;&gt;public.profiles:id</title>
<path fill="none" stroke="black" d="M1757.3,-1145.65C1802.71,-1093.75 1793.31,-650.8 1741.02,-650.8"/>
<polygon fill="black" stroke="black" points="1757.26,-1145.67 1746.33,-1146.48 1752.57,-1148.22 1748.77,-1150.28 1748.77,-1150.28 1748.77,-1150.28 1752.57,-1148.22 1750.62,-1154.4 1757.26,-1145.67"/>
<text text-anchor="start" x="1591.73" y="-1134.6" font-family="Arial" font-size="10.00">FOREIGN KEY (contact_person_profile_id) REFERENCES profiles(id)</text>
</g>
<!-- public.documents -->
<g id="node7" class="node">
<title>public.documents</title>
<polygon fill="#efefef" stroke="none" points="1851.2,-1350.8 1851.2,-1386.4 2117.16,-1386.4 2117.16,-1350.8 1851.2,-1350.8"/>
<polygon fill="none" stroke="black" points="1851.2,-1350.8 1851.2,-1386.4 2117.16,-1386.4 2117.16,-1350.8 1851.2,-1350.8"/>
<text text-anchor="start" x="1858.2" y="-1364.2" font-family="Arial Bold" font-size="18.00">public.documents</text>
<text text-anchor="start" x="1985.67" y="-1364.2" font-family="Arial" font-size="14.00">    </text>
<text text-anchor="start" x="2016.79" y="-1364.2" font-family="Arial" font-size="14.00" fill="#666666">[BASE TABLE]</text>
<polygon fill="none" stroke="black" points="1851.2,-1320 1851.2,-1350.8 2117.16,-1350.8 2117.16,-1320 1851.2,-1320"/>
<text text-anchor="start" x="1858.2" y="-1332.2" font-family="Arial" font-size="14.00">created_at </text>
<text text-anchor="start" x="1928.24" y="-1332.2" font-family="Arial" font-size="14.00" fill="#666666">[timestamp with time zone]</text>
<polygon fill="none" stroke="black" points="1851.2,-1289.2 1851.2,-1320 2117.16,-1320 2117.16,-1289.2 1851.2,-1289.2"/>
<text text-anchor="start" x="1858.2" y="-1301.4" font-family="Arial" font-size="14.00">created_by </text>
<text text-anchor="start" x="1931.35" y="-1301.4" font-family="Arial" font-size="14.00" fill="#666666">[uuid]</text>
<polygon fill="none" stroke="black" points="1851.2,-1258.4 1851.2,-1289.2 2117.16,-1289.2 2117.16,-1258.4 1851.2,-1258.4"/>
<text text-anchor="start" x="1858.2" y="-1270.6" font-family="Arial" font-size="14.00">updated_at </text>
<text text-anchor="start" x="1932.15" y="-1270.6" font-family="Arial" font-size="14.00" fill="#666666">[timestamp with time zone]</text>
<polygon fill="none" stroke="black" points="1851.2,-1227.6 1851.2,-1258.4 2117.16,-1258.4 2117.16,-1227.6 1851.2,-1227.6"/>
<text text-anchor="start" x="1858.2" y="-1239.8" font-family="Arial" font-size="14.00">updated_by </text>
<text text-anchor="start" x="1935.26" y="-1239.8" font-family="Arial" font-size="14.00" fill="#666666">[uuid]</text>
<polygon fill="none" stroke="black" points="1851.2,-1196.8 1851.2,-1227.6 2117.16,-1227.6 2117.16,-1196.8 1851.2,-1196.8"/>
<text text-anchor="start" x="1858.2" y="-1209" font-family="Arial" font-size="14.00">id </text>
<text text-anchor="start" x="1872.98" y="-1209" font-family="Arial" font-size="14.00" fill="#666666">[bigint]</text>
<polygon fill="none" stroke="black" points="1851.2,-1166 1851.2,-1196.8 2117.16,-1196.8 2117.16,-1166 1851.2,-1166"/>
<text text-anchor="start" x="1858.2" y="-1178.2" font-family="Arial" font-size="14.00">bucket_id </text>
<text text-anchor="start" x="1922.02" y="-1178.2" font-family="Arial" font-size="14.00" fill="#666666">[text]</text>
<polygon fill="none" stroke="black" points="1851.2,-1135.2 1851.2,-1166 2117.16,-1166 2117.16,-1135.2 1851.2,-1135.2"/>
<text text-anchor="start" x="1858.2" y="-1147.4" font-family="Arial" font-size="14.00">storage_path </text>
<text text-anchor="start" x="1943.82" y="-1147.4" font-family="Arial" font-size="14.00" fill="#666666">[text]</text>
<polygon fill="none" stroke="black" points="1851.2,-1104.4 1851.2,-1135.2 2117.16,-1135.2 2117.16,-1104.4 1851.2,-1104.4"/>
<text text-anchor="start" x="1858.2" y="-1116.6" font-family="Arial" font-size="14.00">uploaded_by_profile_id </text>
<text text-anchor="start" x="2006.87" y="-1116.6" font-family="Arial" font-size="14.00" fill="#666666">[uuid]</text>
</g>
<!-- public.documents&#45;&gt;public.profiles -->
<g id="edge7" class="edge">
<title>public.documents:uploaded_by_profile_id&#45;&gt;public.profiles:id</title>
<path fill="none" stroke="black" d="M1843.61,-1112.05C1815.13,-1051.07 1765.73,-650.8 1741.02,-650.8"/>
<polygon fill="black" stroke="black" points="1843.5,-1111.93 1846.55,-1122.46 1846.96,-1115.99 1849.76,-1119.29 1849.76,-1119.29 1849.76,-1119.29 1846.96,-1115.99 1853.41,-1116.63 1843.5,-1111.93"/>
<text text-anchor="start" x="1537.42" y="-1103.8" font-family="Arial" font-size="10.00">FOREIGN KEY (uploaded_by_profile_id) REFERENCES profiles(id) ON DELETE CASCADE</text>
</g>
<!-- public.projects -->
<g id="node8" class="node">
<title>public.projects</title>
<polygon fill="#efefef" stroke="none" points="2221.81,-1504.8 2221.81,-1540.4 2566.54,-1540.4 2566.54,-1504.8 2221.81,-1504.8"/>
<polygon fill="none" stroke="black" points="2221.81,-1504.8 2221.81,-1540.4 2566.54,-1540.4 2566.54,-1504.8 2221.81,-1504.8"/>
<text text-anchor="start" x="2278.7" y="-1518.2" font-family="Arial Bold" font-size="18.00">public.projects</text>
<text text-anchor="start" x="2385.17" y="-1518.2" font-family="Arial" font-size="14.00">    </text>
<text text-anchor="start" x="2416.29" y="-1518.2" font-family="Arial" font-size="14.00" fill="#666666">[BASE TABLE]</text>
<polygon fill="none" stroke="black" points="2221.81,-1474 2221.81,-1504.8 2566.54,-1504.8 2566.54,-1474 2221.81,-1474"/>
<text text-anchor="start" x="2228.81" y="-1486.2" font-family="Arial" font-size="14.00">created_at </text>
<text text-anchor="start" x="2298.86" y="-1486.2" font-family="Arial" font-size="14.00" fill="#666666">[timestamp with time zone]</text>
<polygon fill="none" stroke="black" points="2221.81,-1443.2 2221.81,-1474 2566.54,-1474 2566.54,-1443.2 2221.81,-1443.2"/>
<text text-anchor="start" x="2228.81" y="-1455.4" font-family="Arial" font-size="14.00">created_by </text>
<text text-anchor="start" x="2301.97" y="-1455.4" font-family="Arial" font-size="14.00" fill="#666666">[uuid]</text>
<polygon fill="none" stroke="black" points="2221.81,-1412.4 2221.81,-1443.2 2566.54,-1443.2 2566.54,-1412.4 2221.81,-1412.4"/>
<text text-anchor="start" x="2228.81" y="-1424.6" font-family="Arial" font-size="14.00">updated_at </text>
<text text-anchor="start" x="2302.77" y="-1424.6" font-family="Arial" font-size="14.00" fill="#666666">[timestamp with time zone]</text>
<polygon fill="none" stroke="black" points="2221.81,-1381.6 2221.81,-1412.4 2566.54,-1412.4 2566.54,-1381.6 2221.81,-1381.6"/>
<text text-anchor="start" x="2228.81" y="-1393.8" font-family="Arial" font-size="14.00">updated_by </text>
<text text-anchor="start" x="2305.88" y="-1393.8" font-family="Arial" font-size="14.00" fill="#666666">[uuid]</text>
<polygon fill="none" stroke="black" points="2221.81,-1350.8 2221.81,-1381.6 2566.54,-1381.6 2566.54,-1350.8 2221.81,-1350.8"/>
<text text-anchor="start" x="2228.81" y="-1363" font-family="Arial" font-size="14.00">id </text>
<text text-anchor="start" x="2243.6" y="-1363" font-family="Arial" font-size="14.00" fill="#666666">[bigint]</text>
<polygon fill="none" stroke="black" points="2221.81,-1320 2221.81,-1350.8 2566.54,-1350.8 2566.54,-1320 2221.81,-1320"/>
<text text-anchor="start" x="2228.81" y="-1332.2" font-family="Arial" font-size="14.00">tutor_profile_id </text>
<text text-anchor="start" x="2325.32" y="-1332.2" font-family="Arial" font-size="14.00" fill="#666666">[uuid]</text>
<polygon fill="none" stroke="black" points="2221.81,-1289.2 2221.81,-1320 2566.54,-1320 2566.54,-1289.2 2221.81,-1289.2"/>
<text text-anchor="start" x="2228.81" y="-1301.4" font-family="Arial" font-size="14.00">coordinator_profile_id </text>
<text text-anchor="start" x="2367.35" y="-1301.4" font-family="Arial" font-size="14.00" fill="#666666">[uuid]</text>
<polygon fill="none" stroke="black" points="2221.81,-1258.4 2221.81,-1289.2 2566.54,-1289.2 2566.54,-1258.4 2221.81,-1258.4"/>
<text text-anchor="start" x="2228.81" y="-1270.6" font-family="Arial" font-size="14.00">student_profile_id </text>
<text text-anchor="start" x="2343.23" y="-1270.6" font-family="Arial" font-size="14.00" fill="#666666">[uuid]</text>
<polygon fill="none" stroke="black" points="2221.81,-1227.6 2221.81,-1258.4 2566.54,-1258.4 2566.54,-1227.6 2221.81,-1227.6"/>
<text text-anchor="start" x="2228.81" y="-1239.8" font-family="Arial" font-size="14.00">institution_id </text>
<text text-anchor="start" x="2310.53" y="-1239.8" font-family="Arial" font-size="14.00" fill="#666666">[bigint]</text>
<polygon fill="none" stroke="black" points="2221.81,-1196.8 2221.81,-1227.6 2566.54,-1227.6 2566.54,-1196.8 2221.81,-1196.8"/>
<text text-anchor="start" x="2228.81" y="-1209" font-family="Arial" font-size="14.00">title </text>
<text text-anchor="start" x="2254.49" y="-1209" font-family="Arial" font-size="14.00" fill="#666666">[text]</text>
<polygon fill="none" stroke="black" points="2221.81,-1166 2221.81,-1196.8 2566.54,-1196.8 2566.54,-1166 2221.81,-1166"/>
<text text-anchor="start" x="2228.81" y="-1178.2" font-family="Arial" font-size="14.00">abstract </text>
<text text-anchor="start" x="2282.5" y="-1178.2" font-family="Arial" font-size="14.00" fill="#666666">[text]</text>
<polygon fill="none" stroke="black" points="2221.81,-1135.2 2221.81,-1166 2566.54,-1166 2566.54,-1135.2 2221.81,-1135.2"/>
<text text-anchor="start" x="2228.81" y="-1147.4" font-family="Arial" font-size="14.00">pre_project_document_id </text>
<text text-anchor="start" x="2390.7" y="-1147.4" font-family="Arial" font-size="14.00" fill="#666666">[bigint]</text>
<polygon fill="none" stroke="black" points="2221.81,-1104.4 2221.81,-1135.2 2566.54,-1135.2 2566.54,-1104.4 2221.81,-1104.4"/>
<text text-anchor="start" x="2228.81" y="-1116.6" font-family="Arial" font-size="14.00">pre_project_observations </text>
<text text-anchor="start" x="2389.91" y="-1116.6" font-family="Arial" font-size="14.00" fill="#666666">[text]</text>
<polygon fill="none" stroke="black" points="2221.81,-1073.6 2221.81,-1104.4 2566.54,-1104.4 2566.54,-1073.6 2221.81,-1073.6"/>
<text text-anchor="start" x="2228.81" y="-1085.8" font-family="Arial" font-size="14.00">pre_project_approved_at </text>
<text text-anchor="start" x="2388.37" y="-1085.8" font-family="Arial" font-size="14.00" fill="#666666">[timestamp with time zone]</text>
<polygon fill="none" stroke="black" points="2221.81,-1042.8 2221.81,-1073.6 2566.54,-1073.6 2566.54,-1042.8 2221.81,-1042.8"/>
<text text-anchor="start" x="2228.81" y="-1055" font-family="Arial" font-size="14.00">project_document_id </text>
<text text-anchor="start" x="2362.68" y="-1055" font-family="Arial" font-size="14.00" fill="#666666">[bigint]</text>
<polygon fill="none" stroke="black" points="2221.81,-1012 2221.81,-1042.8 2566.54,-1042.8 2566.54,-1012 2221.81,-1012"/>
<text text-anchor="start" x="2228.81" y="-1024.2" font-family="Arial" font-size="14.00">project_observations </text>
<text text-anchor="start" x="2361.89" y="-1024.2" font-family="Arial" font-size="14.00" fill="#666666">[text]</text>
<polygon fill="none" stroke="black" points="2221.81,-981.2 2221.81,-1012 2566.54,-1012 2566.54,-981.2 2221.81,-981.2"/>
<text text-anchor="start" x="2228.81" y="-993.4" font-family="Arial" font-size="14.00">project_received_at </text>
<text text-anchor="start" x="2354.89" y="-993.4" font-family="Arial" font-size="14.00" fill="#666666">[timestamp with time zone]</text>
<polygon fill="none" stroke="black" points="2221.81,-950.4 2221.81,-981.2 2566.54,-981.2 2566.54,-950.4 2221.81,-950.4"/>
<text text-anchor="start" x="2228.81" y="-962.6" font-family="Arial" font-size="14.00">final_project_approved_at </text>
<text text-anchor="start" x="2393.82" y="-962.6" font-family="Arial" font-size="14.00" fill="#666666">[timestamp with time zone]</text>
</g>
<!-- public.projects&#45;&gt;public.profiles -->
<g id="edge8" class="edge">
<title>public.projects:coordinator_profile_id&#45;&gt;public.profiles:id</title>
<path fill="none" stroke="black" d="M2210.72,-1303.01C2138.61,-1278.53 2216,-978.62 2169.18,-907.2 2047.58,-721.7 1962.82,-650.8 1741.02,-650.8"/>
<polygon fill="black" stroke="black" points="2210.61,-1302.99 2219.78,-1308.99 2215.88,-1303.82 2220.15,-1304.5 2220.15,-1304.5 2220.15,-1304.5 2215.88,-1303.82 2221.18,-1300.1 2210.61,-1302.99"/>
<text text-anchor="start" x="1919.28" y="-1314.6" font-family="Arial" font-size="10.00">FOREIGN KEY (coordinator_profile_id) REFERENCES profiles(id)</text>
</g>
<!-- public.projects&#45;&gt;public.profiles -->
<g id="edge9" class="edge">
<title>public.projects:student_profile_id&#45;&gt;public.profiles:id</title>
<path fill="none" stroke="black" d="M2210.66,-1272.04C2145.14,-1247.49 2212.61,-972.68 2169.18,-907.2 2046.59,-722.35 1962.82,-650.8 1741.02,-650.8"/>
<polygon fill="black" stroke="black" points="2210.63,-1272.04 2219.72,-1278.18 2215.89,-1272.95 2220.16,-1273.69 2220.16,-1273.69 2220.16,-1273.69 2215.89,-1272.95 2221.25,-1269.31 2210.63,-1272.04"/>
<text text-anchor="start" x="1936.51" y="-1283.8" font-family="Arial" font-size="10.00">FOREIGN KEY (student_profile_id) REFERENCES profiles(id)</text>
</g>
<!-- public.projects&#45;&gt;public.profiles -->
<g id="edge10" class="edge">
<title>public.projects:tutor_profile_id&#45;&gt;public.profiles:id</title>
<path fill="none" stroke="black" d="M2210.92,-1333.99C2131.92,-1309.95 2219.42,-984.62 2169.18,-907.2 2048.44,-721.14 1962.82,-650.8 1741.02,-650.8"/>
<polygon fill="black" stroke="black" points="2210.58,-1333.95 2219.85,-1339.81 2215.86,-1334.7 2220.15,-1335.31 2220.15,-1335.31 2220.15,-1335.31 2215.86,-1334.7 2221.12,-1330.9 2210.58,-1333.95"/>
<text text-anchor="start" x="1949.3" y="-1345.4" font-family="Arial" font-size="10.00">FOREIGN KEY (tutor_profile_id) REFERENCES profiles(id)</text>
</g>
<!-- public.invitations -->
<g id="node9" class="node">
<title>public.invitations</title>
<polygon fill="#efefef" stroke="none" points="2671.19,-1381.6 2671.19,-1417.2 2935.17,-1417.2 2935.17,-1381.6 2671.19,-1381.6"/>
<polygon fill="none" stroke="black" points="2671.19,-1381.6 2671.19,-1417.2 2935.17,-1417.2 2935.17,-1381.6 2671.19,-1381.6"/>
<text text-anchor="start" x="2678.19" y="-1395" font-family="Arial Bold" font-size="18.00">public.invitations</text>
<text text-anchor="start" x="2803.68" y="-1395" font-family="Arial" font-size="14.00">    </text>
<text text-anchor="start" x="2834.8" y="-1395" font-family="Arial" font-size="14.00" fill="#666666">[BASE TABLE]</text>
<polygon fill="none" stroke="black" points="2671.19,-1350.8 2671.19,-1381.6 2935.17,-1381.6 2935.17,-1350.8 2671.19,-1350.8"/>
<text text-anchor="start" x="2678.19" y="-1363" font-family="Arial" font-size="14.00">created_at </text>
<text text-anchor="start" x="2748.24" y="-1363" font-family="Arial" font-size="14.00" fill="#666666">[timestamp with time zone]</text>
<polygon fill="none" stroke="black" points="2671.19,-1320 2671.19,-1350.8 2935.17,-1350.8 2935.17,-1320 2671.19,-1320"/>
<text text-anchor="start" x="2678.19" y="-1332.2" font-family="Arial" font-size="14.00">created_by </text>
<text text-anchor="start" x="2751.35" y="-1332.2" font-family="Arial" font-size="14.00" fill="#666666">[uuid]</text>
<polygon fill="none" stroke="black" points="2671.19,-1289.2 2671.19,-1320 2935.17,-1320 2935.17,-1289.2 2671.19,-1289.2"/>
<text text-anchor="start" x="2678.19" y="-1301.4" font-family="Arial" font-size="14.00">updated_at </text>
<text text-anchor="start" x="2752.15" y="-1301.4" font-family="Arial" font-size="14.00" fill="#666666">[timestamp with time zone]</text>
<polygon fill="none" stroke="black" points="2671.19,-1258.4 2671.19,-1289.2 2935.17,-1289.2 2935.17,-1258.4 2671.19,-1258.4"/>
<text text-anchor="start" x="2678.19" y="-1270.6" font-family="Arial" font-size="14.00">updated_by </text>
<text text-anchor="start" x="2755.26" y="-1270.6" font-family="Arial" font-size="14.00" fill="#666666">[uuid]</text>
<polygon fill="none" stroke="black" points="2671.19,-1227.6 2671.19,-1258.4 2935.17,-1258.4 2935.17,-1227.6 2671.19,-1227.6"/>
<text text-anchor="start" x="2678.19" y="-1239.8" font-family="Arial" font-size="14.00">id </text>
<text text-anchor="start" x="2692.98" y="-1239.8" font-family="Arial" font-size="14.00" fill="#666666">[bigint]</text>
<polygon fill="none" stroke="black" points="2671.19,-1196.8 2671.19,-1227.6 2935.17,-1227.6 2935.17,-1196.8 2671.19,-1196.8"/>
<text text-anchor="start" x="2678.19" y="-1209" font-family="Arial" font-size="14.00">invited_by_profile_id </text>
<text text-anchor="start" x="2809.72" y="-1209" font-family="Arial" font-size="14.00" fill="#666666">[uuid]</text>
<polygon fill="none" stroke="black" points="2671.19,-1166 2671.19,-1196.8 2935.17,-1196.8 2935.17,-1166 2671.19,-1166"/>
<text text-anchor="start" x="2678.19" y="-1178.2" font-family="Arial" font-size="14.00">email </text>
<text text-anchor="start" x="2715.53" y="-1178.2" font-family="Arial" font-size="14.00" fill="#666666">[text]</text>
<polygon fill="none" stroke="black" points="2671.19,-1135.2 2671.19,-1166 2935.17,-1166 2935.17,-1135.2 2671.19,-1135.2"/>
<text text-anchor="start" x="2678.19" y="-1147.4" font-family="Arial" font-size="14.00">role_id </text>
<text text-anchor="start" x="2724.11" y="-1147.4" font-family="Arial" font-size="14.00" fill="#666666">[bigint]</text>
<polygon fill="none" stroke="black" points="2671.19,-1104.4 2671.19,-1135.2 2935.17,-1135.2 2935.17,-1104.4 2671.19,-1104.4"/>
<text text-anchor="start" x="2678.19" y="-1116.6" font-family="Arial" font-size="14.00">token </text>
<text text-anchor="start" x="2716.33" y="-1116.6" font-family="Arial" font-size="14.00" fill="#666666">[text]</text>
<polygon fill="none" stroke="black" points="2671.19,-1073.6 2671.19,-1104.4 2935.17,-1104.4 2935.17,-1073.6 2671.19,-1073.6"/>
<text text-anchor="start" x="2678.19" y="-1085.8" font-family="Arial" font-size="14.00">is_active </text>
<text text-anchor="start" x="2736.55" y="-1085.8" font-family="Arial" font-size="14.00" fill="#666666">[boolean]</text>
</g>
<!-- public.invitations&#45;&gt;public.profiles -->
<g id="edge11" class="edge">
<title>public.invitations:invited_by_profile_id&#45;&gt;public.profiles:id</title>
<path fill="none" stroke="black" d="M2660.06,-1210C2608.07,-1185.07 2662.32,-955.77 2619.18,-907.2 2484.18,-755.2 1944.31,-650.8 1741.02,-650.8"/>
<polygon fill="black" stroke="black" points="2660.09,-1210.01 2668.91,-1216.53 2665.3,-1211.14 2669.54,-1212.06 2669.54,-1212.06 2669.54,-1212.06 2665.3,-1211.14 2670.82,-1207.73 2660.09,-1210.01"/>
<text text-anchor="start" x="2449.54" y="-1196.2" font-family="Arial" font-size="10.00">FOREIGN KEY (invited_by_profile_id) REFERENCES profiles(id)</text>
</g>
</g>
</svg>
