<?xml version="1.0" encoding="UTF-8" standalone="no"?>
<!DOCTYPE svg PUBLIC "-//W3C//DTD SVG 1.1//EN"
 "http://www.w3.org/Graphics/SVG/1.1/DTD/svg11.dtd">
<!-- Generated by graphviz version 12.1.2 (20240928.0832)
 -->
<!-- Title: public.campuses Pages: 1 -->
<svg width="835pt" height="1345pt"
 viewBox="0.00 0.00 835.01 1345.20" xmlns="http://www.w3.org/2000/svg" xmlns:xlink="http://www.w3.org/1999/xlink">
<g id="graph0" class="graph" transform="scale(1 1) rotate(0) translate(4 1341.2)">
<title>public.campuses</title>
<polygon fill="white" stroke="none" points="-4,4 -4,-1341.2 831.01,-1341.2 831.01,4 -4,4"/>
<!-- public.campuses -->
<g id="node1" class="node">
<title>public.campuses</title>
<polygon fill="#efefef" stroke="none" points="268.41,-820.2 268.41,-855.8 526.37,-855.8 526.37,-820.2 268.41,-820.2"/>
<polygon fill="none" stroke="black" points="268.41,-820.2 268.41,-855.8 526.37,-855.8 526.37,-820.2 268.41,-820.2"/>
<text text-anchor="start" x="275.41" y="-833.6" font-family="Arial Bold" font-size="18.00">public.campuses</text>
<text text-anchor="start" x="394.88" y="-833.6" font-family="Arial" font-size="14.00">    </text>
<text text-anchor="start" x="426" y="-833.6" font-family="Arial" font-size="14.00" fill="#666666">[BASE TABLE]</text>
<polygon fill="none" stroke="black" points="268.41,-789.4 268.41,-820.2 526.37,-820.2 526.37,-789.4 268.41,-789.4"/>
<text text-anchor="start" x="275.41" y="-801.6" font-family="Arial" font-size="14.00">created_at </text>
<text text-anchor="start" x="345.46" y="-801.6" font-family="Arial" font-size="14.00" fill="#666666">[timestamp with time zone]</text>
<polygon fill="none" stroke="black" points="268.41,-758.6 268.41,-789.4 526.37,-789.4 526.37,-758.6 268.41,-758.6"/>
<text text-anchor="start" x="275.41" y="-770.8" font-family="Arial" font-size="14.00">created_by </text>
<text text-anchor="start" x="348.57" y="-770.8" font-family="Arial" font-size="14.00" fill="#666666">[uuid]</text>
<polygon fill="none" stroke="black" points="268.41,-727.8 268.41,-758.6 526.37,-758.6 526.37,-727.8 268.41,-727.8"/>
<text text-anchor="start" x="275.41" y="-740" font-family="Arial" font-size="14.00">updated_at </text>
<text text-anchor="start" x="349.37" y="-740" font-family="Arial" font-size="14.00" fill="#666666">[timestamp with time zone]</text>
<polygon fill="none" stroke="black" points="268.41,-697 268.41,-727.8 526.37,-727.8 526.37,-697 268.41,-697"/>
<text text-anchor="start" x="275.41" y="-709.2" font-family="Arial" font-size="14.00">updated_by </text>
<text text-anchor="start" x="352.48" y="-709.2" font-family="Arial" font-size="14.00" fill="#666666">[uuid]</text>
<polygon fill="none" stroke="black" points="268.41,-666.2 268.41,-697 526.37,-697 526.37,-666.2 268.41,-666.2"/>
<text text-anchor="start" x="275.41" y="-678.4" font-family="Arial" font-size="14.00">id </text>
<text text-anchor="start" x="290.19" y="-678.4" font-family="Arial" font-size="14.00" fill="#666666">[bigint]</text>
<polygon fill="none" stroke="black" points="268.41,-635.4 268.41,-666.2 526.37,-666.2 526.37,-635.4 268.41,-635.4"/>
<text text-anchor="start" x="275.41" y="-647.6" font-family="Arial" font-size="14.00">location_id </text>
<text text-anchor="start" x="346.24" y="-647.6" font-family="Arial" font-size="14.00" fill="#666666">[bigint]</text>
<polygon fill="none" stroke="black" points="268.41,-604.6 268.41,-635.4 526.37,-635.4 526.37,-604.6 268.41,-604.6"/>
<text text-anchor="start" x="275.41" y="-616.8" font-family="Arial" font-size="14.00">campus_name </text>
<text text-anchor="start" x="371.12" y="-616.8" font-family="Arial" font-size="14.00" fill="#666666">[text]</text>
<polygon fill="none" stroke="black" points="268.41,-573.8 268.41,-604.6 526.37,-604.6 526.37,-573.8 268.41,-573.8"/>
<text text-anchor="start" x="275.41" y="-586" font-family="Arial" font-size="14.00">president_profile_id </text>
<text text-anchor="start" x="401.49" y="-586" font-family="Arial" font-size="14.00" fill="#666666">[uuid]</text>
<polygon fill="none" stroke="black" stroke-width="3" points="266.91,-572.3 266.91,-857.3 527.87,-857.3 527.87,-572.3 266.91,-572.3"/>
</g>
<!-- public.locations -->
<g id="node3" class="node">
<title>public.locations</title>
<polygon fill="#efefef" stroke="none" points="91.55,-335.8 91.55,-371.4 345.23,-371.4 345.23,-335.8 91.55,-335.8"/>
<polygon fill="none" stroke="black" points="91.55,-335.8 91.55,-371.4 345.23,-371.4 345.23,-335.8 91.55,-335.8"/>
<text text-anchor="start" x="98.9" y="-349.2" font-family="Arial Bold" font-size="18.00">public.locations</text>
<text text-anchor="start" x="213.38" y="-349.2" font-family="Arial" font-size="14.00">    </text>
<text text-anchor="start" x="244.5" y="-349.2" font-family="Arial" font-size="14.00" fill="#666666">[BASE TABLE]</text>
<polygon fill="none" stroke="black" points="91.55,-305 91.55,-335.8 345.23,-335.8 345.23,-305 91.55,-305"/>
<text text-anchor="start" x="98.55" y="-317.2" font-family="Arial" font-size="14.00">created_at </text>
<text text-anchor="start" x="168.59" y="-317.2" font-family="Arial" font-size="14.00" fill="#666666">[timestamp with time zone]</text>
<polygon fill="none" stroke="black" points="91.55,-274.2 91.55,-305 345.23,-305 345.23,-274.2 91.55,-274.2"/>
<text text-anchor="start" x="98.55" y="-286.4" font-family="Arial" font-size="14.00">created_by </text>
<text text-anchor="start" x="171.71" y="-286.4" font-family="Arial" font-size="14.00" fill="#666666">[uuid]</text>
<polygon fill="none" stroke="black" points="91.55,-243.4 91.55,-274.2 345.23,-274.2 345.23,-243.4 91.55,-243.4"/>
<text text-anchor="start" x="98.55" y="-255.6" font-family="Arial" font-size="14.00">updated_at </text>
<text text-anchor="start" x="172.5" y="-255.6" font-family="Arial" font-size="14.00" fill="#666666">[timestamp with time zone]</text>
<polygon fill="none" stroke="black" points="91.55,-212.6 91.55,-243.4 345.23,-243.4 345.23,-212.6 91.55,-212.6"/>
<text text-anchor="start" x="98.55" y="-224.8" font-family="Arial" font-size="14.00">updated_by </text>
<text text-anchor="start" x="175.62" y="-224.8" font-family="Arial" font-size="14.00" fill="#666666">[uuid]</text>
<polygon fill="none" stroke="black" points="91.55,-181.8 91.55,-212.6 345.23,-212.6 345.23,-181.8 91.55,-181.8"/>
<text text-anchor="start" x="98.55" y="-194" font-family="Arial" font-size="14.00">id </text>
<text text-anchor="start" x="113.33" y="-194" font-family="Arial" font-size="14.00" fill="#666666">[bigint]</text>
<polygon fill="none" stroke="black" points="91.55,-151 91.55,-181.8 345.23,-181.8 345.23,-151 91.55,-151"/>
<text text-anchor="start" x="98.55" y="-163.2" font-family="Arial" font-size="14.00">city_id </text>
<text text-anchor="start" x="142.12" y="-163.2" font-family="Arial" font-size="14.00" fill="#666666">[bigint]</text>
<polygon fill="none" stroke="black" points="91.55,-120.2 91.55,-151 345.23,-151 345.23,-120.2 91.55,-120.2"/>
<text text-anchor="start" x="98.55" y="-132.4" font-family="Arial" font-size="14.00">address </text>
<text text-anchor="start" x="152.24" y="-132.4" font-family="Arial" font-size="14.00" fill="#666666">[text]</text>
</g>
<!-- public.campuses&#45;&gt;public.locations -->
<g id="edge2" class="edge">
<title>public.campuses:location_id&#45;&gt;public.locations:id</title>
<path fill="none" stroke="black" d="M257.21,-649.78C218.08,-640.92 253.24,-576.19 268.41,-527.6 286.5,-469.63 327.23,-472.6 345.23,-414.6 373.86,-322.32 442.85,-197.2 346.23,-197.2"/>
<polygon fill="black" stroke="black" points="257.13,-649.77 266.63,-655.24 262.43,-650.3 266.74,-650.73 266.74,-650.73 266.74,-650.73 262.43,-650.3 267.52,-646.29 257.13,-649.77"/>
<text text-anchor="start" x="7" y="-660.8" font-family="Arial" font-size="10.00">FOREIGN KEY (location_id) REFERENCES locations(id)</text>
</g>
<!-- public.profiles -->
<g id="node4" class="node">
<title>public.profiles</title>
<polygon fill="#efefef" stroke="none" points="449.55,-412.8 449.55,-448.4 703.23,-448.4 703.23,-412.8 449.55,-412.8"/>
<polygon fill="none" stroke="black" points="449.55,-412.8 449.55,-448.4 703.23,-448.4 703.23,-412.8 449.55,-412.8"/>
<text text-anchor="start" x="461.91" y="-426.2" font-family="Arial Bold" font-size="18.00">public.profiles</text>
<text text-anchor="start" x="566.38" y="-426.2" font-family="Arial" font-size="14.00">    </text>
<text text-anchor="start" x="597.5" y="-426.2" font-family="Arial" font-size="14.00" fill="#666666">[BASE TABLE]</text>
<polygon fill="none" stroke="black" points="449.55,-382 449.55,-412.8 703.23,-412.8 703.23,-382 449.55,-382"/>
<text text-anchor="start" x="456.55" y="-394.2" font-family="Arial" font-size="14.00">created_at </text>
<text text-anchor="start" x="526.59" y="-394.2" font-family="Arial" font-size="14.00" fill="#666666">[timestamp with time zone]</text>
<polygon fill="none" stroke="black" points="449.55,-351.2 449.55,-382 703.23,-382 703.23,-351.2 449.55,-351.2"/>
<text text-anchor="start" x="456.55" y="-363.4" font-family="Arial" font-size="14.00">created_by </text>
<text text-anchor="start" x="529.71" y="-363.4" font-family="Arial" font-size="14.00" fill="#666666">[uuid]</text>
<polygon fill="none" stroke="black" points="449.55,-320.4 449.55,-351.2 703.23,-351.2 703.23,-320.4 449.55,-320.4"/>
<text text-anchor="start" x="456.55" y="-332.6" font-family="Arial" font-size="14.00">updated_at </text>
<text text-anchor="start" x="530.5" y="-332.6" font-family="Arial" font-size="14.00" fill="#666666">[timestamp with time zone]</text>
<polygon fill="none" stroke="black" points="449.55,-289.6 449.55,-320.4 703.23,-320.4 703.23,-289.6 449.55,-289.6"/>
<text text-anchor="start" x="456.55" y="-301.8" font-family="Arial" font-size="14.00">updated_by </text>
<text text-anchor="start" x="533.62" y="-301.8" font-family="Arial" font-size="14.00" fill="#666666">[uuid]</text>
<polygon fill="none" stroke="black" points="449.55,-258.8 449.55,-289.6 703.23,-289.6 703.23,-258.8 449.55,-258.8"/>
<text text-anchor="start" x="456.55" y="-271" font-family="Arial" font-size="14.00">id </text>
<text text-anchor="start" x="471.33" y="-271" font-family="Arial" font-size="14.00" fill="#666666">[uuid]</text>
<polygon fill="none" stroke="black" points="449.55,-228 449.55,-258.8 703.23,-258.8 703.23,-228 449.55,-228"/>
<text text-anchor="start" x="456.55" y="-240.2" font-family="Arial" font-size="14.00">first_name </text>
<text text-anchor="start" x="525.79" y="-240.2" font-family="Arial" font-size="14.00" fill="#666666">[text]</text>
<polygon fill="none" stroke="black" points="449.55,-197.2 449.55,-228 703.23,-228 703.23,-197.2 449.55,-197.2"/>
<text text-anchor="start" x="456.55" y="-209.4" font-family="Arial" font-size="14.00">last_name </text>
<text text-anchor="start" x="525.03" y="-209.4" font-family="Arial" font-size="14.00" fill="#666666">[text]</text>
<polygon fill="none" stroke="black" points="449.55,-166.4 449.55,-197.2 703.23,-197.2 703.23,-166.4 449.55,-166.4"/>
<text text-anchor="start" x="456.55" y="-178.6" font-family="Arial" font-size="14.00">national_id </text>
<text text-anchor="start" x="528.16" y="-178.6" font-family="Arial" font-size="14.00" fill="#666666">[text]</text>
<polygon fill="none" stroke="black" points="449.55,-135.6 449.55,-166.4 703.23,-166.4 703.23,-135.6 449.55,-135.6"/>
<text text-anchor="start" x="456.55" y="-147.8" font-family="Arial" font-size="14.00">email </text>
<text text-anchor="start" x="493.89" y="-147.8" font-family="Arial" font-size="14.00" fill="#666666">[text]</text>
<polygon fill="none" stroke="black" points="449.55,-104.8 449.55,-135.6 703.23,-135.6 703.23,-104.8 449.55,-104.8"/>
<text text-anchor="start" x="456.55" y="-117" font-family="Arial" font-size="14.00">primary_contact </text>
<text text-anchor="start" x="560.03" y="-117" font-family="Arial" font-size="14.00" fill="#666666">[text]</text>
<polygon fill="none" stroke="black" points="449.55,-74 449.55,-104.8 703.23,-104.8 703.23,-74 449.55,-74"/>
<text text-anchor="start" x="456.55" y="-86.2" font-family="Arial" font-size="14.00">secondary_contact </text>
<text text-anchor="start" x="577.95" y="-86.2" font-family="Arial" font-size="14.00" fill="#666666">[text]</text>
<polygon fill="none" stroke="black" points="449.55,-43.2 449.55,-74 703.23,-74 703.23,-43.2 449.55,-43.2"/>
<text text-anchor="start" x="456.55" y="-55.4" font-family="Arial" font-size="14.00">role_id </text>
<text text-anchor="start" x="502.46" y="-55.4" font-family="Arial" font-size="14.00" fill="#666666">[bigint]</text>
</g>
<!-- public.campuses&#45;&gt;public.profiles -->
<g id="edge3" class="edge">
<title>public.campuses:president_profile_id&#45;&gt;public.profiles:id</title>
<path fill="none" stroke="black" d="M537.36,-586.58C550.49,-577.51 538.92,-547 526.37,-527.6 505.88,-495.95 469.85,-523.37 449.55,-491.6 423.53,-450.89 400.24,-274.2 448.55,-274.2"/>
<polygon fill="black" stroke="black" points="537.36,-586.58 526.55,-584.76 532.2,-587.93 528.01,-589.03 528.01,-589.03 528.01,-589.03 532.2,-587.93 528.83,-593.47 537.36,-586.58"/>
<text text-anchor="start" x="534.37" y="-599.2" font-family="Arial" font-size="10.00">FOREIGN KEY (president_profile_id) REFERENCES profiles(id)</text>
</g>
<!-- public.faculties -->
<g id="node2" class="node">
<title>public.faculties</title>
<polygon fill="#efefef" stroke="none" points="270.55,-1258.4 270.55,-1294 524.23,-1294 524.23,-1258.4 270.55,-1258.4"/>
<polygon fill="none" stroke="black" points="270.55,-1258.4 270.55,-1294 524.23,-1294 524.23,-1258.4 270.55,-1258.4"/>
<text text-anchor="start" x="279.91" y="-1271.8" font-family="Arial Bold" font-size="18.00">public.faculties</text>
<text text-anchor="start" x="390.37" y="-1271.8" font-family="Arial" font-size="14.00">    </text>
<text text-anchor="start" x="421.49" y="-1271.8" font-family="Arial" font-size="14.00" fill="#666666">[BASE TABLE]</text>
<polygon fill="none" stroke="black" points="270.55,-1227.6 270.55,-1258.4 524.23,-1258.4 524.23,-1227.6 270.55,-1227.6"/>
<text text-anchor="start" x="277.55" y="-1239.8" font-family="Arial" font-size="14.00">created_at </text>
<text text-anchor="start" x="347.59" y="-1239.8" font-family="Arial" font-size="14.00" fill="#666666">[timestamp with time zone]</text>
<polygon fill="none" stroke="black" points="270.55,-1196.8 270.55,-1227.6 524.23,-1227.6 524.23,-1196.8 270.55,-1196.8"/>
<text text-anchor="start" x="277.55" y="-1209" font-family="Arial" font-size="14.00">created_by </text>
<text text-anchor="start" x="350.71" y="-1209" font-family="Arial" font-size="14.00" fill="#666666">[uuid]</text>
<polygon fill="none" stroke="black" points="270.55,-1166 270.55,-1196.8 524.23,-1196.8 524.23,-1166 270.55,-1166"/>
<text text-anchor="start" x="277.55" y="-1178.2" font-family="Arial" font-size="14.00">updated_at </text>
<text text-anchor="start" x="351.5" y="-1178.2" font-family="Arial" font-size="14.00" fill="#666666">[timestamp with time zone]</text>
<polygon fill="none" stroke="black" points="270.55,-1135.2 270.55,-1166 524.23,-1166 524.23,-1135.2 270.55,-1135.2"/>
<text text-anchor="start" x="277.55" y="-1147.4" font-family="Arial" font-size="14.00">updated_by </text>
<text text-anchor="start" x="354.62" y="-1147.4" font-family="Arial" font-size="14.00" fill="#666666">[uuid]</text>
<polygon fill="none" stroke="black" points="270.55,-1104.4 270.55,-1135.2 524.23,-1135.2 524.23,-1104.4 270.55,-1104.4"/>
<text text-anchor="start" x="277.55" y="-1116.6" font-family="Arial" font-size="14.00">id </text>
<text text-anchor="start" x="292.33" y="-1116.6" font-family="Arial" font-size="14.00" fill="#666666">[bigint]</text>
<polygon fill="none" stroke="black" points="270.55,-1073.6 270.55,-1104.4 524.23,-1104.4 524.23,-1073.6 270.55,-1073.6"/>
<text text-anchor="start" x="277.55" y="-1085.8" font-family="Arial" font-size="14.00">campus_id </text>
<text text-anchor="start" x="349.14" y="-1085.8" font-family="Arial" font-size="14.00" fill="#666666">[bigint]</text>
<polygon fill="none" stroke="black" points="270.55,-1042.8 270.55,-1073.6 524.23,-1073.6 524.23,-1042.8 270.55,-1042.8"/>
<text text-anchor="start" x="277.55" y="-1055" font-family="Arial" font-size="14.00">faculty_name </text>
<text text-anchor="start" x="364.71" y="-1055" font-family="Arial" font-size="14.00" fill="#666666">[text]</text>
<polygon fill="none" stroke="black" points="270.55,-1012 270.55,-1042.8 524.23,-1042.8 524.23,-1012 270.55,-1012"/>
<text text-anchor="start" x="277.55" y="-1024.2" font-family="Arial" font-size="14.00">dean_profile_id </text>
<text text-anchor="start" x="377.18" y="-1024.2" font-family="Arial" font-size="14.00" fill="#666666">[uuid]</text>
<polygon fill="none" stroke="black" points="270.55,-981.2 270.55,-1012 524.23,-1012 524.23,-981.2 270.55,-981.2"/>
<text text-anchor="start" x="277.55" y="-993.4" font-family="Arial" font-size="14.00">coordinator_profile_id </text>
<text text-anchor="start" x="416.08" y="-993.4" font-family="Arial" font-size="14.00" fill="#666666">[uuid]</text>
</g>
<!-- public.faculties&#45;&gt;public.campuses -->
<g id="edge1" class="edge">
<title>public.faculties:campus_id&#45;&gt;public.campuses:id</title>
<path fill="none" stroke="black" d="M535.63,-1088.54C706.31,-1073.24 704.9,-681.6 527.37,-681.6"/>
<polygon fill="black" stroke="black" points="535.55,-1088.54 525.36,-1084.49 530.22,-1088.78 525.9,-1088.97 525.9,-1088.97 525.9,-1088.97 530.22,-1088.78 525.76,-1093.48 535.55,-1088.54"/>
<text text-anchor="start" x="532.23" y="-1099" font-family="Arial" font-size="10.00">FOREIGN KEY (campus_id) REFERENCES campuses(id)</text>
</g>
</g>
</svg>
