<?xml version="1.0" encoding="UTF-8" standalone="no"?>
<!DOCTYPE svg PUBLIC "-//W3C//DTD SVG 1.1//EN"
 "http://www.w3.org/Graphics/SVG/1.1/DTD/svg11.dtd">
<!-- Generated by graphviz version 12.1.2 (20240928.0832)
 -->
<!-- Title: public.states Pages: 1 -->
<svg width="576pt" height="1068pt"
 viewBox="0.00 0.00 575.72 1068.00" xmlns="http://www.w3.org/2000/svg" xmlns:xlink="http://www.w3.org/1999/xlink">
<g id="graph0" class="graph" transform="scale(1 1) rotate(0) translate(4 1064)">
<title>public.states</title>
<polygon fill="white" stroke="none" points="-4,4 -4,-1064 571.72,-1064 571.72,4 -4,4"/>
<!-- public.states -->
<g id="node1" class="node">
<title>public.states</title>
<polygon fill="#efefef" stroke="none" points="46.2,-604.6 46.2,-640.2 299.88,-640.2 299.88,-604.6 46.2,-604.6"/>
<polygon fill="none" stroke="black" points="46.2,-604.6 46.2,-640.2 299.88,-640.2 299.88,-604.6 46.2,-604.6"/>
<text text-anchor="start" x="66.06" y="-618" font-family="Arial Bold" font-size="18.00">public.states</text>
<text text-anchor="start" x="155.54" y="-618" font-family="Arial" font-size="14.00">    </text>
<text text-anchor="start" x="186.65" y="-618" font-family="Arial" font-size="14.00" fill="#666666">[BASE TABLE]</text>
<polygon fill="none" stroke="black" points="46.2,-573.8 46.2,-604.6 299.88,-604.6 299.88,-573.8 46.2,-573.8"/>
<text text-anchor="start" x="53.2" y="-586" font-family="Arial" font-size="14.00">created_at </text>
<text text-anchor="start" x="123.25" y="-586" font-family="Arial" font-size="14.00" fill="#666666">[timestamp with time zone]</text>
<polygon fill="none" stroke="black" points="46.2,-543 46.2,-573.8 299.88,-573.8 299.88,-543 46.2,-543"/>
<text text-anchor="start" x="53.2" y="-555.2" font-family="Arial" font-size="14.00">created_by </text>
<text text-anchor="start" x="126.36" y="-555.2" font-family="Arial" font-size="14.00" fill="#666666">[uuid]</text>
<polygon fill="none" stroke="black" points="46.2,-512.2 46.2,-543 299.88,-543 299.88,-512.2 46.2,-512.2"/>
<text text-anchor="start" x="53.2" y="-524.4" font-family="Arial" font-size="14.00">updated_at </text>
<text text-anchor="start" x="127.16" y="-524.4" font-family="Arial" font-size="14.00" fill="#666666">[timestamp with time zone]</text>
<polygon fill="none" stroke="black" points="46.2,-481.4 46.2,-512.2 299.88,-512.2 299.88,-481.4 46.2,-481.4"/>
<text text-anchor="start" x="53.2" y="-493.6" font-family="Arial" font-size="14.00">updated_by </text>
<text text-anchor="start" x="130.27" y="-493.6" font-family="Arial" font-size="14.00" fill="#666666">[uuid]</text>
<polygon fill="none" stroke="black" points="46.2,-450.6 46.2,-481.4 299.88,-481.4 299.88,-450.6 46.2,-450.6"/>
<text text-anchor="start" x="53.2" y="-462.8" font-family="Arial" font-size="14.00">id </text>
<text text-anchor="start" x="67.99" y="-462.8" font-family="Arial" font-size="14.00" fill="#666666">[bigint]</text>
<polygon fill="none" stroke="black" points="46.2,-419.8 46.2,-450.6 299.88,-450.6 299.88,-419.8 46.2,-419.8"/>
<text text-anchor="start" x="53.2" y="-432" font-family="Arial" font-size="14.00">country_id </text>
<text text-anchor="start" x="121.68" y="-432" font-family="Arial" font-size="14.00" fill="#666666">[bigint]</text>
<polygon fill="none" stroke="black" points="46.2,-389 46.2,-419.8 299.88,-419.8 299.88,-389 46.2,-389"/>
<text text-anchor="start" x="53.2" y="-401.2" font-family="Arial" font-size="14.00">state_name </text>
<text text-anchor="start" x="130.25" y="-401.2" font-family="Arial" font-size="14.00" fill="#666666">[text]</text>
<polygon fill="none" stroke="black" stroke-width="3" points="44.7,-387.5 44.7,-641.7 301.38,-641.7 301.38,-387.5 44.7,-387.5"/>
</g>
<!-- public.countries -->
<g id="node3" class="node">
<title>public.countries</title>
<polygon fill="#efefef" stroke="none" points="46.06,-228 46.06,-263.6 300.02,-263.6 300.02,-228 46.06,-228"/>
<polygon fill="none" stroke="black" points="46.06,-228 46.06,-263.6 300.02,-263.6 300.02,-228 46.06,-228"/>
<text text-anchor="start" x="53.06" y="-241.4" font-family="Arial Bold" font-size="18.00">public.countries</text>
<text text-anchor="start" x="168.53" y="-241.4" font-family="Arial" font-size="14.00">    </text>
<text text-anchor="start" x="199.65" y="-241.4" font-family="Arial" font-size="14.00" fill="#666666">[BASE TABLE]</text>
<polygon fill="none" stroke="black" points="46.06,-197.2 46.06,-228 300.02,-228 300.02,-197.2 46.06,-197.2"/>
<text text-anchor="start" x="53.06" y="-209.4" font-family="Arial" font-size="14.00">created_at </text>
<text text-anchor="start" x="123.11" y="-209.4" font-family="Arial" font-size="14.00" fill="#666666">[timestamp with time zone]</text>
<polygon fill="none" stroke="black" points="46.06,-166.4 46.06,-197.2 300.02,-197.2 300.02,-166.4 46.06,-166.4"/>
<text text-anchor="start" x="53.06" y="-178.6" font-family="Arial" font-size="14.00">created_by </text>
<text text-anchor="start" x="126.22" y="-178.6" font-family="Arial" font-size="14.00" fill="#666666">[uuid]</text>
<polygon fill="none" stroke="black" points="46.06,-135.6 46.06,-166.4 300.02,-166.4 300.02,-135.6 46.06,-135.6"/>
<text text-anchor="start" x="53.06" y="-147.8" font-family="Arial" font-size="14.00">updated_at </text>
<text text-anchor="start" x="127.02" y="-147.8" font-family="Arial" font-size="14.00" fill="#666666">[timestamp with time zone]</text>
<polygon fill="none" stroke="black" points="46.06,-104.8 46.06,-135.6 300.02,-135.6 300.02,-104.8 46.06,-104.8"/>
<text text-anchor="start" x="53.06" y="-117" font-family="Arial" font-size="14.00">updated_by </text>
<text text-anchor="start" x="130.13" y="-117" font-family="Arial" font-size="14.00" fill="#666666">[uuid]</text>
<polygon fill="none" stroke="black" points="46.06,-74 46.06,-104.8 300.02,-104.8 300.02,-74 46.06,-74"/>
<text text-anchor="start" x="53.06" y="-86.2" font-family="Arial" font-size="14.00">id </text>
<text text-anchor="start" x="67.85" y="-86.2" font-family="Arial" font-size="14.00" fill="#666666">[bigint]</text>
<polygon fill="none" stroke="black" points="46.06,-43.2 46.06,-74 300.02,-74 300.02,-43.2 46.06,-43.2"/>
<text text-anchor="start" x="53.06" y="-55.4" font-family="Arial" font-size="14.00">country_name </text>
<text text-anchor="start" x="145.67" y="-55.4" font-family="Arial" font-size="14.00" fill="#666666">[text]</text>
</g>
<!-- public.states&#45;&gt;public.countries -->
<g id="edge2" class="edge">
<title>public.states:country_id&#45;&gt;public.countries:id</title>
<path fill="none" stroke="black" d="M310.77,-433.17C377.58,-404.83 374.41,-89.4 301.02,-89.4"/>
<polygon fill="black" stroke="black" points="311,-433.12 300.3,-430.72 305.78,-434.19 301.54,-435.07 301.54,-435.07 301.54,-435.07 305.78,-434.19 302.11,-439.54 311,-433.12"/>
<text text-anchor="start" x="307.88" y="-445.2" font-family="Arial" font-size="10.00">FOREIGN KEY (country_id) REFERENCES countries(id)</text>
</g>
<!-- public.cities -->
<g id="node2" class="node">
<title>public.cities</title>
<polygon fill="#efefef" stroke="none" points="46.2,-981.2 46.2,-1016.8 299.88,-1016.8 299.88,-981.2 46.2,-981.2"/>
<polygon fill="none" stroke="black" points="46.2,-981.2 46.2,-1016.8 299.88,-1016.8 299.88,-981.2 46.2,-981.2"/>
<text text-anchor="start" x="67.06" y="-994.6" font-family="Arial Bold" font-size="18.00">public.cities</text>
<text text-anchor="start" x="154.53" y="-994.6" font-family="Arial" font-size="14.00">    </text>
<text text-anchor="start" x="185.65" y="-994.6" font-family="Arial" font-size="14.00" fill="#666666">[BASE TABLE]</text>
<polygon fill="none" stroke="black" points="46.2,-950.4 46.2,-981.2 299.88,-981.2 299.88,-950.4 46.2,-950.4"/>
<text text-anchor="start" x="53.2" y="-962.6" font-family="Arial" font-size="14.00">created_at </text>
<text text-anchor="start" x="123.25" y="-962.6" font-family="Arial" font-size="14.00" fill="#666666">[timestamp with time zone]</text>
<polygon fill="none" stroke="black" points="46.2,-919.6 46.2,-950.4 299.88,-950.4 299.88,-919.6 46.2,-919.6"/>
<text text-anchor="start" x="53.2" y="-931.8" font-family="Arial" font-size="14.00">created_by </text>
<text text-anchor="start" x="126.36" y="-931.8" font-family="Arial" font-size="14.00" fill="#666666">[uuid]</text>
<polygon fill="none" stroke="black" points="46.2,-888.8 46.2,-919.6 299.88,-919.6 299.88,-888.8 46.2,-888.8"/>
<text text-anchor="start" x="53.2" y="-901" font-family="Arial" font-size="14.00">updated_at </text>
<text text-anchor="start" x="127.16" y="-901" font-family="Arial" font-size="14.00" fill="#666666">[timestamp with time zone]</text>
<polygon fill="none" stroke="black" points="46.2,-858 46.2,-888.8 299.88,-888.8 299.88,-858 46.2,-858"/>
<text text-anchor="start" x="53.2" y="-870.2" font-family="Arial" font-size="14.00">updated_by </text>
<text text-anchor="start" x="130.27" y="-870.2" font-family="Arial" font-size="14.00" fill="#666666">[uuid]</text>
<polygon fill="none" stroke="black" points="46.2,-827.2 46.2,-858 299.88,-858 299.88,-827.2 46.2,-827.2"/>
<text text-anchor="start" x="53.2" y="-839.4" font-family="Arial" font-size="14.00">id </text>
<text text-anchor="start" x="67.99" y="-839.4" font-family="Arial" font-size="14.00" fill="#666666">[bigint]</text>
<polygon fill="none" stroke="black" points="46.2,-796.4 46.2,-827.2 299.88,-827.2 299.88,-796.4 46.2,-796.4"/>
<text text-anchor="start" x="53.2" y="-808.6" font-family="Arial" font-size="14.00">state_id </text>
<text text-anchor="start" x="106.12" y="-808.6" font-family="Arial" font-size="14.00" fill="#666666">[bigint]</text>
<polygon fill="none" stroke="black" points="46.2,-765.6 46.2,-796.4 299.88,-796.4 299.88,-765.6 46.2,-765.6"/>
<text text-anchor="start" x="53.2" y="-777.8" font-family="Arial" font-size="14.00">city_name </text>
<text text-anchor="start" x="120.9" y="-777.8" font-family="Arial" font-size="14.00" fill="#666666">[text]</text>
</g>
<!-- public.cities&#45;&gt;public.states -->
<g id="edge1" class="edge">
<title>public.cities:state_id&#45;&gt;public.states:id</title>
<path fill="none" stroke="black" d="M310.77,-809.77C377.57,-781.43 374.27,-466 300.88,-466"/>
<polygon fill="black" stroke="black" points="311,-809.72 300.3,-807.32 305.78,-810.79 301.54,-811.67 301.54,-811.67 301.54,-811.67 305.78,-810.79 302.11,-816.14 311,-809.72"/>
<text text-anchor="start" x="307.88" y="-821.8" font-family="Arial" font-size="10.00">FOREIGN KEY (state_id) REFERENCES states(id)</text>
</g>
</g>
</svg>
