<?xml version="1.0" encoding="UTF-8" standalone="no"?>
<!DOCTYPE svg PUBLIC "-//W3C//DTD SVG 1.1//EN"
 "http://www.w3.org/Graphics/SVG/1.1/DTD/svg11.dtd">
<!-- Generated by graphviz version 12.1.2 (20240928.0832)
 -->
<!-- Title: public.cities Pages: 1 -->
<svg width="551pt" height="1099pt"
 viewBox="0.00 0.00 550.71 1098.80" xmlns="http://www.w3.org/2000/svg" xmlns:xlink="http://www.w3.org/1999/xlink">
<g id="graph0" class="graph" transform="scale(1 1) rotate(0) translate(4 1094.8)">
<title>public.cities</title>
<polygon fill="white" stroke="none" points="-4,4 -4,-1094.8 546.71,-1094.8 546.71,4 -4,4"/>
<!-- public.cities -->
<g id="node1" class="node">
<title>public.cities</title>
<polygon fill="#efefef" stroke="none" points="46.2,-635.4 46.2,-671 299.88,-671 299.88,-635.4 46.2,-635.4"/>
<polygon fill="none" stroke="black" points="46.2,-635.4 46.2,-671 299.88,-671 299.88,-635.4 46.2,-635.4"/>
<text text-anchor="start" x="67.06" y="-648.8" font-family="Arial Bold" font-size="18.00">public.cities</text>
<text text-anchor="start" x="154.53" y="-648.8" font-family="Arial" font-size="14.00">    </text>
<text text-anchor="start" x="185.65" y="-648.8" font-family="Arial" font-size="14.00" fill="#666666">[BASE TABLE]</text>
<polygon fill="none" stroke="black" points="46.2,-604.6 46.2,-635.4 299.88,-635.4 299.88,-604.6 46.2,-604.6"/>
<text text-anchor="start" x="53.2" y="-616.8" font-family="Arial" font-size="14.00">created_at </text>
<text text-anchor="start" x="123.25" y="-616.8" font-family="Arial" font-size="14.00" fill="#666666">[timestamp with time zone]</text>
<polygon fill="none" stroke="black" points="46.2,-573.8 46.2,-604.6 299.88,-604.6 299.88,-573.8 46.2,-573.8"/>
<text text-anchor="start" x="53.2" y="-586" font-family="Arial" font-size="14.00">created_by </text>
<text text-anchor="start" x="126.36" y="-586" font-family="Arial" font-size="14.00" fill="#666666">[uuid]</text>
<polygon fill="none" stroke="black" points="46.2,-543 46.2,-573.8 299.88,-573.8 299.88,-543 46.2,-543"/>
<text text-anchor="start" x="53.2" y="-555.2" font-family="Arial" font-size="14.00">updated_at </text>
<text text-anchor="start" x="127.16" y="-555.2" font-family="Arial" font-size="14.00" fill="#666666">[timestamp with time zone]</text>
<polygon fill="none" stroke="black" points="46.2,-512.2 46.2,-543 299.88,-543 299.88,-512.2 46.2,-512.2"/>
<text text-anchor="start" x="53.2" y="-524.4" font-family="Arial" font-size="14.00">updated_by </text>
<text text-anchor="start" x="130.27" y="-524.4" font-family="Arial" font-size="14.00" fill="#666666">[uuid]</text>
<polygon fill="none" stroke="black" points="46.2,-481.4 46.2,-512.2 299.88,-512.2 299.88,-481.4 46.2,-481.4"/>
<text text-anchor="start" x="53.2" y="-493.6" font-family="Arial" font-size="14.00">id </text>
<text text-anchor="start" x="67.99" y="-493.6" font-family="Arial" font-size="14.00" fill="#666666">[bigint]</text>
<polygon fill="none" stroke="black" points="46.2,-450.6 46.2,-481.4 299.88,-481.4 299.88,-450.6 46.2,-450.6"/>
<text text-anchor="start" x="53.2" y="-462.8" font-family="Arial" font-size="14.00">state_id </text>
<text text-anchor="start" x="106.12" y="-462.8" font-family="Arial" font-size="14.00" fill="#666666">[bigint]</text>
<polygon fill="none" stroke="black" points="46.2,-419.8 46.2,-450.6 299.88,-450.6 299.88,-419.8 46.2,-419.8"/>
<text text-anchor="start" x="53.2" y="-432" font-family="Arial" font-size="14.00">city_name </text>
<text text-anchor="start" x="120.9" y="-432" font-family="Arial" font-size="14.00" fill="#666666">[text]</text>
<polygon fill="none" stroke="black" stroke-width="3" points="44.7,-418.3 44.7,-672.5 301.38,-672.5 301.38,-418.3 44.7,-418.3"/>
</g>
<!-- public.states -->
<g id="node3" class="node">
<title>public.states</title>
<polygon fill="#efefef" stroke="none" points="46.2,-258.8 46.2,-294.4 299.88,-294.4 299.88,-258.8 46.2,-258.8"/>
<polygon fill="none" stroke="black" points="46.2,-258.8 46.2,-294.4 299.88,-294.4 299.88,-258.8 46.2,-258.8"/>
<text text-anchor="start" x="66.06" y="-272.2" font-family="Arial Bold" font-size="18.00">public.states</text>
<text text-anchor="start" x="155.54" y="-272.2" font-family="Arial" font-size="14.00">    </text>
<text text-anchor="start" x="186.65" y="-272.2" font-family="Arial" font-size="14.00" fill="#666666">[BASE TABLE]</text>
<polygon fill="none" stroke="black" points="46.2,-228 46.2,-258.8 299.88,-258.8 299.88,-228 46.2,-228"/>
<text text-anchor="start" x="53.2" y="-240.2" font-family="Arial" font-size="14.00">created_at </text>
<text text-anchor="start" x="123.25" y="-240.2" font-family="Arial" font-size="14.00" fill="#666666">[timestamp with time zone]</text>
<polygon fill="none" stroke="black" points="46.2,-197.2 46.2,-228 299.88,-228 299.88,-197.2 46.2,-197.2"/>
<text text-anchor="start" x="53.2" y="-209.4" font-family="Arial" font-size="14.00">created_by </text>
<text text-anchor="start" x="126.36" y="-209.4" font-family="Arial" font-size="14.00" fill="#666666">[uuid]</text>
<polygon fill="none" stroke="black" points="46.2,-166.4 46.2,-197.2 299.88,-197.2 299.88,-166.4 46.2,-166.4"/>
<text text-anchor="start" x="53.2" y="-178.6" font-family="Arial" font-size="14.00">updated_at </text>
<text text-anchor="start" x="127.16" y="-178.6" font-family="Arial" font-size="14.00" fill="#666666">[timestamp with time zone]</text>
<polygon fill="none" stroke="black" points="46.2,-135.6 46.2,-166.4 299.88,-166.4 299.88,-135.6 46.2,-135.6"/>
<text text-anchor="start" x="53.2" y="-147.8" font-family="Arial" font-size="14.00">updated_by </text>
<text text-anchor="start" x="130.27" y="-147.8" font-family="Arial" font-size="14.00" fill="#666666">[uuid]</text>
<polygon fill="none" stroke="black" points="46.2,-104.8 46.2,-135.6 299.88,-135.6 299.88,-104.8 46.2,-104.8"/>
<text text-anchor="start" x="53.2" y="-117" font-family="Arial" font-size="14.00">id </text>
<text text-anchor="start" x="67.99" y="-117" font-family="Arial" font-size="14.00" fill="#666666">[bigint]</text>
<polygon fill="none" stroke="black" points="46.2,-74 46.2,-104.8 299.88,-104.8 299.88,-74 46.2,-74"/>
<text text-anchor="start" x="53.2" y="-86.2" font-family="Arial" font-size="14.00">country_id </text>
<text text-anchor="start" x="121.68" y="-86.2" font-family="Arial" font-size="14.00" fill="#666666">[bigint]</text>
<polygon fill="none" stroke="black" points="46.2,-43.2 46.2,-74 299.88,-74 299.88,-43.2 46.2,-43.2"/>
<text text-anchor="start" x="53.2" y="-55.4" font-family="Arial" font-size="14.00">state_name </text>
<text text-anchor="start" x="130.25" y="-55.4" font-family="Arial" font-size="14.00" fill="#666666">[text]</text>
</g>
<!-- public.cities&#45;&gt;public.states -->
<g id="edge2" class="edge">
<title>public.cities:state_id&#45;&gt;public.states:id</title>
<path fill="none" stroke="black" d="M310.77,-463.97C377.57,-435.63 374.27,-120.2 300.88,-120.2"/>
<polygon fill="black" stroke="black" points="311,-463.92 300.3,-461.52 305.78,-464.99 301.54,-465.87 301.54,-465.87 301.54,-465.87 305.78,-464.99 302.11,-470.34 311,-463.92"/>
<text text-anchor="start" x="307.88" y="-476" font-family="Arial" font-size="10.00">FOREIGN KEY (state_id) REFERENCES states(id)</text>
</g>
<!-- public.locations -->
<g id="node2" class="node">
<title>public.locations</title>
<polygon fill="#efefef" stroke="none" points="46.2,-1012 46.2,-1047.6 299.88,-1047.6 299.88,-1012 46.2,-1012"/>
<polygon fill="none" stroke="black" points="46.2,-1012 46.2,-1047.6 299.88,-1047.6 299.88,-1012 46.2,-1012"/>
<text text-anchor="start" x="53.56" y="-1025.4" font-family="Arial Bold" font-size="18.00">public.locations</text>
<text text-anchor="start" x="168.03" y="-1025.4" font-family="Arial" font-size="14.00">    </text>
<text text-anchor="start" x="199.15" y="-1025.4" font-family="Arial" font-size="14.00" fill="#666666">[BASE TABLE]</text>
<polygon fill="none" stroke="black" points="46.2,-981.2 46.2,-1012 299.88,-1012 299.88,-981.2 46.2,-981.2"/>
<text text-anchor="start" x="53.2" y="-993.4" font-family="Arial" font-size="14.00">created_at </text>
<text text-anchor="start" x="123.25" y="-993.4" font-family="Arial" font-size="14.00" fill="#666666">[timestamp with time zone]</text>
<polygon fill="none" stroke="black" points="46.2,-950.4 46.2,-981.2 299.88,-981.2 299.88,-950.4 46.2,-950.4"/>
<text text-anchor="start" x="53.2" y="-962.6" font-family="Arial" font-size="14.00">created_by </text>
<text text-anchor="start" x="126.36" y="-962.6" font-family="Arial" font-size="14.00" fill="#666666">[uuid]</text>
<polygon fill="none" stroke="black" points="46.2,-919.6 46.2,-950.4 299.88,-950.4 299.88,-919.6 46.2,-919.6"/>
<text text-anchor="start" x="53.2" y="-931.8" font-family="Arial" font-size="14.00">updated_at </text>
<text text-anchor="start" x="127.16" y="-931.8" font-family="Arial" font-size="14.00" fill="#666666">[timestamp with time zone]</text>
<polygon fill="none" stroke="black" points="46.2,-888.8 46.2,-919.6 299.88,-919.6 299.88,-888.8 46.2,-888.8"/>
<text text-anchor="start" x="53.2" y="-901" font-family="Arial" font-size="14.00">updated_by </text>
<text text-anchor="start" x="130.27" y="-901" font-family="Arial" font-size="14.00" fill="#666666">[uuid]</text>
<polygon fill="none" stroke="black" points="46.2,-858 46.2,-888.8 299.88,-888.8 299.88,-858 46.2,-858"/>
<text text-anchor="start" x="53.2" y="-870.2" font-family="Arial" font-size="14.00">id </text>
<text text-anchor="start" x="67.99" y="-870.2" font-family="Arial" font-size="14.00" fill="#666666">[bigint]</text>
<polygon fill="none" stroke="black" points="46.2,-827.2 46.2,-858 299.88,-858 299.88,-827.2 46.2,-827.2"/>
<text text-anchor="start" x="53.2" y="-839.4" font-family="Arial" font-size="14.00">city_id </text>
<text text-anchor="start" x="96.77" y="-839.4" font-family="Arial" font-size="14.00" fill="#666666">[bigint]</text>
<polygon fill="none" stroke="black" points="46.2,-796.4 46.2,-827.2 299.88,-827.2 299.88,-796.4 46.2,-796.4"/>
<text text-anchor="start" x="53.2" y="-808.6" font-family="Arial" font-size="14.00">address </text>
<text text-anchor="start" x="106.9" y="-808.6" font-family="Arial" font-size="14.00" fill="#666666">[text]</text>
</g>
<!-- public.locations&#45;&gt;public.cities -->
<g id="edge1" class="edge">
<title>public.locations:city_id&#45;&gt;public.cities:id</title>
<path fill="none" stroke="black" d="M310.77,-840.57C377.57,-812.23 374.27,-496.8 300.88,-496.8"/>
<polygon fill="black" stroke="black" points="311,-840.52 300.3,-838.12 305.78,-841.59 301.54,-842.47 301.54,-842.47 301.54,-842.47 305.78,-841.59 302.11,-846.94 311,-840.52"/>
<text text-anchor="start" x="307.88" y="-852.6" font-family="Arial" font-size="10.00">FOREIGN KEY (city_id) REFERENCES cities(id)</text>
</g>
</g>
</svg>
