<?xml version="1.0" encoding="UTF-8" standalone="no"?>
<!DOCTYPE svg PUBLIC "-//W3C//DTD SVG 1.1//EN"
 "http://www.w3.org/Graphics/SVG/1.1/DTD/svg11.dtd">
<!-- Generated by graphviz version 12.1.2 (20240928.0832)
 -->
<!-- Title: public.roles Pages: 1 -->
<svg width="716pt" height="879pt"
 viewBox="0.00 0.00 716.23 879.20" xmlns="http://www.w3.org/2000/svg" xmlns:xlink="http://www.w3.org/1999/xlink">
<g id="graph0" class="graph" transform="scale(1 1) rotate(0) translate(4 875.2)">
<title>public.roles</title>
<polygon fill="white" stroke="none" points="-4,4 -4,-875.2 712.23,-875.2 712.23,4 -4,4"/>
<!-- public.roles -->
<g id="node1" class="node">
<title>public.roles</title>
<polygon fill="#efefef" stroke="none" points="224.2,-261.8 224.2,-297.4 477.88,-297.4 477.88,-261.8 224.2,-261.8"/>
<polygon fill="none" stroke="black" points="224.2,-261.8 224.2,-297.4 477.88,-297.4 477.88,-261.8 224.2,-261.8"/>
<text text-anchor="start" x="246.56" y="-275.2" font-family="Arial Bold" font-size="18.00">public.roles</text>
<text text-anchor="start" x="331.04" y="-275.2" font-family="Arial" font-size="14.00">    </text>
<text text-anchor="start" x="362.15" y="-275.2" font-family="Arial" font-size="14.00" fill="#666666">[BASE TABLE]</text>
<polygon fill="none" stroke="black" points="224.2,-231 224.2,-261.8 477.88,-261.8 477.88,-231 224.2,-231"/>
<text text-anchor="start" x="231.2" y="-243.2" font-family="Arial" font-size="14.00">created_at </text>
<text text-anchor="start" x="301.25" y="-243.2" font-family="Arial" font-size="14.00" fill="#666666">[timestamp with time zone]</text>
<polygon fill="none" stroke="black" points="224.2,-200.2 224.2,-231 477.88,-231 477.88,-200.2 224.2,-200.2"/>
<text text-anchor="start" x="231.2" y="-212.4" font-family="Arial" font-size="14.00">created_by </text>
<text text-anchor="start" x="304.36" y="-212.4" font-family="Arial" font-size="14.00" fill="#666666">[uuid]</text>
<polygon fill="none" stroke="black" points="224.2,-169.4 224.2,-200.2 477.88,-200.2 477.88,-169.4 224.2,-169.4"/>
<text text-anchor="start" x="231.2" y="-181.6" font-family="Arial" font-size="14.00">updated_at </text>
<text text-anchor="start" x="305.16" y="-181.6" font-family="Arial" font-size="14.00" fill="#666666">[timestamp with time zone]</text>
<polygon fill="none" stroke="black" points="224.2,-138.6 224.2,-169.4 477.88,-169.4 477.88,-138.6 224.2,-138.6"/>
<text text-anchor="start" x="231.2" y="-150.8" font-family="Arial" font-size="14.00">updated_by </text>
<text text-anchor="start" x="308.27" y="-150.8" font-family="Arial" font-size="14.00" fill="#666666">[uuid]</text>
<polygon fill="none" stroke="black" points="224.2,-107.8 224.2,-138.6 477.88,-138.6 477.88,-107.8 224.2,-107.8"/>
<text text-anchor="start" x="231.2" y="-120" font-family="Arial" font-size="14.00">id </text>
<text text-anchor="start" x="245.99" y="-120" font-family="Arial" font-size="14.00" fill="#666666">[bigint]</text>
<polygon fill="none" stroke="black" points="224.2,-77 224.2,-107.8 477.88,-107.8 477.88,-77 224.2,-77"/>
<text text-anchor="start" x="231.2" y="-89.2" font-family="Arial" font-size="14.00">role_name </text>
<text text-anchor="start" x="301.24" y="-89.2" font-family="Arial" font-size="14.00" fill="#666666">[text]</text>
<polygon fill="none" stroke="black" points="224.2,-46.2 224.2,-77 477.88,-77 477.88,-46.2 224.2,-46.2"/>
<text text-anchor="start" x="231.2" y="-58.4" font-family="Arial" font-size="14.00">permission_level </text>
<text text-anchor="start" x="339.36" y="-58.4" font-family="Arial" font-size="14.00" fill="#666666">[integer]</text>
<polygon fill="none" stroke="black" stroke-width="3" points="222.7,-44.7 222.7,-298.9 479.38,-298.9 479.38,-44.7 222.7,-44.7"/>
</g>
<!-- public.profiles -->
<g id="node2" class="node">
<title>public.profiles</title>
<polygon fill="#efefef" stroke="none" points="43.2,-792.4 43.2,-828 296.88,-828 296.88,-792.4 43.2,-792.4"/>
<polygon fill="none" stroke="black" points="43.2,-792.4 43.2,-828 296.88,-828 296.88,-792.4 43.2,-792.4"/>
<text text-anchor="start" x="55.56" y="-805.8" font-family="Arial Bold" font-size="18.00">public.profiles</text>
<text text-anchor="start" x="160.03" y="-805.8" font-family="Arial" font-size="14.00">    </text>
<text text-anchor="start" x="191.15" y="-805.8" font-family="Arial" font-size="14.00" fill="#666666">[BASE TABLE]</text>
<polygon fill="none" stroke="black" points="43.2,-761.6 43.2,-792.4 296.88,-792.4 296.88,-761.6 43.2,-761.6"/>
<text text-anchor="start" x="50.2" y="-773.8" font-family="Arial" font-size="14.00">created_at </text>
<text text-anchor="start" x="120.25" y="-773.8" font-family="Arial" font-size="14.00" fill="#666666">[timestamp with time zone]</text>
<polygon fill="none" stroke="black" points="43.2,-730.8 43.2,-761.6 296.88,-761.6 296.88,-730.8 43.2,-730.8"/>
<text text-anchor="start" x="50.2" y="-743" font-family="Arial" font-size="14.00">created_by </text>
<text text-anchor="start" x="123.36" y="-743" font-family="Arial" font-size="14.00" fill="#666666">[uuid]</text>
<polygon fill="none" stroke="black" points="43.2,-700 43.2,-730.8 296.88,-730.8 296.88,-700 43.2,-700"/>
<text text-anchor="start" x="50.2" y="-712.2" font-family="Arial" font-size="14.00">updated_at </text>
<text text-anchor="start" x="124.16" y="-712.2" font-family="Arial" font-size="14.00" fill="#666666">[timestamp with time zone]</text>
<polygon fill="none" stroke="black" points="43.2,-669.2 43.2,-700 296.88,-700 296.88,-669.2 43.2,-669.2"/>
<text text-anchor="start" x="50.2" y="-681.4" font-family="Arial" font-size="14.00">updated_by </text>
<text text-anchor="start" x="127.27" y="-681.4" font-family="Arial" font-size="14.00" fill="#666666">[uuid]</text>
<polygon fill="none" stroke="black" points="43.2,-638.4 43.2,-669.2 296.88,-669.2 296.88,-638.4 43.2,-638.4"/>
<text text-anchor="start" x="50.2" y="-650.6" font-family="Arial" font-size="14.00">id </text>
<text text-anchor="start" x="64.99" y="-650.6" font-family="Arial" font-size="14.00" fill="#666666">[uuid]</text>
<polygon fill="none" stroke="black" points="43.2,-607.6 43.2,-638.4 296.88,-638.4 296.88,-607.6 43.2,-607.6"/>
<text text-anchor="start" x="50.2" y="-619.8" font-family="Arial" font-size="14.00">first_name </text>
<text text-anchor="start" x="119.45" y="-619.8" font-family="Arial" font-size="14.00" fill="#666666">[text]</text>
<polygon fill="none" stroke="black" points="43.2,-576.8 43.2,-607.6 296.88,-607.6 296.88,-576.8 43.2,-576.8"/>
<text text-anchor="start" x="50.2" y="-589" font-family="Arial" font-size="14.00">last_name </text>
<text text-anchor="start" x="118.68" y="-589" font-family="Arial" font-size="14.00" fill="#666666">[text]</text>
<polygon fill="none" stroke="black" points="43.2,-546 43.2,-576.8 296.88,-576.8 296.88,-546 43.2,-546"/>
<text text-anchor="start" x="50.2" y="-558.2" font-family="Arial" font-size="14.00">national_id </text>
<text text-anchor="start" x="121.81" y="-558.2" font-family="Arial" font-size="14.00" fill="#666666">[text]</text>
<polygon fill="none" stroke="black" points="43.2,-515.2 43.2,-546 296.88,-546 296.88,-515.2 43.2,-515.2"/>
<text text-anchor="start" x="50.2" y="-527.4" font-family="Arial" font-size="14.00">email </text>
<text text-anchor="start" x="87.54" y="-527.4" font-family="Arial" font-size="14.00" fill="#666666">[text]</text>
<polygon fill="none" stroke="black" points="43.2,-484.4 43.2,-515.2 296.88,-515.2 296.88,-484.4 43.2,-484.4"/>
<text text-anchor="start" x="50.2" y="-496.6" font-family="Arial" font-size="14.00">primary_contact </text>
<text text-anchor="start" x="153.68" y="-496.6" font-family="Arial" font-size="14.00" fill="#666666">[text]</text>
<polygon fill="none" stroke="black" points="43.2,-453.6 43.2,-484.4 296.88,-484.4 296.88,-453.6 43.2,-453.6"/>
<text text-anchor="start" x="50.2" y="-465.8" font-family="Arial" font-size="14.00">secondary_contact </text>
<text text-anchor="start" x="171.61" y="-465.8" font-family="Arial" font-size="14.00" fill="#666666">[text]</text>
<polygon fill="none" stroke="black" points="43.2,-422.8 43.2,-453.6 296.88,-453.6 296.88,-422.8 43.2,-422.8"/>
<text text-anchor="start" x="50.2" y="-435" font-family="Arial" font-size="14.00">role_id </text>
<text text-anchor="start" x="96.12" y="-435" font-family="Arial" font-size="14.00" fill="#666666">[bigint]</text>
</g>
<!-- public.profiles&#45;&gt;public.roles -->
<g id="edge1" class="edge">
<title>public.profiles:role_id&#45;&gt;public.roles:id</title>
<path fill="none" stroke="black" d="M307.71,-435.47C319.6,-426.59 308.52,-398 296.88,-379.6 277.61,-349.13 243.28,-374.19 224.2,-343.6 172.36,-260.49 125.24,-123.2 223.2,-123.2"/>
<polygon fill="black" stroke="black" points="307.84,-435.44 297,-433.77 302.7,-436.86 298.53,-438.02 298.53,-438.02 298.53,-438.02 302.7,-436.86 299.41,-442.45 307.84,-435.44"/>
<text text-anchor="start" x="304.88" y="-448.2" font-family="Arial" font-size="10.00">FOREIGN KEY (role_id) REFERENCES roles(id)</text>
</g>
<!-- public.invitations -->
<g id="node3" class="node">
<title>public.invitations</title>
<polygon fill="#efefef" stroke="none" points="401.05,-761.6 401.05,-797.2 665.03,-797.2 665.03,-761.6 401.05,-761.6"/>
<polygon fill="none" stroke="black" points="401.05,-761.6 401.05,-797.2 665.03,-797.2 665.03,-761.6 401.05,-761.6"/>
<text text-anchor="start" x="408.05" y="-775" font-family="Arial Bold" font-size="18.00">public.invitations</text>
<text text-anchor="start" x="533.54" y="-775" font-family="Arial" font-size="14.00">    </text>
<text text-anchor="start" x="564.66" y="-775" font-family="Arial" font-size="14.00" fill="#666666">[BASE TABLE]</text>
<polygon fill="none" stroke="black" points="401.05,-730.8 401.05,-761.6 665.03,-761.6 665.03,-730.8 401.05,-730.8"/>
<text text-anchor="start" x="408.05" y="-743" font-family="Arial" font-size="14.00">created_at </text>
<text text-anchor="start" x="478.1" y="-743" font-family="Arial" font-size="14.00" fill="#666666">[timestamp with time zone]</text>
<polygon fill="none" stroke="black" points="401.05,-700 401.05,-730.8 665.03,-730.8 665.03,-700 401.05,-700"/>
<text text-anchor="start" x="408.05" y="-712.2" font-family="Arial" font-size="14.00">created_by </text>
<text text-anchor="start" x="481.21" y="-712.2" font-family="Arial" font-size="14.00" fill="#666666">[uuid]</text>
<polygon fill="none" stroke="black" points="401.05,-669.2 401.05,-700 665.03,-700 665.03,-669.2 401.05,-669.2"/>
<text text-anchor="start" x="408.05" y="-681.4" font-family="Arial" font-size="14.00">updated_at </text>
<text text-anchor="start" x="482.01" y="-681.4" font-family="Arial" font-size="14.00" fill="#666666">[timestamp with time zone]</text>
<polygon fill="none" stroke="black" points="401.05,-638.4 401.05,-669.2 665.03,-669.2 665.03,-638.4 401.05,-638.4"/>
<text text-anchor="start" x="408.05" y="-650.6" font-family="Arial" font-size="14.00">updated_by </text>
<text text-anchor="start" x="485.12" y="-650.6" font-family="Arial" font-size="14.00" fill="#666666">[uuid]</text>
<polygon fill="none" stroke="black" points="401.05,-607.6 401.05,-638.4 665.03,-638.4 665.03,-607.6 401.05,-607.6"/>
<text text-anchor="start" x="408.05" y="-619.8" font-family="Arial" font-size="14.00">id </text>
<text text-anchor="start" x="422.84" y="-619.8" font-family="Arial" font-size="14.00" fill="#666666">[bigint]</text>
<polygon fill="none" stroke="black" points="401.05,-576.8 401.05,-607.6 665.03,-607.6 665.03,-576.8 401.05,-576.8"/>
<text text-anchor="start" x="408.05" y="-589" font-family="Arial" font-size="14.00">invited_by_profile_id </text>
<text text-anchor="start" x="539.58" y="-589" font-family="Arial" font-size="14.00" fill="#666666">[uuid]</text>
<polygon fill="none" stroke="black" points="401.05,-546 401.05,-576.8 665.03,-576.8 665.03,-546 401.05,-546"/>
<text text-anchor="start" x="408.05" y="-558.2" font-family="Arial" font-size="14.00">email </text>
<text text-anchor="start" x="445.4" y="-558.2" font-family="Arial" font-size="14.00" fill="#666666">[text]</text>
<polygon fill="none" stroke="black" points="401.05,-515.2 401.05,-546 665.03,-546 665.03,-515.2 401.05,-515.2"/>
<text text-anchor="start" x="408.05" y="-527.4" font-family="Arial" font-size="14.00">role_id </text>
<text text-anchor="start" x="453.97" y="-527.4" font-family="Arial" font-size="14.00" fill="#666666">[bigint]</text>
<polygon fill="none" stroke="black" points="401.05,-484.4 401.05,-515.2 665.03,-515.2 665.03,-484.4 401.05,-484.4"/>
<text text-anchor="start" x="408.05" y="-496.6" font-family="Arial" font-size="14.00">token </text>
<text text-anchor="start" x="446.19" y="-496.6" font-family="Arial" font-size="14.00" fill="#666666">[text]</text>
<polygon fill="none" stroke="black" points="401.05,-453.6 401.05,-484.4 665.03,-484.4 665.03,-453.6 401.05,-453.6"/>
<text text-anchor="start" x="408.05" y="-465.8" font-family="Arial" font-size="14.00">is_active </text>
<text text-anchor="start" x="466.41" y="-465.8" font-family="Arial" font-size="14.00" fill="#666666">[boolean]</text>
</g>
<!-- public.invitations&#45;&gt;public.roles -->
<g id="edge2" class="edge">
<title>public.invitations:role_id&#45;&gt;public.roles:id</title>
<path fill="none" stroke="black" d="M390.02,-529.57C351.09,-520.63 380.27,-455.51 401.05,-410.4 419.98,-369.3 459.03,-384.73 477.88,-343.6 518.7,-254.55 576.84,-123.2 478.88,-123.2"/>
<polygon fill="black" stroke="black" points="389.77,-529.54 399.26,-535.04 395.08,-530.09 399.39,-530.53 399.39,-530.53 399.39,-530.53 395.08,-530.09 400.18,-526.09 389.77,-529.54"/>
<text text-anchor="start" x="349.1" y="-514.6" font-family="Arial" font-size="10.00">FOREIGN KEY (role_id) REFERENCES roles(id)</text>
</g>
</g>
</svg>
