<?xml version="1.0" encoding="UTF-8" standalone="no"?>
<!DOCTYPE svg PUBLIC "-//W3C//DTD SVG 1.1//EN"
 "http://www.w3.org/Graphics/SVG/1.1/DTD/svg11.dtd">
<!-- Generated by graphviz version 12.1.2 (20240928.0832)
 -->
<!-- Title: public.locations Pages: 1 -->
<svg width="724pt" height="1130pt"
 viewBox="0.00 0.00 724.38 1129.60" xmlns="http://www.w3.org/2000/svg" xmlns:xlink="http://www.w3.org/1999/xlink">
<g id="graph0" class="graph" transform="scale(1 1) rotate(0) translate(4 1125.6)">
<title>public.locations</title>
<polygon fill="white" stroke="none" points="-4,4 -4,-1125.6 720.38,-1125.6 720.38,4 -4,4"/>
<!-- public.locations -->
<g id="node1" class="node">
<title>public.locations</title>
<polygon fill="#efefef" stroke="none" points="228.34,-635.4 228.34,-671 482.02,-671 482.02,-635.4 228.34,-635.4"/>
<polygon fill="none" stroke="black" points="228.34,-635.4 228.34,-671 482.02,-671 482.02,-635.4 228.34,-635.4"/>
<text text-anchor="start" x="235.7" y="-648.8" font-family="Arial Bold" font-size="18.00">public.locations</text>
<text text-anchor="start" x="350.17" y="-648.8" font-family="Arial" font-size="14.00">    </text>
<text text-anchor="start" x="381.29" y="-648.8" font-family="Arial" font-size="14.00" fill="#666666">[BASE TABLE]</text>
<polygon fill="none" stroke="black" points="228.34,-604.6 228.34,-635.4 482.02,-635.4 482.02,-604.6 228.34,-604.6"/>
<text text-anchor="start" x="235.34" y="-616.8" font-family="Arial" font-size="14.00">created_at </text>
<text text-anchor="start" x="305.39" y="-616.8" font-family="Arial" font-size="14.00" fill="#666666">[timestamp with time zone]</text>
<polygon fill="none" stroke="black" points="228.34,-573.8 228.34,-604.6 482.02,-604.6 482.02,-573.8 228.34,-573.8"/>
<text text-anchor="start" x="235.34" y="-586" font-family="Arial" font-size="14.00">created_by </text>
<text text-anchor="start" x="308.5" y="-586" font-family="Arial" font-size="14.00" fill="#666666">[uuid]</text>
<polygon fill="none" stroke="black" points="228.34,-543 228.34,-573.8 482.02,-573.8 482.02,-543 228.34,-543"/>
<text text-anchor="start" x="235.34" y="-555.2" font-family="Arial" font-size="14.00">updated_at </text>
<text text-anchor="start" x="309.3" y="-555.2" font-family="Arial" font-size="14.00" fill="#666666">[timestamp with time zone]</text>
<polygon fill="none" stroke="black" points="228.34,-512.2 228.34,-543 482.02,-543 482.02,-512.2 228.34,-512.2"/>
<text text-anchor="start" x="235.34" y="-524.4" font-family="Arial" font-size="14.00">updated_by </text>
<text text-anchor="start" x="312.41" y="-524.4" font-family="Arial" font-size="14.00" fill="#666666">[uuid]</text>
<polygon fill="none" stroke="black" points="228.34,-481.4 228.34,-512.2 482.02,-512.2 482.02,-481.4 228.34,-481.4"/>
<text text-anchor="start" x="235.34" y="-493.6" font-family="Arial" font-size="14.00">id </text>
<text text-anchor="start" x="250.12" y="-493.6" font-family="Arial" font-size="14.00" fill="#666666">[bigint]</text>
<polygon fill="none" stroke="black" points="228.34,-450.6 228.34,-481.4 482.02,-481.4 482.02,-450.6 228.34,-450.6"/>
<text text-anchor="start" x="235.34" y="-462.8" font-family="Arial" font-size="14.00">city_id </text>
<text text-anchor="start" x="278.91" y="-462.8" font-family="Arial" font-size="14.00" fill="#666666">[bigint]</text>
<polygon fill="none" stroke="black" points="228.34,-419.8 228.34,-450.6 482.02,-450.6 482.02,-419.8 228.34,-419.8"/>
<text text-anchor="start" x="235.34" y="-432" font-family="Arial" font-size="14.00">address </text>
<text text-anchor="start" x="289.03" y="-432" font-family="Arial" font-size="14.00" fill="#666666">[text]</text>
<polygon fill="none" stroke="black" stroke-width="3" points="226.84,-418.3 226.84,-672.5 483.52,-672.5 483.52,-418.3 226.84,-418.3"/>
</g>
<!-- public.cities -->
<g id="node4" class="node">
<title>public.cities</title>
<polygon fill="#efefef" stroke="none" points="228.34,-258.8 228.34,-294.4 482.02,-294.4 482.02,-258.8 228.34,-258.8"/>
<polygon fill="none" stroke="black" points="228.34,-258.8 228.34,-294.4 482.02,-294.4 482.02,-258.8 228.34,-258.8"/>
<text text-anchor="start" x="249.2" y="-272.2" font-family="Arial Bold" font-size="18.00">public.cities</text>
<text text-anchor="start" x="336.67" y="-272.2" font-family="Arial" font-size="14.00">    </text>
<text text-anchor="start" x="367.79" y="-272.2" font-family="Arial" font-size="14.00" fill="#666666">[BASE TABLE]</text>
<polygon fill="none" stroke="black" points="228.34,-228 228.34,-258.8 482.02,-258.8 482.02,-228 228.34,-228"/>
<text text-anchor="start" x="235.34" y="-240.2" font-family="Arial" font-size="14.00">created_at </text>
<text text-anchor="start" x="305.39" y="-240.2" font-family="Arial" font-size="14.00" fill="#666666">[timestamp with time zone]</text>
<polygon fill="none" stroke="black" points="228.34,-197.2 228.34,-228 482.02,-228 482.02,-197.2 228.34,-197.2"/>
<text text-anchor="start" x="235.34" y="-209.4" font-family="Arial" font-size="14.00">created_by </text>
<text text-anchor="start" x="308.5" y="-209.4" font-family="Arial" font-size="14.00" fill="#666666">[uuid]</text>
<polygon fill="none" stroke="black" points="228.34,-166.4 228.34,-197.2 482.02,-197.2 482.02,-166.4 228.34,-166.4"/>
<text text-anchor="start" x="235.34" y="-178.6" font-family="Arial" font-size="14.00">updated_at </text>
<text text-anchor="start" x="309.3" y="-178.6" font-family="Arial" font-size="14.00" fill="#666666">[timestamp with time zone]</text>
<polygon fill="none" stroke="black" points="228.34,-135.6 228.34,-166.4 482.02,-166.4 482.02,-135.6 228.34,-135.6"/>
<text text-anchor="start" x="235.34" y="-147.8" font-family="Arial" font-size="14.00">updated_by </text>
<text text-anchor="start" x="312.41" y="-147.8" font-family="Arial" font-size="14.00" fill="#666666">[uuid]</text>
<polygon fill="none" stroke="black" points="228.34,-104.8 228.34,-135.6 482.02,-135.6 482.02,-104.8 228.34,-104.8"/>
<text text-anchor="start" x="235.34" y="-117" font-family="Arial" font-size="14.00">id </text>
<text text-anchor="start" x="250.12" y="-117" font-family="Arial" font-size="14.00" fill="#666666">[bigint]</text>
<polygon fill="none" stroke="black" points="228.34,-74 228.34,-104.8 482.02,-104.8 482.02,-74 228.34,-74"/>
<text text-anchor="start" x="235.34" y="-86.2" font-family="Arial" font-size="14.00">state_id </text>
<text text-anchor="start" x="288.26" y="-86.2" font-family="Arial" font-size="14.00" fill="#666666">[bigint]</text>
<polygon fill="none" stroke="black" points="228.34,-43.2 228.34,-74 482.02,-74 482.02,-43.2 228.34,-43.2"/>
<text text-anchor="start" x="235.34" y="-55.4" font-family="Arial" font-size="14.00">city_name </text>
<text text-anchor="start" x="303.03" y="-55.4" font-family="Arial" font-size="14.00" fill="#666666">[text]</text>
</g>
<!-- public.locations&#45;&gt;public.cities -->
<g id="edge3" class="edge">
<title>public.locations:city_id&#45;&gt;public.cities:id</title>
<path fill="none" stroke="black" d="M493.14,-465.48C636.63,-450.64 633.26,-120.2 483.02,-120.2"/>
<polygon fill="black" stroke="black" points="493.34,-465.47 483.13,-461.49 488.01,-465.75 483.69,-465.97 483.69,-465.97 483.69,-465.97 488.01,-465.75 483.58,-470.48 493.34,-465.47"/>
<text text-anchor="start" x="490.02" y="-476" font-family="Arial" font-size="10.00">FOREIGN KEY (city_id) REFERENCES cities(id)</text>
</g>
<!-- public.campuses -->
<g id="node2" class="node">
<title>public.campuses</title>
<polygon fill="#efefef" stroke="none" points="43.2,-1042.8 43.2,-1078.4 301.16,-1078.4 301.16,-1042.8 43.2,-1042.8"/>
<polygon fill="none" stroke="black" points="43.2,-1042.8 43.2,-1078.4 301.16,-1078.4 301.16,-1042.8 43.2,-1042.8"/>
<text text-anchor="start" x="50.2" y="-1056.2" font-family="Arial Bold" font-size="18.00">public.campuses</text>
<text text-anchor="start" x="169.67" y="-1056.2" font-family="Arial" font-size="14.00">    </text>
<text text-anchor="start" x="200.79" y="-1056.2" font-family="Arial" font-size="14.00" fill="#666666">[BASE TABLE]</text>
<polygon fill="none" stroke="black" points="43.2,-1012 43.2,-1042.8 301.16,-1042.8 301.16,-1012 43.2,-1012"/>
<text text-anchor="start" x="50.2" y="-1024.2" font-family="Arial" font-size="14.00">created_at </text>
<text text-anchor="start" x="120.25" y="-1024.2" font-family="Arial" font-size="14.00" fill="#666666">[timestamp with time zone]</text>
<polygon fill="none" stroke="black" points="43.2,-981.2 43.2,-1012 301.16,-1012 301.16,-981.2 43.2,-981.2"/>
<text text-anchor="start" x="50.2" y="-993.4" font-family="Arial" font-size="14.00">created_by </text>
<text text-anchor="start" x="123.36" y="-993.4" font-family="Arial" font-size="14.00" fill="#666666">[uuid]</text>
<polygon fill="none" stroke="black" points="43.2,-950.4 43.2,-981.2 301.16,-981.2 301.16,-950.4 43.2,-950.4"/>
<text text-anchor="start" x="50.2" y="-962.6" font-family="Arial" font-size="14.00">updated_at </text>
<text text-anchor="start" x="124.16" y="-962.6" font-family="Arial" font-size="14.00" fill="#666666">[timestamp with time zone]</text>
<polygon fill="none" stroke="black" points="43.2,-919.6 43.2,-950.4 301.16,-950.4 301.16,-919.6 43.2,-919.6"/>
<text text-anchor="start" x="50.2" y="-931.8" font-family="Arial" font-size="14.00">updated_by </text>
<text text-anchor="start" x="127.27" y="-931.8" font-family="Arial" font-size="14.00" fill="#666666">[uuid]</text>
<polygon fill="none" stroke="black" points="43.2,-888.8 43.2,-919.6 301.16,-919.6 301.16,-888.8 43.2,-888.8"/>
<text text-anchor="start" x="50.2" y="-901" font-family="Arial" font-size="14.00">id </text>
<text text-anchor="start" x="64.99" y="-901" font-family="Arial" font-size="14.00" fill="#666666">[bigint]</text>
<polygon fill="none" stroke="black" points="43.2,-858 43.2,-888.8 301.16,-888.8 301.16,-858 43.2,-858"/>
<text text-anchor="start" x="50.2" y="-870.2" font-family="Arial" font-size="14.00">location_id </text>
<text text-anchor="start" x="121.03" y="-870.2" font-family="Arial" font-size="14.00" fill="#666666">[bigint]</text>
<polygon fill="none" stroke="black" points="43.2,-827.2 43.2,-858 301.16,-858 301.16,-827.2 43.2,-827.2"/>
<text text-anchor="start" x="50.2" y="-839.4" font-family="Arial" font-size="14.00">campus_name </text>
<text text-anchor="start" x="145.92" y="-839.4" font-family="Arial" font-size="14.00" fill="#666666">[text]</text>
<polygon fill="none" stroke="black" points="43.2,-796.4 43.2,-827.2 301.16,-827.2 301.16,-796.4 43.2,-796.4"/>
<text text-anchor="start" x="50.2" y="-808.6" font-family="Arial" font-size="14.00">president_profile_id </text>
<text text-anchor="start" x="176.28" y="-808.6" font-family="Arial" font-size="14.00" fill="#666666">[uuid]</text>
</g>
<!-- public.campuses&#45;&gt;public.locations -->
<g id="edge1" class="edge">
<title>public.campuses:location_id&#45;&gt;public.locations:id</title>
<path fill="none" stroke="black" d="M312.28,-872.32C351.91,-863.01 327.54,-795.28 301.16,-753.2 281.98,-722.61 247.46,-747.83 228.34,-717.2 176.46,-634.11 129.38,-496.8 227.34,-496.8"/>
<polygon fill="black" stroke="black" points="312.44,-872.31 302.02,-868.89 307.13,-872.87 302.82,-873.33 302.82,-873.33 302.82,-873.33 307.13,-872.87 302.97,-877.84 312.44,-872.31"/>
<text text-anchor="start" x="309.16" y="-883.4" font-family="Arial" font-size="10.00">FOREIGN KEY (location_id) REFERENCES locations(id)</text>
</g>
<!-- public.institutions -->
<g id="node3" class="node">
<title>public.institutions</title>
<polygon fill="#efefef" stroke="none" points="405.18,-1042.8 405.18,-1078.4 673.18,-1078.4 673.18,-1042.8 405.18,-1042.8"/>
<polygon fill="none" stroke="black" points="405.18,-1042.8 405.18,-1078.4 673.18,-1078.4 673.18,-1042.8 405.18,-1042.8"/>
<text text-anchor="start" x="412.18" y="-1056.2" font-family="Arial Bold" font-size="18.00">public.institutions</text>
<text text-anchor="start" x="541.69" y="-1056.2" font-family="Arial" font-size="14.00">    </text>
<text text-anchor="start" x="572.81" y="-1056.2" font-family="Arial" font-size="14.00" fill="#666666">[BASE TABLE]</text>
<polygon fill="none" stroke="black" points="405.18,-1012 405.18,-1042.8 673.18,-1042.8 673.18,-1012 405.18,-1012"/>
<text text-anchor="start" x="412.18" y="-1024.2" font-family="Arial" font-size="14.00">created_at </text>
<text text-anchor="start" x="482.23" y="-1024.2" font-family="Arial" font-size="14.00" fill="#666666">[timestamp with time zone]</text>
<polygon fill="none" stroke="black" points="405.18,-981.2 405.18,-1012 673.18,-1012 673.18,-981.2 405.18,-981.2"/>
<text text-anchor="start" x="412.18" y="-993.4" font-family="Arial" font-size="14.00">created_by </text>
<text text-anchor="start" x="485.34" y="-993.4" font-family="Arial" font-size="14.00" fill="#666666">[uuid]</text>
<polygon fill="none" stroke="black" points="405.18,-950.4 405.18,-981.2 673.18,-981.2 673.18,-950.4 405.18,-950.4"/>
<text text-anchor="start" x="412.18" y="-962.6" font-family="Arial" font-size="14.00">updated_at </text>
<text text-anchor="start" x="486.14" y="-962.6" font-family="Arial" font-size="14.00" fill="#666666">[timestamp with time zone]</text>
<polygon fill="none" stroke="black" points="405.18,-919.6 405.18,-950.4 673.18,-950.4 673.18,-919.6 405.18,-919.6"/>
<text text-anchor="start" x="412.18" y="-931.8" font-family="Arial" font-size="14.00">updated_by </text>
<text text-anchor="start" x="489.25" y="-931.8" font-family="Arial" font-size="14.00" fill="#666666">[uuid]</text>
<polygon fill="none" stroke="black" points="405.18,-888.8 405.18,-919.6 673.18,-919.6 673.18,-888.8 405.18,-888.8"/>
<text text-anchor="start" x="412.18" y="-901" font-family="Arial" font-size="14.00">id </text>
<text text-anchor="start" x="426.97" y="-901" font-family="Arial" font-size="14.00" fill="#666666">[bigint]</text>
<polygon fill="none" stroke="black" points="405.18,-858 405.18,-888.8 673.18,-888.8 673.18,-858 405.18,-858"/>
<text text-anchor="start" x="412.18" y="-870.2" font-family="Arial" font-size="14.00">location_id </text>
<text text-anchor="start" x="483.01" y="-870.2" font-family="Arial" font-size="14.00" fill="#666666">[bigint]</text>
<polygon fill="none" stroke="black" points="405.18,-827.2 405.18,-858 673.18,-858 673.18,-827.2 405.18,-827.2"/>
<text text-anchor="start" x="412.18" y="-839.4" font-family="Arial" font-size="14.00">contact_person_profile_id </text>
<text text-anchor="start" x="576.4" y="-839.4" font-family="Arial" font-size="14.00" fill="#666666">[uuid]</text>
<polygon fill="none" stroke="black" points="405.18,-796.4 405.18,-827.2 673.18,-827.2 673.18,-796.4 405.18,-796.4"/>
<text text-anchor="start" x="412.18" y="-808.6" font-family="Arial" font-size="14.00">institution_name </text>
<text text-anchor="start" x="518.02" y="-808.6" font-family="Arial" font-size="14.00" fill="#666666">[text]</text>
</g>
<!-- public.institutions&#45;&gt;public.locations -->
<g id="edge2" class="edge">
<title>public.institutions:location_id&#45;&gt;public.locations:id</title>
<path fill="none" stroke="black" d="M394.06,-872.32C354.37,-862.97 378.36,-795 405.18,-753.2 425.55,-721.46 461.71,-748.98 482.02,-717.2 534.76,-634.66 580.98,-496.8 483.02,-496.8"/>
<polygon fill="black" stroke="black" points="393.91,-872.3 403.37,-877.84 399.21,-872.87 403.52,-873.33 403.52,-873.33 403.52,-873.33 399.21,-872.87 404.33,-868.89 393.91,-872.3"/>
<text text-anchor="start" x="411.18" y="-857.4" font-family="Arial" font-size="10.00">FOREIGN KEY (location_id) REFERENCES locations(id)</text>
</g>
</g>
</svg>
