<?xml version="1.0" encoding="UTF-8" standalone="no"?>
<!DOCTYPE svg PUBLIC "-//W3C//DTD SVG 1.1//EN"
 "http://www.w3.org/Graphics/SVG/1.1/DTD/svg11.dtd">
<!-- Generated by graphviz version 12.1.2 (20240928.0832)
 -->
<!-- Title: public.projects Pages: 1 -->
<svg width="1220pt" height="1218pt"
 viewBox="0.00 0.00 1220.08 1218.00" xmlns="http://www.w3.org/2000/svg" xmlns:xlink="http://www.w3.org/1999/xlink">
<g id="graph0" class="graph" transform="scale(1 1) rotate(0) translate(4 1214)">
<title>public.projects</title>
<polygon fill="white" stroke="none" points="-4,4 -4,-1214 1216.08,-1214 1216.08,4 -4,4"/>
<!-- public.projects -->
<g id="node1" class="node">
<title>public.projects</title>
<polygon fill="#efefef" stroke="none" points="309.54,-1128.2 309.54,-1163.8 654.27,-1163.8 654.27,-1128.2 309.54,-1128.2"/>
<polygon fill="none" stroke="black" points="309.54,-1128.2 309.54,-1163.8 654.27,-1163.8 654.27,-1128.2 309.54,-1128.2"/>
<text text-anchor="start" x="366.42" y="-1141.6" font-family="Arial Bold" font-size="18.00">public.projects</text>
<text text-anchor="start" x="472.89" y="-1141.6" font-family="Arial" font-size="14.00">    </text>
<text text-anchor="start" x="504.01" y="-1141.6" font-family="Arial" font-size="14.00" fill="#666666">[BASE TABLE]</text>
<polygon fill="none" stroke="black" points="309.54,-1097.4 309.54,-1128.2 654.27,-1128.2 654.27,-1097.4 309.54,-1097.4"/>
<text text-anchor="start" x="316.54" y="-1109.6" font-family="Arial" font-size="14.00">created_at </text>
<text text-anchor="start" x="386.58" y="-1109.6" font-family="Arial" font-size="14.00" fill="#666666">[timestamp with time zone]</text>
<polygon fill="none" stroke="black" points="309.54,-1066.6 309.54,-1097.4 654.27,-1097.4 654.27,-1066.6 309.54,-1066.6"/>
<text text-anchor="start" x="316.54" y="-1078.8" font-family="Arial" font-size="14.00">created_by </text>
<text text-anchor="start" x="389.69" y="-1078.8" font-family="Arial" font-size="14.00" fill="#666666">[uuid]</text>
<polygon fill="none" stroke="black" points="309.54,-1035.8 309.54,-1066.6 654.27,-1066.6 654.27,-1035.8 309.54,-1035.8"/>
<text text-anchor="start" x="316.54" y="-1048" font-family="Arial" font-size="14.00">updated_at </text>
<text text-anchor="start" x="390.49" y="-1048" font-family="Arial" font-size="14.00" fill="#666666">[timestamp with time zone]</text>
<polygon fill="none" stroke="black" points="309.54,-1005 309.54,-1035.8 654.27,-1035.8 654.27,-1005 309.54,-1005"/>
<text text-anchor="start" x="316.54" y="-1017.2" font-family="Arial" font-size="14.00">updated_by </text>
<text text-anchor="start" x="393.6" y="-1017.2" font-family="Arial" font-size="14.00" fill="#666666">[uuid]</text>
<polygon fill="none" stroke="black" points="309.54,-974.2 309.54,-1005 654.27,-1005 654.27,-974.2 309.54,-974.2"/>
<text text-anchor="start" x="316.54" y="-986.4" font-family="Arial" font-size="14.00">id </text>
<text text-anchor="start" x="331.32" y="-986.4" font-family="Arial" font-size="14.00" fill="#666666">[bigint]</text>
<polygon fill="none" stroke="black" points="309.54,-943.4 309.54,-974.2 654.27,-974.2 654.27,-943.4 309.54,-943.4"/>
<text text-anchor="start" x="316.54" y="-955.6" font-family="Arial" font-size="14.00">tutor_profile_id </text>
<text text-anchor="start" x="413.04" y="-955.6" font-family="Arial" font-size="14.00" fill="#666666">[uuid]</text>
<polygon fill="none" stroke="black" points="309.54,-912.6 309.54,-943.4 654.27,-943.4 654.27,-912.6 309.54,-912.6"/>
<text text-anchor="start" x="316.54" y="-924.8" font-family="Arial" font-size="14.00">coordinator_profile_id </text>
<text text-anchor="start" x="455.07" y="-924.8" font-family="Arial" font-size="14.00" fill="#666666">[uuid]</text>
<polygon fill="none" stroke="black" points="309.54,-881.8 309.54,-912.6 654.27,-912.6 654.27,-881.8 309.54,-881.8"/>
<text text-anchor="start" x="316.54" y="-894" font-family="Arial" font-size="14.00">student_profile_id </text>
<text text-anchor="start" x="430.95" y="-894" font-family="Arial" font-size="14.00" fill="#666666">[uuid]</text>
<polygon fill="none" stroke="black" points="309.54,-851 309.54,-881.8 654.27,-881.8 654.27,-851 309.54,-851"/>
<text text-anchor="start" x="316.54" y="-863.2" font-family="Arial" font-size="14.00">institution_id </text>
<text text-anchor="start" x="398.25" y="-863.2" font-family="Arial" font-size="14.00" fill="#666666">[bigint]</text>
<polygon fill="none" stroke="black" points="309.54,-820.2 309.54,-851 654.27,-851 654.27,-820.2 309.54,-820.2"/>
<text text-anchor="start" x="316.54" y="-832.4" font-family="Arial" font-size="14.00">title </text>
<text text-anchor="start" x="342.21" y="-832.4" font-family="Arial" font-size="14.00" fill="#666666">[text]</text>
<polygon fill="none" stroke="black" points="309.54,-789.4 309.54,-820.2 654.27,-820.2 654.27,-789.4 309.54,-789.4"/>
<text text-anchor="start" x="316.54" y="-801.6" font-family="Arial" font-size="14.00">abstract </text>
<text text-anchor="start" x="370.23" y="-801.6" font-family="Arial" font-size="14.00" fill="#666666">[text]</text>
<polygon fill="none" stroke="black" points="309.54,-758.6 309.54,-789.4 654.27,-789.4 654.27,-758.6 309.54,-758.6"/>
<text text-anchor="start" x="316.54" y="-770.8" font-family="Arial" font-size="14.00">pre_project_document_id </text>
<text text-anchor="start" x="478.42" y="-770.8" font-family="Arial" font-size="14.00" fill="#666666">[bigint]</text>
<polygon fill="none" stroke="black" points="309.54,-727.8 309.54,-758.6 654.27,-758.6 654.27,-727.8 309.54,-727.8"/>
<text text-anchor="start" x="316.54" y="-740" font-family="Arial" font-size="14.00">pre_project_observations </text>
<text text-anchor="start" x="477.63" y="-740" font-family="Arial" font-size="14.00" fill="#666666">[text]</text>
<polygon fill="none" stroke="black" points="309.54,-697 309.54,-727.8 654.27,-727.8 654.27,-697 309.54,-697"/>
<text text-anchor="start" x="316.54" y="-709.2" font-family="Arial" font-size="14.00">pre_project_approved_at </text>
<text text-anchor="start" x="476.09" y="-709.2" font-family="Arial" font-size="14.00" fill="#666666">[timestamp with time zone]</text>
<polygon fill="none" stroke="black" points="309.54,-666.2 309.54,-697 654.27,-697 654.27,-666.2 309.54,-666.2"/>
<text text-anchor="start" x="316.54" y="-678.4" font-family="Arial" font-size="14.00">project_document_id </text>
<text text-anchor="start" x="450.4" y="-678.4" font-family="Arial" font-size="14.00" fill="#666666">[bigint]</text>
<polygon fill="none" stroke="black" points="309.54,-635.4 309.54,-666.2 654.27,-666.2 654.27,-635.4 309.54,-635.4"/>
<text text-anchor="start" x="316.54" y="-647.6" font-family="Arial" font-size="14.00">project_observations </text>
<text text-anchor="start" x="449.61" y="-647.6" font-family="Arial" font-size="14.00" fill="#666666">[text]</text>
<polygon fill="none" stroke="black" points="309.54,-604.6 309.54,-635.4 654.27,-635.4 654.27,-604.6 309.54,-604.6"/>
<text text-anchor="start" x="316.54" y="-616.8" font-family="Arial" font-size="14.00">project_received_at </text>
<text text-anchor="start" x="442.61" y="-616.8" font-family="Arial" font-size="14.00" fill="#666666">[timestamp with time zone]</text>
<polygon fill="none" stroke="black" points="309.54,-573.8 309.54,-604.6 654.27,-604.6 654.27,-573.8 309.54,-573.8"/>
<text text-anchor="start" x="316.54" y="-586" font-family="Arial" font-size="14.00">final_project_approved_at </text>
<text text-anchor="start" x="481.54" y="-586" font-family="Arial" font-size="14.00" fill="#666666">[timestamp with time zone]</text>
<polygon fill="none" stroke="black" stroke-width="3" points="308.04,-572.3 308.04,-1165.3 655.77,-1165.3 655.77,-572.3 308.04,-572.3"/>
</g>
<!-- public.profiles -->
<g id="node2" class="node">
<title>public.profiles</title>
<polygon fill="#efefef" stroke="none" points="173.06,-412.8 173.06,-448.4 426.74,-448.4 426.74,-412.8 173.06,-412.8"/>
<polygon fill="none" stroke="black" points="173.06,-412.8 173.06,-448.4 426.74,-448.4 426.74,-412.8 173.06,-412.8"/>
<text text-anchor="start" x="185.42" y="-426.2" font-family="Arial Bold" font-size="18.00">public.profiles</text>
<text text-anchor="start" x="289.89" y="-426.2" font-family="Arial" font-size="14.00">    </text>
<text text-anchor="start" x="321.01" y="-426.2" font-family="Arial" font-size="14.00" fill="#666666">[BASE TABLE]</text>
<polygon fill="none" stroke="black" points="173.06,-382 173.06,-412.8 426.74,-412.8 426.74,-382 173.06,-382"/>
<text text-anchor="start" x="180.06" y="-394.2" font-family="Arial" font-size="14.00">created_at </text>
<text text-anchor="start" x="250.11" y="-394.2" font-family="Arial" font-size="14.00" fill="#666666">[timestamp with time zone]</text>
<polygon fill="none" stroke="black" points="173.06,-351.2 173.06,-382 426.74,-382 426.74,-351.2 173.06,-351.2"/>
<text text-anchor="start" x="180.06" y="-363.4" font-family="Arial" font-size="14.00">created_by </text>
<text text-anchor="start" x="253.22" y="-363.4" font-family="Arial" font-size="14.00" fill="#666666">[uuid]</text>
<polygon fill="none" stroke="black" points="173.06,-320.4 173.06,-351.2 426.74,-351.2 426.74,-320.4 173.06,-320.4"/>
<text text-anchor="start" x="180.06" y="-332.6" font-family="Arial" font-size="14.00">updated_at </text>
<text text-anchor="start" x="254.02" y="-332.6" font-family="Arial" font-size="14.00" fill="#666666">[timestamp with time zone]</text>
<polygon fill="none" stroke="black" points="173.06,-289.6 173.06,-320.4 426.74,-320.4 426.74,-289.6 173.06,-289.6"/>
<text text-anchor="start" x="180.06" y="-301.8" font-family="Arial" font-size="14.00">updated_by </text>
<text text-anchor="start" x="257.13" y="-301.8" font-family="Arial" font-size="14.00" fill="#666666">[uuid]</text>
<polygon fill="none" stroke="black" points="173.06,-258.8 173.06,-289.6 426.74,-289.6 426.74,-258.8 173.06,-258.8"/>
<text text-anchor="start" x="180.06" y="-271" font-family="Arial" font-size="14.00">id </text>
<text text-anchor="start" x="194.85" y="-271" font-family="Arial" font-size="14.00" fill="#666666">[uuid]</text>
<polygon fill="none" stroke="black" points="173.06,-228 173.06,-258.8 426.74,-258.8 426.74,-228 173.06,-228"/>
<text text-anchor="start" x="180.06" y="-240.2" font-family="Arial" font-size="14.00">first_name </text>
<text text-anchor="start" x="249.31" y="-240.2" font-family="Arial" font-size="14.00" fill="#666666">[text]</text>
<polygon fill="none" stroke="black" points="173.06,-197.2 173.06,-228 426.74,-228 426.74,-197.2 173.06,-197.2"/>
<text text-anchor="start" x="180.06" y="-209.4" font-family="Arial" font-size="14.00">last_name </text>
<text text-anchor="start" x="248.54" y="-209.4" font-family="Arial" font-size="14.00" fill="#666666">[text]</text>
<polygon fill="none" stroke="black" points="173.06,-166.4 173.06,-197.2 426.74,-197.2 426.74,-166.4 173.06,-166.4"/>
<text text-anchor="start" x="180.06" y="-178.6" font-family="Arial" font-size="14.00">national_id </text>
<text text-anchor="start" x="251.67" y="-178.6" font-family="Arial" font-size="14.00" fill="#666666">[text]</text>
<polygon fill="none" stroke="black" points="173.06,-135.6 173.06,-166.4 426.74,-166.4 426.74,-135.6 173.06,-135.6"/>
<text text-anchor="start" x="180.06" y="-147.8" font-family="Arial" font-size="14.00">email </text>
<text text-anchor="start" x="217.4" y="-147.8" font-family="Arial" font-size="14.00" fill="#666666">[text]</text>
<polygon fill="none" stroke="black" points="173.06,-104.8 173.06,-135.6 426.74,-135.6 426.74,-104.8 173.06,-104.8"/>
<text text-anchor="start" x="180.06" y="-117" font-family="Arial" font-size="14.00">primary_contact </text>
<text text-anchor="start" x="283.54" y="-117" font-family="Arial" font-size="14.00" fill="#666666">[text]</text>
<polygon fill="none" stroke="black" points="173.06,-74 173.06,-104.8 426.74,-104.8 426.74,-74 173.06,-74"/>
<text text-anchor="start" x="180.06" y="-86.2" font-family="Arial" font-size="14.00">secondary_contact </text>
<text text-anchor="start" x="301.47" y="-86.2" font-family="Arial" font-size="14.00" fill="#666666">[text]</text>
<polygon fill="none" stroke="black" points="173.06,-43.2 173.06,-74 426.74,-74 426.74,-43.2 173.06,-43.2"/>
<text text-anchor="start" x="180.06" y="-55.4" font-family="Arial" font-size="14.00">role_id </text>
<text text-anchor="start" x="225.98" y="-55.4" font-family="Arial" font-size="14.00" fill="#666666">[bigint]</text>
</g>
<!-- public.projects&#45;&gt;public.profiles -->
<g id="edge1" class="edge">
<title>public.projects:tutor_profile_id&#45;&gt;public.profiles:id</title>
<path fill="none" stroke="black" d="M298.15,-958.52C119.82,-948.56 197.58,-678.74 309.54,-527.6 341.97,-483.81 394.26,-535.35 426.74,-491.6 455.54,-452.81 476.05,-274.2 427.74,-274.2"/>
<polygon fill="black" stroke="black" points="298.21,-958.52 308.08,-963.29 303.54,-958.66 307.87,-958.78 307.87,-958.78 307.87,-958.78 303.54,-958.66 308.32,-954.29 298.21,-958.52"/>
<text text-anchor="start" x="37.02" y="-968.8" font-family="Arial" font-size="10.00">FOREIGN KEY (tutor_profile_id) REFERENCES profiles(id)</text>
</g>
<!-- public.projects&#45;&gt;public.profiles -->
<g id="edge2" class="edge">
<title>public.projects:coordinator_profile_id&#45;&gt;public.profiles:id</title>
<path fill="none" stroke="black" d="M298.39,-927.71C133.44,-917.99 205.67,-667.8 309.54,-527.6 341.98,-483.81 394.26,-535.35 426.74,-491.6 455.54,-452.81 476.05,-274.2 427.74,-274.2"/>
<polygon fill="black" stroke="black" points="298.21,-927.7 308.07,-932.49 303.54,-927.86 307.87,-927.98 307.87,-927.98 307.87,-927.98 303.54,-927.86 308.33,-923.49 298.21,-927.7"/>
<text text-anchor="start" x="7" y="-938" font-family="Arial" font-size="10.00">FOREIGN KEY (coordinator_profile_id) REFERENCES profiles(id)</text>
</g>
<!-- public.projects&#45;&gt;public.profiles -->
<g id="edge3" class="edge">
<title>public.projects:student_profile_id&#45;&gt;public.profiles:id</title>
<path fill="none" stroke="black" d="M298.27,-896.87C147.18,-887.04 213.83,-656.74 309.54,-527.6 341.98,-483.82 394.26,-535.35 426.74,-491.6 455.54,-452.81 476.05,-274.2 427.74,-274.2"/>
<polygon fill="black" stroke="black" points="298.21,-896.87 308.06,-901.69 303.54,-897.04 307.87,-897.18 307.87,-897.18 307.87,-897.18 303.54,-897.04 308.34,-892.69 298.21,-896.87"/>
<text text-anchor="start" x="24.23" y="-907.2" font-family="Arial" font-size="10.00">FOREIGN KEY (student_profile_id) REFERENCES profiles(id)</text>
</g>
<!-- public.institutions -->
<g id="node3" class="node">
<title>public.institutions</title>
<polygon fill="#efefef" stroke="none" points="530.9,-351.2 530.9,-386.8 798.9,-386.8 798.9,-351.2 530.9,-351.2"/>
<polygon fill="none" stroke="black" points="530.9,-351.2 530.9,-386.8 798.9,-386.8 798.9,-351.2 530.9,-351.2"/>
<text text-anchor="start" x="537.9" y="-364.6" font-family="Arial Bold" font-size="18.00">public.institutions</text>
<text text-anchor="start" x="667.41" y="-364.6" font-family="Arial" font-size="14.00">    </text>
<text text-anchor="start" x="698.53" y="-364.6" font-family="Arial" font-size="14.00" fill="#666666">[BASE TABLE]</text>
<polygon fill="none" stroke="black" points="530.9,-320.4 530.9,-351.2 798.9,-351.2 798.9,-320.4 530.9,-320.4"/>
<text text-anchor="start" x="537.9" y="-332.6" font-family="Arial" font-size="14.00">created_at </text>
<text text-anchor="start" x="607.95" y="-332.6" font-family="Arial" font-size="14.00" fill="#666666">[timestamp with time zone]</text>
<polygon fill="none" stroke="black" points="530.9,-289.6 530.9,-320.4 798.9,-320.4 798.9,-289.6 530.9,-289.6"/>
<text text-anchor="start" x="537.9" y="-301.8" font-family="Arial" font-size="14.00">created_by </text>
<text text-anchor="start" x="611.06" y="-301.8" font-family="Arial" font-size="14.00" fill="#666666">[uuid]</text>
<polygon fill="none" stroke="black" points="530.9,-258.8 530.9,-289.6 798.9,-289.6 798.9,-258.8 530.9,-258.8"/>
<text text-anchor="start" x="537.9" y="-271" font-family="Arial" font-size="14.00">updated_at </text>
<text text-anchor="start" x="611.86" y="-271" font-family="Arial" font-size="14.00" fill="#666666">[timestamp with time zone]</text>
<polygon fill="none" stroke="black" points="530.9,-228 530.9,-258.8 798.9,-258.8 798.9,-228 530.9,-228"/>
<text text-anchor="start" x="537.9" y="-240.2" font-family="Arial" font-size="14.00">updated_by </text>
<text text-anchor="start" x="614.97" y="-240.2" font-family="Arial" font-size="14.00" fill="#666666">[uuid]</text>
<polygon fill="none" stroke="black" points="530.9,-197.2 530.9,-228 798.9,-228 798.9,-197.2 530.9,-197.2"/>
<text text-anchor="start" x="537.9" y="-209.4" font-family="Arial" font-size="14.00">id </text>
<text text-anchor="start" x="552.69" y="-209.4" font-family="Arial" font-size="14.00" fill="#666666">[bigint]</text>
<polygon fill="none" stroke="black" points="530.9,-166.4 530.9,-197.2 798.9,-197.2 798.9,-166.4 530.9,-166.4"/>
<text text-anchor="start" x="537.9" y="-178.6" font-family="Arial" font-size="14.00">location_id </text>
<text text-anchor="start" x="608.73" y="-178.6" font-family="Arial" font-size="14.00" fill="#666666">[bigint]</text>
<polygon fill="none" stroke="black" points="530.9,-135.6 530.9,-166.4 798.9,-166.4 798.9,-135.6 530.9,-135.6"/>
<text text-anchor="start" x="537.9" y="-147.8" font-family="Arial" font-size="14.00">contact_person_profile_id </text>
<text text-anchor="start" x="702.12" y="-147.8" font-family="Arial" font-size="14.00" fill="#666666">[uuid]</text>
<polygon fill="none" stroke="black" points="530.9,-104.8 530.9,-135.6 798.9,-135.6 798.9,-104.8 530.9,-104.8"/>
<text text-anchor="start" x="537.9" y="-117" font-family="Arial" font-size="14.00">institution_name </text>
<text text-anchor="start" x="643.74" y="-117" font-family="Arial" font-size="14.00" fill="#666666">[text]</text>
</g>
<!-- public.projects&#45;&gt;public.institutions -->
<g id="edge4" class="edge">
<title>public.projects:institution_id&#45;&gt;public.institutions:id</title>
<path fill="none" stroke="black" d="M665.69,-866.36C1273.57,-861.72 539.92,-448.53 530.9,-430 509.76,-386.56 481.59,-212.6 529.9,-212.6"/>
<polygon fill="black" stroke="black" points="665.6,-866.36 655.58,-861.9 660.27,-866.38 655.93,-866.4 655.93,-866.4 655.93,-866.4 660.27,-866.38 655.62,-870.9 665.6,-866.36"/>
<text text-anchor="start" x="662.27" y="-876.4" font-family="Arial" font-size="10.00">FOREIGN KEY (institution_id) REFERENCES institutions(id)</text>
</g>
<!-- public.documents -->
<g id="node4" class="node">
<title>public.documents</title>
<polygon fill="#efefef" stroke="none" points="902.92,-351.2 902.92,-386.8 1168.88,-386.8 1168.88,-351.2 902.92,-351.2"/>
<polygon fill="none" stroke="black" points="902.92,-351.2 902.92,-386.8 1168.88,-386.8 1168.88,-351.2 902.92,-351.2"/>
<text text-anchor="start" x="909.92" y="-364.6" font-family="Arial Bold" font-size="18.00">public.documents</text>
<text text-anchor="start" x="1037.39" y="-364.6" font-family="Arial" font-size="14.00">    </text>
<text text-anchor="start" x="1068.51" y="-364.6" font-family="Arial" font-size="14.00" fill="#666666">[BASE TABLE]</text>
<polygon fill="none" stroke="black" points="902.92,-320.4 902.92,-351.2 1168.88,-351.2 1168.88,-320.4 902.92,-320.4"/>
<text text-anchor="start" x="909.92" y="-332.6" font-family="Arial" font-size="14.00">created_at </text>
<text text-anchor="start" x="979.97" y="-332.6" font-family="Arial" font-size="14.00" fill="#666666">[timestamp with time zone]</text>
<polygon fill="none" stroke="black" points="902.92,-289.6 902.92,-320.4 1168.88,-320.4 1168.88,-289.6 902.92,-289.6"/>
<text text-anchor="start" x="909.92" y="-301.8" font-family="Arial" font-size="14.00">created_by </text>
<text text-anchor="start" x="983.08" y="-301.8" font-family="Arial" font-size="14.00" fill="#666666">[uuid]</text>
<polygon fill="none" stroke="black" points="902.92,-258.8 902.92,-289.6 1168.88,-289.6 1168.88,-258.8 902.92,-258.8"/>
<text text-anchor="start" x="909.92" y="-271" font-family="Arial" font-size="14.00">updated_at </text>
<text text-anchor="start" x="983.88" y="-271" font-family="Arial" font-size="14.00" fill="#666666">[timestamp with time zone]</text>
<polygon fill="none" stroke="black" points="902.92,-228 902.92,-258.8 1168.88,-258.8 1168.88,-228 902.92,-228"/>
<text text-anchor="start" x="909.92" y="-240.2" font-family="Arial" font-size="14.00">updated_by </text>
<text text-anchor="start" x="986.99" y="-240.2" font-family="Arial" font-size="14.00" fill="#666666">[uuid]</text>
<polygon fill="none" stroke="black" points="902.92,-197.2 902.92,-228 1168.88,-228 1168.88,-197.2 902.92,-197.2"/>
<text text-anchor="start" x="909.92" y="-209.4" font-family="Arial" font-size="14.00">id </text>
<text text-anchor="start" x="924.7" y="-209.4" font-family="Arial" font-size="14.00" fill="#666666">[bigint]</text>
<polygon fill="none" stroke="black" points="902.92,-166.4 902.92,-197.2 1168.88,-197.2 1168.88,-166.4 902.92,-166.4"/>
<text text-anchor="start" x="909.92" y="-178.6" font-family="Arial" font-size="14.00">bucket_id </text>
<text text-anchor="start" x="973.74" y="-178.6" font-family="Arial" font-size="14.00" fill="#666666">[text]</text>
<polygon fill="none" stroke="black" points="902.92,-135.6 902.92,-166.4 1168.88,-166.4 1168.88,-135.6 902.92,-135.6"/>
<text text-anchor="start" x="909.92" y="-147.8" font-family="Arial" font-size="14.00">storage_path </text>
<text text-anchor="start" x="995.54" y="-147.8" font-family="Arial" font-size="14.00" fill="#666666">[text]</text>
<polygon fill="none" stroke="black" points="902.92,-104.8 902.92,-135.6 1168.88,-135.6 1168.88,-104.8 902.92,-104.8"/>
<text text-anchor="start" x="909.92" y="-117" font-family="Arial" font-size="14.00">uploaded_by_profile_id </text>
<text text-anchor="start" x="1058.59" y="-117" font-family="Arial" font-size="14.00" fill="#666666">[uuid]</text>
</g>
<!-- public.projects&#45;&gt;public.documents -->
<g id="edge5" class="edge">
<title>public.projects:pre_project_document_id&#45;&gt;public.documents:id</title>
<path fill="none" stroke="black" d="M665.3,-773.79C807.29,-767.65 793.69,-629.46 850.9,-491.6 875.06,-433.39 838.89,-212.6 901.92,-212.6"/>
<polygon fill="black" stroke="black" points="665.6,-773.78 655.5,-769.49 660.26,-773.89 655.93,-773.99 655.93,-773.99 655.93,-773.99 660.26,-773.89 655.7,-778.49 665.6,-773.78"/>
<text text-anchor="start" x="662.27" y="-784" font-family="Arial" font-size="10.00">FOREIGN KEY (pre_project_document_id) REFERENCES documents(id)</text>
</g>
<!-- public.projects&#45;&gt;public.documents -->
<g id="edge6" class="edge">
<title>public.projects:project_document_id&#45;&gt;public.documents:id</title>
<path fill="none" stroke="black" d="M665.65,-681.39C777.52,-676.71 795.48,-595.39 850.9,-491.6 880.59,-436 838.89,-212.6 901.92,-212.6"/>
<polygon fill="black" stroke="black" points="665.6,-681.39 655.51,-677.09 660.26,-681.5 655.93,-681.59 655.93,-681.59 655.93,-681.59 660.26,-681.5 655.69,-686.09 665.6,-681.39"/>
<text text-anchor="start" x="662.27" y="-691.6" font-family="Arial" font-size="10.00">FOREIGN KEY (project_document_id) REFERENCES documents(id)</text>
</g>
</g>
</svg>
