<?xml version="1.0" encoding="UTF-8" standalone="no"?>
<!DOCTYPE svg PUBLIC "-//W3C//DTD SVG 1.1//EN"
 "http://www.w3.org/Graphics/SVG/1.1/DTD/svg11.dtd">
<!-- Generated by graphviz version 12.1.2 (20240928.0832)
 -->
<!-- Title: public.faculties Pages: 1 -->
<svg width="949pt" height="1438pt"
 viewBox="0.00 0.00 948.77 1437.60" xmlns="http://www.w3.org/2000/svg" xmlns:xlink="http://www.w3.org/1999/xlink">
<g id="graph0" class="graph" transform="scale(1 1) rotate(0) translate(4 1433.6)">
<title>public.faculties</title>
<polygon fill="white" stroke="none" points="-4,4 -4,-1433.6 944.77,-1433.6 944.77,4 -4,4"/>
<!-- public.faculties -->
<g id="node1" class="node">
<title>public.faculties</title>
<polygon fill="#efefef" stroke="none" points="405.34,-851 405.34,-886.6 659.02,-886.6 659.02,-851 405.34,-851"/>
<polygon fill="none" stroke="black" points="405.34,-851 405.34,-886.6 659.02,-886.6 659.02,-851 405.34,-851"/>
<text text-anchor="start" x="414.7" y="-864.4" font-family="Arial Bold" font-size="18.00">public.faculties</text>
<text text-anchor="start" x="525.17" y="-864.4" font-family="Arial" font-size="14.00">    </text>
<text text-anchor="start" x="556.28" y="-864.4" font-family="Arial" font-size="14.00" fill="#666666">[BASE TABLE]</text>
<polygon fill="none" stroke="black" points="405.34,-820.2 405.34,-851 659.02,-851 659.02,-820.2 405.34,-820.2"/>
<text text-anchor="start" x="412.34" y="-832.4" font-family="Arial" font-size="14.00">created_at </text>
<text text-anchor="start" x="482.39" y="-832.4" font-family="Arial" font-size="14.00" fill="#666666">[timestamp with time zone]</text>
<polygon fill="none" stroke="black" points="405.34,-789.4 405.34,-820.2 659.02,-820.2 659.02,-789.4 405.34,-789.4"/>
<text text-anchor="start" x="412.34" y="-801.6" font-family="Arial" font-size="14.00">created_by </text>
<text text-anchor="start" x="485.5" y="-801.6" font-family="Arial" font-size="14.00" fill="#666666">[uuid]</text>
<polygon fill="none" stroke="black" points="405.34,-758.6 405.34,-789.4 659.02,-789.4 659.02,-758.6 405.34,-758.6"/>
<text text-anchor="start" x="412.34" y="-770.8" font-family="Arial" font-size="14.00">updated_at </text>
<text text-anchor="start" x="486.3" y="-770.8" font-family="Arial" font-size="14.00" fill="#666666">[timestamp with time zone]</text>
<polygon fill="none" stroke="black" points="405.34,-727.8 405.34,-758.6 659.02,-758.6 659.02,-727.8 405.34,-727.8"/>
<text text-anchor="start" x="412.34" y="-740" font-family="Arial" font-size="14.00">updated_by </text>
<text text-anchor="start" x="489.41" y="-740" font-family="Arial" font-size="14.00" fill="#666666">[uuid]</text>
<polygon fill="none" stroke="black" points="405.34,-697 405.34,-727.8 659.02,-727.8 659.02,-697 405.34,-697"/>
<text text-anchor="start" x="412.34" y="-709.2" font-family="Arial" font-size="14.00">id </text>
<text text-anchor="start" x="427.12" y="-709.2" font-family="Arial" font-size="14.00" fill="#666666">[bigint]</text>
<polygon fill="none" stroke="black" points="405.34,-666.2 405.34,-697 659.02,-697 659.02,-666.2 405.34,-666.2"/>
<text text-anchor="start" x="412.34" y="-678.4" font-family="Arial" font-size="14.00">campus_id </text>
<text text-anchor="start" x="483.93" y="-678.4" font-family="Arial" font-size="14.00" fill="#666666">[bigint]</text>
<polygon fill="none" stroke="black" points="405.34,-635.4 405.34,-666.2 659.02,-666.2 659.02,-635.4 405.34,-635.4"/>
<text text-anchor="start" x="412.34" y="-647.6" font-family="Arial" font-size="14.00">faculty_name </text>
<text text-anchor="start" x="499.5" y="-647.6" font-family="Arial" font-size="14.00" fill="#666666">[text]</text>
<polygon fill="none" stroke="black" points="405.34,-604.6 405.34,-635.4 659.02,-635.4 659.02,-604.6 405.34,-604.6"/>
<text text-anchor="start" x="412.34" y="-616.8" font-family="Arial" font-size="14.00">dean_profile_id </text>
<text text-anchor="start" x="511.97" y="-616.8" font-family="Arial" font-size="14.00" fill="#666666">[uuid]</text>
<polygon fill="none" stroke="black" points="405.34,-573.8 405.34,-604.6 659.02,-604.6 659.02,-573.8 405.34,-573.8"/>
<text text-anchor="start" x="412.34" y="-586" font-family="Arial" font-size="14.00">coordinator_profile_id </text>
<text text-anchor="start" x="550.87" y="-586" font-family="Arial" font-size="14.00" fill="#666666">[uuid]</text>
<polygon fill="none" stroke="black" stroke-width="3" points="403.84,-572.3 403.84,-888.1 660.52,-888.1 660.52,-572.3 403.84,-572.3"/>
</g>
<!-- public.campuses -->
<g id="node4" class="node">
<title>public.campuses</title>
<polygon fill="#efefef" stroke="none" points="43.2,-351.2 43.2,-386.8 301.16,-386.8 301.16,-351.2 43.2,-351.2"/>
<polygon fill="none" stroke="black" points="43.2,-351.2 43.2,-386.8 301.16,-386.8 301.16,-351.2 43.2,-351.2"/>
<text text-anchor="start" x="50.2" y="-364.6" font-family="Arial Bold" font-size="18.00">public.campuses</text>
<text text-anchor="start" x="169.67" y="-364.6" font-family="Arial" font-size="14.00">    </text>
<text text-anchor="start" x="200.79" y="-364.6" font-family="Arial" font-size="14.00" fill="#666666">[BASE TABLE]</text>
<polygon fill="none" stroke="black" points="43.2,-320.4 43.2,-351.2 301.16,-351.2 301.16,-320.4 43.2,-320.4"/>
<text text-anchor="start" x="50.2" y="-332.6" font-family="Arial" font-size="14.00">created_at </text>
<text text-anchor="start" x="120.25" y="-332.6" font-family="Arial" font-size="14.00" fill="#666666">[timestamp with time zone]</text>
<polygon fill="none" stroke="black" points="43.2,-289.6 43.2,-320.4 301.16,-320.4 301.16,-289.6 43.2,-289.6"/>
<text text-anchor="start" x="50.2" y="-301.8" font-family="Arial" font-size="14.00">created_by </text>
<text text-anchor="start" x="123.36" y="-301.8" font-family="Arial" font-size="14.00" fill="#666666">[uuid]</text>
<polygon fill="none" stroke="black" points="43.2,-258.8 43.2,-289.6 301.16,-289.6 301.16,-258.8 43.2,-258.8"/>
<text text-anchor="start" x="50.2" y="-271" font-family="Arial" font-size="14.00">updated_at </text>
<text text-anchor="start" x="124.16" y="-271" font-family="Arial" font-size="14.00" fill="#666666">[timestamp with time zone]</text>
<polygon fill="none" stroke="black" points="43.2,-228 43.2,-258.8 301.16,-258.8 301.16,-228 43.2,-228"/>
<text text-anchor="start" x="50.2" y="-240.2" font-family="Arial" font-size="14.00">updated_by </text>
<text text-anchor="start" x="127.27" y="-240.2" font-family="Arial" font-size="14.00" fill="#666666">[uuid]</text>
<polygon fill="none" stroke="black" points="43.2,-197.2 43.2,-228 301.16,-228 301.16,-197.2 43.2,-197.2"/>
<text text-anchor="start" x="50.2" y="-209.4" font-family="Arial" font-size="14.00">id </text>
<text text-anchor="start" x="64.99" y="-209.4" font-family="Arial" font-size="14.00" fill="#666666">[bigint]</text>
<polygon fill="none" stroke="black" points="43.2,-166.4 43.2,-197.2 301.16,-197.2 301.16,-166.4 43.2,-166.4"/>
<text text-anchor="start" x="50.2" y="-178.6" font-family="Arial" font-size="14.00">location_id </text>
<text text-anchor="start" x="121.03" y="-178.6" font-family="Arial" font-size="14.00" fill="#666666">[bigint]</text>
<polygon fill="none" stroke="black" points="43.2,-135.6 43.2,-166.4 301.16,-166.4 301.16,-135.6 43.2,-135.6"/>
<text text-anchor="start" x="50.2" y="-147.8" font-family="Arial" font-size="14.00">campus_name </text>
<text text-anchor="start" x="145.92" y="-147.8" font-family="Arial" font-size="14.00" fill="#666666">[text]</text>
<polygon fill="none" stroke="black" points="43.2,-104.8 43.2,-135.6 301.16,-135.6 301.16,-104.8 43.2,-104.8"/>
<text text-anchor="start" x="50.2" y="-117" font-family="Arial" font-size="14.00">president_profile_id </text>
<text text-anchor="start" x="176.28" y="-117" font-family="Arial" font-size="14.00" fill="#666666">[uuid]</text>
</g>
<!-- public.faculties&#45;&gt;public.campuses -->
<g id="edge3" class="edge">
<title>public.faculties:campus_id&#45;&gt;public.campuses:id</title>
<path fill="none" stroke="black" d="M394.28,-681.08C321.32,-673.04 371.64,-573.41 353.18,-491.6 339.31,-430.12 365.19,-212.6 302.16,-212.6"/>
<polygon fill="black" stroke="black" points="394.02,-681.07 403.77,-686.08 399.35,-681.34 403.67,-681.57 403.67,-681.57 403.67,-681.57 399.35,-681.34 404.24,-677.09 394.02,-681.07"/>
<text text-anchor="start" x="137.28" y="-691.6" font-family="Arial" font-size="10.00">FOREIGN KEY (campus_id) REFERENCES campuses(id)</text>
</g>
<!-- public.profiles -->
<g id="node5" class="node">
<title>public.profiles</title>
<polygon fill="#efefef" stroke="none" points="405.34,-412.8 405.34,-448.4 659.02,-448.4 659.02,-412.8 405.34,-412.8"/>
<polygon fill="none" stroke="black" points="405.34,-412.8 405.34,-448.4 659.02,-448.4 659.02,-412.8 405.34,-412.8"/>
<text text-anchor="start" x="417.7" y="-426.2" font-family="Arial Bold" font-size="18.00">public.profiles</text>
<text text-anchor="start" x="522.17" y="-426.2" font-family="Arial" font-size="14.00">    </text>
<text text-anchor="start" x="553.29" y="-426.2" font-family="Arial" font-size="14.00" fill="#666666">[BASE TABLE]</text>
<polygon fill="none" stroke="black" points="405.34,-382 405.34,-412.8 659.02,-412.8 659.02,-382 405.34,-382"/>
<text text-anchor="start" x="412.34" y="-394.2" font-family="Arial" font-size="14.00">created_at </text>
<text text-anchor="start" x="482.39" y="-394.2" font-family="Arial" font-size="14.00" fill="#666666">[timestamp with time zone]</text>
<polygon fill="none" stroke="black" points="405.34,-351.2 405.34,-382 659.02,-382 659.02,-351.2 405.34,-351.2"/>
<text text-anchor="start" x="412.34" y="-363.4" font-family="Arial" font-size="14.00">created_by </text>
<text text-anchor="start" x="485.5" y="-363.4" font-family="Arial" font-size="14.00" fill="#666666">[uuid]</text>
<polygon fill="none" stroke="black" points="405.34,-320.4 405.34,-351.2 659.02,-351.2 659.02,-320.4 405.34,-320.4"/>
<text text-anchor="start" x="412.34" y="-332.6" font-family="Arial" font-size="14.00">updated_at </text>
<text text-anchor="start" x="486.3" y="-332.6" font-family="Arial" font-size="14.00" fill="#666666">[timestamp with time zone]</text>
<polygon fill="none" stroke="black" points="405.34,-289.6 405.34,-320.4 659.02,-320.4 659.02,-289.6 405.34,-289.6"/>
<text text-anchor="start" x="412.34" y="-301.8" font-family="Arial" font-size="14.00">updated_by </text>
<text text-anchor="start" x="489.41" y="-301.8" font-family="Arial" font-size="14.00" fill="#666666">[uuid]</text>
<polygon fill="none" stroke="black" points="405.34,-258.8 405.34,-289.6 659.02,-289.6 659.02,-258.8 405.34,-258.8"/>
<text text-anchor="start" x="412.34" y="-271" font-family="Arial" font-size="14.00">id </text>
<text text-anchor="start" x="427.12" y="-271" font-family="Arial" font-size="14.00" fill="#666666">[uuid]</text>
<polygon fill="none" stroke="black" points="405.34,-228 405.34,-258.8 659.02,-258.8 659.02,-228 405.34,-228"/>
<text text-anchor="start" x="412.34" y="-240.2" font-family="Arial" font-size="14.00">first_name </text>
<text text-anchor="start" x="481.59" y="-240.2" font-family="Arial" font-size="14.00" fill="#666666">[text]</text>
<polygon fill="none" stroke="black" points="405.34,-197.2 405.34,-228 659.02,-228 659.02,-197.2 405.34,-197.2"/>
<text text-anchor="start" x="412.34" y="-209.4" font-family="Arial" font-size="14.00">last_name </text>
<text text-anchor="start" x="480.82" y="-209.4" font-family="Arial" font-size="14.00" fill="#666666">[text]</text>
<polygon fill="none" stroke="black" points="405.34,-166.4 405.34,-197.2 659.02,-197.2 659.02,-166.4 405.34,-166.4"/>
<text text-anchor="start" x="412.34" y="-178.6" font-family="Arial" font-size="14.00">national_id </text>
<text text-anchor="start" x="483.95" y="-178.6" font-family="Arial" font-size="14.00" fill="#666666">[text]</text>
<polygon fill="none" stroke="black" points="405.34,-135.6 405.34,-166.4 659.02,-166.4 659.02,-135.6 405.34,-135.6"/>
<text text-anchor="start" x="412.34" y="-147.8" font-family="Arial" font-size="14.00">email </text>
<text text-anchor="start" x="449.68" y="-147.8" font-family="Arial" font-size="14.00" fill="#666666">[text]</text>
<polygon fill="none" stroke="black" points="405.34,-104.8 405.34,-135.6 659.02,-135.6 659.02,-104.8 405.34,-104.8"/>
<text text-anchor="start" x="412.34" y="-117" font-family="Arial" font-size="14.00">primary_contact </text>
<text text-anchor="start" x="515.82" y="-117" font-family="Arial" font-size="14.00" fill="#666666">[text]</text>
<polygon fill="none" stroke="black" points="405.34,-74 405.34,-104.8 659.02,-104.8 659.02,-74 405.34,-74"/>
<text text-anchor="start" x="412.34" y="-86.2" font-family="Arial" font-size="14.00">secondary_contact </text>
<text text-anchor="start" x="533.74" y="-86.2" font-family="Arial" font-size="14.00" fill="#666666">[text]</text>
<polygon fill="none" stroke="black" points="405.34,-43.2 405.34,-74 659.02,-74 659.02,-43.2 405.34,-43.2"/>
<text text-anchor="start" x="412.34" y="-55.4" font-family="Arial" font-size="14.00">role_id </text>
<text text-anchor="start" x="458.26" y="-55.4" font-family="Arial" font-size="14.00" fill="#666666">[bigint]</text>
</g>
<!-- public.faculties&#45;&gt;public.profiles -->
<g id="edge4" class="edge">
<title>public.faculties:dean_profile_id&#45;&gt;public.profiles:id</title>
<path fill="none" stroke="black" d="M670.14,-619.48C813.63,-604.64 810.26,-274.2 660.02,-274.2"/>
<polygon fill="black" stroke="black" points="670.34,-619.47 660.13,-615.49 665.01,-619.75 660.69,-619.97 660.69,-619.97 660.69,-619.97 665.01,-619.75 660.58,-624.48 670.34,-619.47"/>
<text text-anchor="start" x="667.02" y="-630" font-family="Arial" font-size="10.00">FOREIGN KEY (dean_profile_id) REFERENCES profiles(id)</text>
</g>
<!-- public.faculties&#45;&gt;public.profiles -->
<g id="edge5" class="edge">
<title>public.faculties:coordinator_profile_id&#45;&gt;public.profiles:id</title>
<path fill="none" stroke="black" d="M533.06,-562.46C542.69,-510.56 628.58,-546.92 659.02,-491.6 705.6,-406.94 756.64,-274.2 660.02,-274.2"/>
<polygon fill="black" stroke="black" points="533.06,-562.5 527.72,-572.08 532.6,-567.82 532.24,-572.13 532.24,-572.13 532.24,-572.13 532.6,-567.82 536.69,-572.85 533.06,-562.5"/>
<text text-anchor="start" x="230.64" y="-582.8" font-family="Arial" font-size="10.00">FOREIGN KEY (coordinator_profile_id) REFERENCES profiles(id)</text>
</g>
<!-- public.schools -->
<g id="node2" class="node">
<title>public.schools</title>
<polygon fill="#efefef" stroke="none" points="226.34,-1304.6 226.34,-1340.2 480.02,-1340.2 480.02,-1304.6 226.34,-1304.6"/>
<polygon fill="none" stroke="black" points="226.34,-1304.6 226.34,-1340.2 480.02,-1340.2 480.02,-1304.6 226.34,-1304.6"/>
<text text-anchor="start" x="239.19" y="-1318" font-family="Arial Bold" font-size="18.00">public.schools</text>
<text text-anchor="start" x="342.68" y="-1318" font-family="Arial" font-size="14.00">    </text>
<text text-anchor="start" x="373.8" y="-1318" font-family="Arial" font-size="14.00" fill="#666666">[BASE TABLE]</text>
<polygon fill="none" stroke="black" points="226.34,-1273.8 226.34,-1304.6 480.02,-1304.6 480.02,-1273.8 226.34,-1273.8"/>
<text text-anchor="start" x="233.34" y="-1286" font-family="Arial" font-size="14.00">created_at </text>
<text text-anchor="start" x="303.39" y="-1286" font-family="Arial" font-size="14.00" fill="#666666">[timestamp with time zone]</text>
<polygon fill="none" stroke="black" points="226.34,-1243 226.34,-1273.8 480.02,-1273.8 480.02,-1243 226.34,-1243"/>
<text text-anchor="start" x="233.34" y="-1255.2" font-family="Arial" font-size="14.00">created_by </text>
<text text-anchor="start" x="306.5" y="-1255.2" font-family="Arial" font-size="14.00" fill="#666666">[uuid]</text>
<polygon fill="none" stroke="black" points="226.34,-1212.2 226.34,-1243 480.02,-1243 480.02,-1212.2 226.34,-1212.2"/>
<text text-anchor="start" x="233.34" y="-1224.4" font-family="Arial" font-size="14.00">updated_at </text>
<text text-anchor="start" x="307.3" y="-1224.4" font-family="Arial" font-size="14.00" fill="#666666">[timestamp with time zone]</text>
<polygon fill="none" stroke="black" points="226.34,-1181.4 226.34,-1212.2 480.02,-1212.2 480.02,-1181.4 226.34,-1181.4"/>
<text text-anchor="start" x="233.34" y="-1193.6" font-family="Arial" font-size="14.00">updated_by </text>
<text text-anchor="start" x="310.41" y="-1193.6" font-family="Arial" font-size="14.00" fill="#666666">[uuid]</text>
<polygon fill="none" stroke="black" points="226.34,-1150.6 226.34,-1181.4 480.02,-1181.4 480.02,-1150.6 226.34,-1150.6"/>
<text text-anchor="start" x="233.34" y="-1162.8" font-family="Arial" font-size="14.00">id </text>
<text text-anchor="start" x="248.12" y="-1162.8" font-family="Arial" font-size="14.00" fill="#666666">[bigint]</text>
<polygon fill="none" stroke="black" points="226.34,-1119.8 226.34,-1150.6 480.02,-1150.6 480.02,-1119.8 226.34,-1119.8"/>
<text text-anchor="start" x="233.34" y="-1132" font-family="Arial" font-size="14.00">faculty_id </text>
<text text-anchor="start" x="296.37" y="-1132" font-family="Arial" font-size="14.00" fill="#666666">[bigint]</text>
<polygon fill="none" stroke="black" points="226.34,-1089 226.34,-1119.8 480.02,-1119.8 480.02,-1089 226.34,-1089"/>
<text text-anchor="start" x="233.34" y="-1101.2" font-family="Arial" font-size="14.00">school_name </text>
<text text-anchor="start" x="320.5" y="-1101.2" font-family="Arial" font-size="14.00" fill="#666666">[text]</text>
<polygon fill="none" stroke="black" points="226.34,-1058.2 226.34,-1089 480.02,-1089 480.02,-1058.2 226.34,-1058.2"/>
<text text-anchor="start" x="233.34" y="-1070.4" font-family="Arial" font-size="14.00">tutor_profile_id </text>
<text text-anchor="start" x="329.84" y="-1070.4" font-family="Arial" font-size="14.00" fill="#666666">[uuid]</text>
</g>
<!-- public.schools&#45;&gt;public.faculties -->
<g id="edge1" class="edge">
<title>public.schools:faculty_id&#45;&gt;public.faculties:id</title>
<path fill="none" stroke="black" d="M491.01,-1134.19C529.6,-1125.4 498.12,-1061.25 480.02,-1015 462.04,-969.03 423.24,-978.8 405.34,-932.8 369.82,-841.51 306.38,-712.4 404.34,-712.4"/>
<polygon fill="black" stroke="black" points="491.3,-1134.16 480.9,-1130.69 485.99,-1134.7 481.69,-1135.13 481.69,-1135.13 481.69,-1135.13 485.99,-1134.7 481.81,-1139.64 491.3,-1134.16"/>
<text text-anchor="start" x="488.02" y="-1145.2" font-family="Arial" font-size="10.00">FOREIGN KEY (faculty_id) REFERENCES faculties(id)</text>
</g>
<!-- public.students -->
<g id="node3" class="node">
<title>public.students</title>
<polygon fill="#efefef" stroke="none" points="584.34,-1350.8 584.34,-1386.4 838.02,-1386.4 838.02,-1350.8 584.34,-1350.8"/>
<polygon fill="none" stroke="black" points="584.34,-1350.8 584.34,-1386.4 838.02,-1386.4 838.02,-1350.8 584.34,-1350.8"/>
<text text-anchor="start" x="594.69" y="-1364.2" font-family="Arial Bold" font-size="18.00">public.students</text>
<text text-anchor="start" x="703.18" y="-1364.2" font-family="Arial" font-size="14.00">    </text>
<text text-anchor="start" x="734.3" y="-1364.2" font-family="Arial" font-size="14.00" fill="#666666">[BASE TABLE]</text>
<polygon fill="none" stroke="black" points="584.34,-1320 584.34,-1350.8 838.02,-1350.8 838.02,-1320 584.34,-1320"/>
<text text-anchor="start" x="591.34" y="-1332.2" font-family="Arial" font-size="14.00">created_at </text>
<text text-anchor="start" x="661.39" y="-1332.2" font-family="Arial" font-size="14.00" fill="#666666">[timestamp with time zone]</text>
<polygon fill="none" stroke="black" points="584.34,-1289.2 584.34,-1320 838.02,-1320 838.02,-1289.2 584.34,-1289.2"/>
<text text-anchor="start" x="591.34" y="-1301.4" font-family="Arial" font-size="14.00">created_by </text>
<text text-anchor="start" x="664.5" y="-1301.4" font-family="Arial" font-size="14.00" fill="#666666">[uuid]</text>
<polygon fill="none" stroke="black" points="584.34,-1258.4 584.34,-1289.2 838.02,-1289.2 838.02,-1258.4 584.34,-1258.4"/>
<text text-anchor="start" x="591.34" y="-1270.6" font-family="Arial" font-size="14.00">updated_at </text>
<text text-anchor="start" x="665.3" y="-1270.6" font-family="Arial" font-size="14.00" fill="#666666">[timestamp with time zone]</text>
<polygon fill="none" stroke="black" points="584.34,-1227.6 584.34,-1258.4 838.02,-1258.4 838.02,-1227.6 584.34,-1227.6"/>
<text text-anchor="start" x="591.34" y="-1239.8" font-family="Arial" font-size="14.00">updated_by </text>
<text text-anchor="start" x="668.41" y="-1239.8" font-family="Arial" font-size="14.00" fill="#666666">[uuid]</text>
<polygon fill="none" stroke="black" points="584.34,-1196.8 584.34,-1227.6 838.02,-1227.6 838.02,-1196.8 584.34,-1196.8"/>
<text text-anchor="start" x="591.34" y="-1209" font-family="Arial" font-size="14.00">id </text>
<text text-anchor="start" x="606.12" y="-1209" font-family="Arial" font-size="14.00" fill="#666666">[bigint]</text>
<polygon fill="none" stroke="black" points="584.34,-1166 584.34,-1196.8 838.02,-1196.8 838.02,-1166 584.34,-1166"/>
<text text-anchor="start" x="591.34" y="-1178.2" font-family="Arial" font-size="14.00">profile_id </text>
<text text-anchor="start" x="652.04" y="-1178.2" font-family="Arial" font-size="14.00" fill="#666666">[uuid]</text>
<polygon fill="none" stroke="black" points="584.34,-1135.2 584.34,-1166 838.02,-1166 838.02,-1135.2 584.34,-1135.2"/>
<text text-anchor="start" x="591.34" y="-1147.4" font-family="Arial" font-size="14.00">faculty_id </text>
<text text-anchor="start" x="654.37" y="-1147.4" font-family="Arial" font-size="14.00" fill="#666666">[bigint]</text>
<polygon fill="none" stroke="black" points="584.34,-1104.4 584.34,-1135.2 838.02,-1135.2 838.02,-1104.4 584.34,-1104.4"/>
<text text-anchor="start" x="591.34" y="-1116.6" font-family="Arial" font-size="14.00">school_id </text>
<text text-anchor="start" x="654.38" y="-1116.6" font-family="Arial" font-size="14.00" fill="#666666">[bigint]</text>
<polygon fill="none" stroke="black" points="584.34,-1073.6 584.34,-1104.4 838.02,-1104.4 838.02,-1073.6 584.34,-1073.6"/>
<text text-anchor="start" x="591.34" y="-1085.8" font-family="Arial" font-size="14.00">semester </text>
<text text-anchor="start" x="652.8" y="-1085.8" font-family="Arial" font-size="14.00" fill="#666666">[semester_enum]</text>
<polygon fill="none" stroke="black" points="584.34,-1042.8 584.34,-1073.6 838.02,-1073.6 838.02,-1042.8 584.34,-1042.8"/>
<text text-anchor="start" x="591.34" y="-1055" font-family="Arial" font-size="14.00">shift </text>
<text text-anchor="start" x="620.9" y="-1055" font-family="Arial" font-size="14.00" fill="#666666">[shift_enum]</text>
<polygon fill="none" stroke="black" points="584.34,-1012 584.34,-1042.8 838.02,-1042.8 838.02,-1012 584.34,-1012"/>
<text text-anchor="start" x="591.34" y="-1024.2" font-family="Arial" font-size="14.00">section </text>
<text text-anchor="start" x="639.59" y="-1024.2" font-family="Arial" font-size="14.00" fill="#666666">[section_enum]</text>
</g>
<!-- public.students&#45;&gt;public.faculties -->
<g id="edge2" class="edge">
<title>public.students:faculty_id&#45;&gt;public.faculties:id</title>
<path fill="none" stroke="black" d="M573.16,-1149.93C506.02,-1140.49 543.11,-1034.04 584.34,-968.8 604.02,-937.65 639.35,-963.96 659.02,-932.8 711.31,-849.97 757.98,-712.4 660.02,-712.4"/>
<polygon fill="black" stroke="black" points="573.03,-1149.92 582.71,-1155.07 578.35,-1150.27 582.67,-1150.56 582.67,-1150.56 582.67,-1150.56 578.35,-1150.27 583.3,-1146.09 573.03,-1149.92"/>
<text text-anchor="start" x="590.34" y="-1160.6" font-family="Arial" font-size="10.00">FOREIGN KEY (faculty_id) REFERENCES faculties(id)</text>
</g>
</g>
</svg>
