<?xml version="1.0" encoding="UTF-8" standalone="no"?>
<!DOCTYPE svg PUBLIC "-//W3C//DTD SVG 1.1//EN"
 "http://www.w3.org/Graphics/SVG/1.1/DTD/svg11.dtd">
<!-- Generated by graphviz version 12.1.2 (20240928.0832)
 -->
<!-- Title: public.documents Pages: 1 -->
<svg width="950pt" height="1622pt"
 viewBox="0.00 0.00 949.62 1622.40" xmlns="http://www.w3.org/2000/svg" xmlns:xlink="http://www.w3.org/1999/xlink">
<g id="graph0" class="graph" transform="scale(1 1) rotate(0) translate(4 1618.4)">
<title>public.documents</title>
<polygon fill="white" stroke="none" points="-4,4 -4,-1618.4 945.62,-1618.4 945.62,4 -4,4"/>
<!-- public.documents -->
<g id="node1" class="node">
<title>public.documents</title>
<polygon fill="#efefef" stroke="none" points="293.38,-820.2 293.38,-855.8 559.35,-855.8 559.35,-820.2 293.38,-820.2"/>
<polygon fill="none" stroke="black" points="293.38,-820.2 293.38,-855.8 559.35,-855.8 559.35,-820.2 293.38,-820.2"/>
<text text-anchor="start" x="300.38" y="-833.6" font-family="Arial Bold" font-size="18.00">public.documents</text>
<text text-anchor="start" x="427.86" y="-833.6" font-family="Arial" font-size="14.00">    </text>
<text text-anchor="start" x="458.97" y="-833.6" font-family="Arial" font-size="14.00" fill="#666666">[BASE TABLE]</text>
<polygon fill="none" stroke="black" points="293.38,-789.4 293.38,-820.2 559.35,-820.2 559.35,-789.4 293.38,-789.4"/>
<text text-anchor="start" x="300.38" y="-801.6" font-family="Arial" font-size="14.00">created_at </text>
<text text-anchor="start" x="370.43" y="-801.6" font-family="Arial" font-size="14.00" fill="#666666">[timestamp with time zone]</text>
<polygon fill="none" stroke="black" points="293.38,-758.6 293.38,-789.4 559.35,-789.4 559.35,-758.6 293.38,-758.6"/>
<text text-anchor="start" x="300.38" y="-770.8" font-family="Arial" font-size="14.00">created_by </text>
<text text-anchor="start" x="373.54" y="-770.8" font-family="Arial" font-size="14.00" fill="#666666">[uuid]</text>
<polygon fill="none" stroke="black" points="293.38,-727.8 293.38,-758.6 559.35,-758.6 559.35,-727.8 293.38,-727.8"/>
<text text-anchor="start" x="300.38" y="-740" font-family="Arial" font-size="14.00">updated_at </text>
<text text-anchor="start" x="374.34" y="-740" font-family="Arial" font-size="14.00" fill="#666666">[timestamp with time zone]</text>
<polygon fill="none" stroke="black" points="293.38,-697 293.38,-727.8 559.35,-727.8 559.35,-697 293.38,-697"/>
<text text-anchor="start" x="300.38" y="-709.2" font-family="Arial" font-size="14.00">updated_by </text>
<text text-anchor="start" x="377.45" y="-709.2" font-family="Arial" font-size="14.00" fill="#666666">[uuid]</text>
<polygon fill="none" stroke="black" points="293.38,-666.2 293.38,-697 559.35,-697 559.35,-666.2 293.38,-666.2"/>
<text text-anchor="start" x="300.38" y="-678.4" font-family="Arial" font-size="14.00">id </text>
<text text-anchor="start" x="315.17" y="-678.4" font-family="Arial" font-size="14.00" fill="#666666">[bigint]</text>
<polygon fill="none" stroke="black" points="293.38,-635.4 293.38,-666.2 559.35,-666.2 559.35,-635.4 293.38,-635.4"/>
<text text-anchor="start" x="300.38" y="-647.6" font-family="Arial" font-size="14.00">bucket_id </text>
<text text-anchor="start" x="364.2" y="-647.6" font-family="Arial" font-size="14.00" fill="#666666">[text]</text>
<polygon fill="none" stroke="black" points="293.38,-604.6 293.38,-635.4 559.35,-635.4 559.35,-604.6 293.38,-604.6"/>
<text text-anchor="start" x="300.38" y="-616.8" font-family="Arial" font-size="14.00">storage_path </text>
<text text-anchor="start" x="386" y="-616.8" font-family="Arial" font-size="14.00" fill="#666666">[text]</text>
<polygon fill="none" stroke="black" points="293.38,-573.8 293.38,-604.6 559.35,-604.6 559.35,-573.8 293.38,-573.8"/>
<text text-anchor="start" x="300.38" y="-586" font-family="Arial" font-size="14.00">uploaded_by_profile_id </text>
<text text-anchor="start" x="449.06" y="-586" font-family="Arial" font-size="14.00" fill="#666666">[uuid]</text>
<polygon fill="none" stroke="black" stroke-width="3" points="291.88,-572.3 291.88,-857.3 560.85,-857.3 560.85,-572.3 291.88,-572.3"/>
</g>
<!-- public.profiles -->
<g id="node3" class="node">
<title>public.profiles</title>
<polygon fill="#efefef" stroke="none" points="299.52,-412.8 299.52,-448.4 553.2,-448.4 553.2,-412.8 299.52,-412.8"/>
<polygon fill="none" stroke="black" points="299.52,-412.8 299.52,-448.4 553.2,-448.4 553.2,-412.8 299.52,-412.8"/>
<text text-anchor="start" x="311.88" y="-426.2" font-family="Arial Bold" font-size="18.00">public.profiles</text>
<text text-anchor="start" x="416.36" y="-426.2" font-family="Arial" font-size="14.00">    </text>
<text text-anchor="start" x="447.47" y="-426.2" font-family="Arial" font-size="14.00" fill="#666666">[BASE TABLE]</text>
<polygon fill="none" stroke="black" points="299.52,-382 299.52,-412.8 553.2,-412.8 553.2,-382 299.52,-382"/>
<text text-anchor="start" x="306.52" y="-394.2" font-family="Arial" font-size="14.00">created_at </text>
<text text-anchor="start" x="376.57" y="-394.2" font-family="Arial" font-size="14.00" fill="#666666">[timestamp with time zone]</text>
<polygon fill="none" stroke="black" points="299.52,-351.2 299.52,-382 553.2,-382 553.2,-351.2 299.52,-351.2"/>
<text text-anchor="start" x="306.52" y="-363.4" font-family="Arial" font-size="14.00">created_by </text>
<text text-anchor="start" x="379.68" y="-363.4" font-family="Arial" font-size="14.00" fill="#666666">[uuid]</text>
<polygon fill="none" stroke="black" points="299.52,-320.4 299.52,-351.2 553.2,-351.2 553.2,-320.4 299.52,-320.4"/>
<text text-anchor="start" x="306.52" y="-332.6" font-family="Arial" font-size="14.00">updated_at </text>
<text text-anchor="start" x="380.48" y="-332.6" font-family="Arial" font-size="14.00" fill="#666666">[timestamp with time zone]</text>
<polygon fill="none" stroke="black" points="299.52,-289.6 299.52,-320.4 553.2,-320.4 553.2,-289.6 299.52,-289.6"/>
<text text-anchor="start" x="306.52" y="-301.8" font-family="Arial" font-size="14.00">updated_by </text>
<text text-anchor="start" x="383.59" y="-301.8" font-family="Arial" font-size="14.00" fill="#666666">[uuid]</text>
<polygon fill="none" stroke="black" points="299.52,-258.8 299.52,-289.6 553.2,-289.6 553.2,-258.8 299.52,-258.8"/>
<text text-anchor="start" x="306.52" y="-271" font-family="Arial" font-size="14.00">id </text>
<text text-anchor="start" x="321.31" y="-271" font-family="Arial" font-size="14.00" fill="#666666">[uuid]</text>
<polygon fill="none" stroke="black" points="299.52,-228 299.52,-258.8 553.2,-258.8 553.2,-228 299.52,-228"/>
<text text-anchor="start" x="306.52" y="-240.2" font-family="Arial" font-size="14.00">first_name </text>
<text text-anchor="start" x="375.77" y="-240.2" font-family="Arial" font-size="14.00" fill="#666666">[text]</text>
<polygon fill="none" stroke="black" points="299.52,-197.2 299.52,-228 553.2,-228 553.2,-197.2 299.52,-197.2"/>
<text text-anchor="start" x="306.52" y="-209.4" font-family="Arial" font-size="14.00">last_name </text>
<text text-anchor="start" x="375" y="-209.4" font-family="Arial" font-size="14.00" fill="#666666">[text]</text>
<polygon fill="none" stroke="black" points="299.52,-166.4 299.52,-197.2 553.2,-197.2 553.2,-166.4 299.52,-166.4"/>
<text text-anchor="start" x="306.52" y="-178.6" font-family="Arial" font-size="14.00">national_id </text>
<text text-anchor="start" x="378.14" y="-178.6" font-family="Arial" font-size="14.00" fill="#666666">[text]</text>
<polygon fill="none" stroke="black" points="299.52,-135.6 299.52,-166.4 553.2,-166.4 553.2,-135.6 299.52,-135.6"/>
<text text-anchor="start" x="306.52" y="-147.8" font-family="Arial" font-size="14.00">email </text>
<text text-anchor="start" x="343.87" y="-147.8" font-family="Arial" font-size="14.00" fill="#666666">[text]</text>
<polygon fill="none" stroke="black" points="299.52,-104.8 299.52,-135.6 553.2,-135.6 553.2,-104.8 299.52,-104.8"/>
<text text-anchor="start" x="306.52" y="-117" font-family="Arial" font-size="14.00">primary_contact </text>
<text text-anchor="start" x="410" y="-117" font-family="Arial" font-size="14.00" fill="#666666">[text]</text>
<polygon fill="none" stroke="black" points="299.52,-74 299.52,-104.8 553.2,-104.8 553.2,-74 299.52,-74"/>
<text text-anchor="start" x="306.52" y="-86.2" font-family="Arial" font-size="14.00">secondary_contact </text>
<text text-anchor="start" x="427.93" y="-86.2" font-family="Arial" font-size="14.00" fill="#666666">[text]</text>
<polygon fill="none" stroke="black" points="299.52,-43.2 299.52,-74 553.2,-74 553.2,-43.2 299.52,-43.2"/>
<text text-anchor="start" x="306.52" y="-55.4" font-family="Arial" font-size="14.00">role_id </text>
<text text-anchor="start" x="352.44" y="-55.4" font-family="Arial" font-size="14.00" fill="#666666">[bigint]</text>
</g>
<!-- public.documents&#45;&gt;public.profiles -->
<g id="edge3" class="edge">
<title>public.documents:uploaded_by_profile_id&#45;&gt;public.profiles:id</title>
<path fill="none" stroke="black" d="M427.25,-562.46C436.88,-510.56 522.77,-546.92 553.2,-491.6 599.78,-406.94 650.83,-274.2 554.2,-274.2"/>
<polygon fill="black" stroke="black" points="427.24,-562.5 421.91,-572.08 426.79,-567.82 426.42,-572.13 426.42,-572.13 426.42,-572.13 426.79,-567.82 430.88,-572.85 427.24,-562.5"/>
<text text-anchor="start" x="7" y="-582.8" font-family="Arial" font-size="10.00">FOREIGN KEY (uploaded_by_profile_id) REFERENCES profiles(id) ON DELETE CASCADE</text>
</g>
<!-- public.projects -->
<g id="node2" class="node">
<title>public.projects</title>
<polygon fill="#efefef" stroke="none" points="254,-1535.6 254,-1571.2 598.73,-1571.2 598.73,-1535.6 254,-1535.6"/>
<polygon fill="none" stroke="black" points="254,-1535.6 254,-1571.2 598.73,-1571.2 598.73,-1535.6 254,-1535.6"/>
<text text-anchor="start" x="310.88" y="-1549" font-family="Arial Bold" font-size="18.00">public.projects</text>
<text text-anchor="start" x="417.35" y="-1549" font-family="Arial" font-size="14.00">    </text>
<text text-anchor="start" x="448.47" y="-1549" font-family="Arial" font-size="14.00" fill="#666666">[BASE TABLE]</text>
<polygon fill="none" stroke="black" points="254,-1504.8 254,-1535.6 598.73,-1535.6 598.73,-1504.8 254,-1504.8"/>
<text text-anchor="start" x="261" y="-1517" font-family="Arial" font-size="14.00">created_at </text>
<text text-anchor="start" x="331.05" y="-1517" font-family="Arial" font-size="14.00" fill="#666666">[timestamp with time zone]</text>
<polygon fill="none" stroke="black" points="254,-1474 254,-1504.8 598.73,-1504.8 598.73,-1474 254,-1474"/>
<text text-anchor="start" x="261" y="-1486.2" font-family="Arial" font-size="14.00">created_by </text>
<text text-anchor="start" x="334.16" y="-1486.2" font-family="Arial" font-size="14.00" fill="#666666">[uuid]</text>
<polygon fill="none" stroke="black" points="254,-1443.2 254,-1474 598.73,-1474 598.73,-1443.2 254,-1443.2"/>
<text text-anchor="start" x="261" y="-1455.4" font-family="Arial" font-size="14.00">updated_at </text>
<text text-anchor="start" x="334.96" y="-1455.4" font-family="Arial" font-size="14.00" fill="#666666">[timestamp with time zone]</text>
<polygon fill="none" stroke="black" points="254,-1412.4 254,-1443.2 598.73,-1443.2 598.73,-1412.4 254,-1412.4"/>
<text text-anchor="start" x="261" y="-1424.6" font-family="Arial" font-size="14.00">updated_by </text>
<text text-anchor="start" x="338.07" y="-1424.6" font-family="Arial" font-size="14.00" fill="#666666">[uuid]</text>
<polygon fill="none" stroke="black" points="254,-1381.6 254,-1412.4 598.73,-1412.4 598.73,-1381.6 254,-1381.6"/>
<text text-anchor="start" x="261" y="-1393.8" font-family="Arial" font-size="14.00">id </text>
<text text-anchor="start" x="275.78" y="-1393.8" font-family="Arial" font-size="14.00" fill="#666666">[bigint]</text>
<polygon fill="none" stroke="black" points="254,-1350.8 254,-1381.6 598.73,-1381.6 598.73,-1350.8 254,-1350.8"/>
<text text-anchor="start" x="261" y="-1363" font-family="Arial" font-size="14.00">tutor_profile_id </text>
<text text-anchor="start" x="357.5" y="-1363" font-family="Arial" font-size="14.00" fill="#666666">[uuid]</text>
<polygon fill="none" stroke="black" points="254,-1320 254,-1350.8 598.73,-1350.8 598.73,-1320 254,-1320"/>
<text text-anchor="start" x="261" y="-1332.2" font-family="Arial" font-size="14.00">coordinator_profile_id </text>
<text text-anchor="start" x="399.53" y="-1332.2" font-family="Arial" font-size="14.00" fill="#666666">[uuid]</text>
<polygon fill="none" stroke="black" points="254,-1289.2 254,-1320 598.73,-1320 598.73,-1289.2 254,-1289.2"/>
<text text-anchor="start" x="261" y="-1301.4" font-family="Arial" font-size="14.00">student_profile_id </text>
<text text-anchor="start" x="375.41" y="-1301.4" font-family="Arial" font-size="14.00" fill="#666666">[uuid]</text>
<polygon fill="none" stroke="black" points="254,-1258.4 254,-1289.2 598.73,-1289.2 598.73,-1258.4 254,-1258.4"/>
<text text-anchor="start" x="261" y="-1270.6" font-family="Arial" font-size="14.00">institution_id </text>
<text text-anchor="start" x="342.72" y="-1270.6" font-family="Arial" font-size="14.00" fill="#666666">[bigint]</text>
<polygon fill="none" stroke="black" points="254,-1227.6 254,-1258.4 598.73,-1258.4 598.73,-1227.6 254,-1227.6"/>
<text text-anchor="start" x="261" y="-1239.8" font-family="Arial" font-size="14.00">title </text>
<text text-anchor="start" x="286.67" y="-1239.8" font-family="Arial" font-size="14.00" fill="#666666">[text]</text>
<polygon fill="none" stroke="black" points="254,-1196.8 254,-1227.6 598.73,-1227.6 598.73,-1196.8 254,-1196.8"/>
<text text-anchor="start" x="261" y="-1209" font-family="Arial" font-size="14.00">abstract </text>
<text text-anchor="start" x="314.69" y="-1209" font-family="Arial" font-size="14.00" fill="#666666">[text]</text>
<polygon fill="none" stroke="black" points="254,-1166 254,-1196.8 598.73,-1196.8 598.73,-1166 254,-1166"/>
<text text-anchor="start" x="261" y="-1178.2" font-family="Arial" font-size="14.00">pre_project_document_id </text>
<text text-anchor="start" x="422.88" y="-1178.2" font-family="Arial" font-size="14.00" fill="#666666">[bigint]</text>
<polygon fill="none" stroke="black" points="254,-1135.2 254,-1166 598.73,-1166 598.73,-1135.2 254,-1135.2"/>
<text text-anchor="start" x="261" y="-1147.4" font-family="Arial" font-size="14.00">pre_project_observations </text>
<text text-anchor="start" x="422.09" y="-1147.4" font-family="Arial" font-size="14.00" fill="#666666">[text]</text>
<polygon fill="none" stroke="black" points="254,-1104.4 254,-1135.2 598.73,-1135.2 598.73,-1104.4 254,-1104.4"/>
<text text-anchor="start" x="261" y="-1116.6" font-family="Arial" font-size="14.00">pre_project_approved_at </text>
<text text-anchor="start" x="420.56" y="-1116.6" font-family="Arial" font-size="14.00" fill="#666666">[timestamp with time zone]</text>
<polygon fill="none" stroke="black" points="254,-1073.6 254,-1104.4 598.73,-1104.4 598.73,-1073.6 254,-1073.6"/>
<text text-anchor="start" x="261" y="-1085.8" font-family="Arial" font-size="14.00">project_document_id </text>
<text text-anchor="start" x="394.86" y="-1085.8" font-family="Arial" font-size="14.00" fill="#666666">[bigint]</text>
<polygon fill="none" stroke="black" points="254,-1042.8 254,-1073.6 598.73,-1073.6 598.73,-1042.8 254,-1042.8"/>
<text text-anchor="start" x="261" y="-1055" font-family="Arial" font-size="14.00">project_observations </text>
<text text-anchor="start" x="394.07" y="-1055" font-family="Arial" font-size="14.00" fill="#666666">[text]</text>
<polygon fill="none" stroke="black" points="254,-1012 254,-1042.8 598.73,-1042.8 598.73,-1012 254,-1012"/>
<text text-anchor="start" x="261" y="-1024.2" font-family="Arial" font-size="14.00">project_received_at </text>
<text text-anchor="start" x="387.07" y="-1024.2" font-family="Arial" font-size="14.00" fill="#666666">[timestamp with time zone]</text>
<polygon fill="none" stroke="black" points="254,-981.2 254,-1012 598.73,-1012 598.73,-981.2 254,-981.2"/>
<text text-anchor="start" x="261" y="-993.4" font-family="Arial" font-size="14.00">final_project_approved_at </text>
<text text-anchor="start" x="426" y="-993.4" font-family="Arial" font-size="14.00" fill="#666666">[timestamp with time zone]</text>
</g>
<!-- public.projects&#45;&gt;public.documents -->
<g id="edge1" class="edge">
<title>public.projects:pre_project_document_id&#45;&gt;public.documents:id</title>
<path fill="none" stroke="black" d="M610.03,-1179.88C708.53,-1149.71 668.17,-681.6 560.35,-681.6"/>
<polygon fill="black" stroke="black" points="609.95,-1179.89 599.4,-1176.9 604.67,-1180.67 600.39,-1181.3 600.39,-1181.3 600.39,-1181.3 604.67,-1180.67 600.72,-1185.8 609.95,-1179.89"/>
<text text-anchor="start" x="606.73" y="-1191.4" font-family="Arial" font-size="10.00">FOREIGN KEY (pre_project_document_id) REFERENCES documents(id)</text>
</g>
<!-- public.projects&#45;&gt;public.documents -->
<g id="edge2" class="edge">
<title>public.projects:project_document_id&#45;&gt;public.documents:id</title>
<path fill="none" stroke="black" d="M609.79,-1087.18C687.53,-1057.79 647.75,-681.6 560.35,-681.6"/>
<polygon fill="black" stroke="black" points="609.9,-1087.16 599.26,-1084.51 604.65,-1088.11 600.39,-1088.88 600.39,-1088.88 600.39,-1088.88 604.65,-1088.11 600.86,-1093.37 609.9,-1087.16"/>
<text text-anchor="start" x="606.73" y="-1099" font-family="Arial" font-size="10.00">FOREIGN KEY (project_document_id) REFERENCES documents(id)</text>
</g>
</g>
</svg>
