<?xml version="1.0" encoding="UTF-8" standalone="no"?>
<!DOCTYPE svg PUBLIC "-//W3C//DTD SVG 1.1//EN"
 "http://www.w3.org/Graphics/SVG/1.1/DTD/svg11.dtd">
<!-- Generated by graphviz version 12.1.2 (20240928.0832)
 -->
<!-- Title: public.institutions Pages: 1 -->
<svg width="872pt" height="1622pt"
 viewBox="0.00 0.00 872.29 1622.40" xmlns="http://www.w3.org/2000/svg" xmlns:xlink="http://www.w3.org/1999/xlink">
<g id="graph0" class="graph" transform="scale(1 1) rotate(0) translate(4 1618.4)">
<title>public.institutions</title>
<polygon fill="white" stroke="none" points="-4,4 -4,-1618.4 868.29,-1618.4 868.29,4 -4,4"/>
<!-- public.institutions -->
<g id="node1" class="node">
<title>public.institutions</title>
<polygon fill="#efefef" stroke="none" points="268.41,-820.2 268.41,-855.8 536.4,-855.8 536.4,-820.2 268.41,-820.2"/>
<polygon fill="none" stroke="black" points="268.41,-820.2 268.41,-855.8 536.4,-855.8 536.4,-820.2 268.41,-820.2"/>
<text text-anchor="start" x="275.41" y="-833.6" font-family="Arial Bold" font-size="18.00">public.institutions</text>
<text text-anchor="start" x="404.92" y="-833.6" font-family="Arial" font-size="14.00">    </text>
<text text-anchor="start" x="436.03" y="-833.6" font-family="Arial" font-size="14.00" fill="#666666">[BASE TABLE]</text>
<polygon fill="none" stroke="black" points="268.41,-789.4 268.41,-820.2 536.4,-820.2 536.4,-789.4 268.41,-789.4"/>
<text text-anchor="start" x="275.41" y="-801.6" font-family="Arial" font-size="14.00">created_at </text>
<text text-anchor="start" x="345.46" y="-801.6" font-family="Arial" font-size="14.00" fill="#666666">[timestamp with time zone]</text>
<polygon fill="none" stroke="black" points="268.41,-758.6 268.41,-789.4 536.4,-789.4 536.4,-758.6 268.41,-758.6"/>
<text text-anchor="start" x="275.41" y="-770.8" font-family="Arial" font-size="14.00">created_by </text>
<text text-anchor="start" x="348.57" y="-770.8" font-family="Arial" font-size="14.00" fill="#666666">[uuid]</text>
<polygon fill="none" stroke="black" points="268.41,-727.8 268.41,-758.6 536.4,-758.6 536.4,-727.8 268.41,-727.8"/>
<text text-anchor="start" x="275.41" y="-740" font-family="Arial" font-size="14.00">updated_at </text>
<text text-anchor="start" x="349.37" y="-740" font-family="Arial" font-size="14.00" fill="#666666">[timestamp with time zone]</text>
<polygon fill="none" stroke="black" points="268.41,-697 268.41,-727.8 536.4,-727.8 536.4,-697 268.41,-697"/>
<text text-anchor="start" x="275.41" y="-709.2" font-family="Arial" font-size="14.00">updated_by </text>
<text text-anchor="start" x="352.48" y="-709.2" font-family="Arial" font-size="14.00" fill="#666666">[uuid]</text>
<polygon fill="none" stroke="black" points="268.41,-666.2 268.41,-697 536.4,-697 536.4,-666.2 268.41,-666.2"/>
<text text-anchor="start" x="275.41" y="-678.4" font-family="Arial" font-size="14.00">id </text>
<text text-anchor="start" x="290.19" y="-678.4" font-family="Arial" font-size="14.00" fill="#666666">[bigint]</text>
<polygon fill="none" stroke="black" points="268.41,-635.4 268.41,-666.2 536.4,-666.2 536.4,-635.4 268.41,-635.4"/>
<text text-anchor="start" x="275.41" y="-647.6" font-family="Arial" font-size="14.00">location_id </text>
<text text-anchor="start" x="346.24" y="-647.6" font-family="Arial" font-size="14.00" fill="#666666">[bigint]</text>
<polygon fill="none" stroke="black" points="268.41,-604.6 268.41,-635.4 536.4,-635.4 536.4,-604.6 268.41,-604.6"/>
<text text-anchor="start" x="275.41" y="-616.8" font-family="Arial" font-size="14.00">contact_person_profile_id </text>
<text text-anchor="start" x="439.63" y="-616.8" font-family="Arial" font-size="14.00" fill="#666666">[uuid]</text>
<polygon fill="none" stroke="black" points="268.41,-573.8 268.41,-604.6 536.4,-604.6 536.4,-573.8 268.41,-573.8"/>
<text text-anchor="start" x="275.41" y="-586" font-family="Arial" font-size="14.00">institution_name </text>
<text text-anchor="start" x="381.25" y="-586" font-family="Arial" font-size="14.00" fill="#666666">[text]</text>
<polygon fill="none" stroke="black" stroke-width="3" points="266.91,-572.3 266.91,-857.3 537.9,-857.3 537.9,-572.3 266.91,-572.3"/>
</g>
<!-- public.locations -->
<g id="node3" class="node">
<title>public.locations</title>
<polygon fill="#efefef" stroke="none" points="96.57,-335.8 96.57,-371.4 350.25,-371.4 350.25,-335.8 96.57,-335.8"/>
<polygon fill="none" stroke="black" points="96.57,-335.8 96.57,-371.4 350.25,-371.4 350.25,-335.8 96.57,-335.8"/>
<text text-anchor="start" x="103.92" y="-349.2" font-family="Arial Bold" font-size="18.00">public.locations</text>
<text text-anchor="start" x="218.4" y="-349.2" font-family="Arial" font-size="14.00">    </text>
<text text-anchor="start" x="249.52" y="-349.2" font-family="Arial" font-size="14.00" fill="#666666">[BASE TABLE]</text>
<polygon fill="none" stroke="black" points="96.57,-305 96.57,-335.8 350.25,-335.8 350.25,-305 96.57,-305"/>
<text text-anchor="start" x="103.57" y="-317.2" font-family="Arial" font-size="14.00">created_at </text>
<text text-anchor="start" x="173.61" y="-317.2" font-family="Arial" font-size="14.00" fill="#666666">[timestamp with time zone]</text>
<polygon fill="none" stroke="black" points="96.57,-274.2 96.57,-305 350.25,-305 350.25,-274.2 96.57,-274.2"/>
<text text-anchor="start" x="103.57" y="-286.4" font-family="Arial" font-size="14.00">created_by </text>
<text text-anchor="start" x="176.72" y="-286.4" font-family="Arial" font-size="14.00" fill="#666666">[uuid]</text>
<polygon fill="none" stroke="black" points="96.57,-243.4 96.57,-274.2 350.25,-274.2 350.25,-243.4 96.57,-243.4"/>
<text text-anchor="start" x="103.57" y="-255.6" font-family="Arial" font-size="14.00">updated_at </text>
<text text-anchor="start" x="177.52" y="-255.6" font-family="Arial" font-size="14.00" fill="#666666">[timestamp with time zone]</text>
<polygon fill="none" stroke="black" points="96.57,-212.6 96.57,-243.4 350.25,-243.4 350.25,-212.6 96.57,-212.6"/>
<text text-anchor="start" x="103.57" y="-224.8" font-family="Arial" font-size="14.00">updated_by </text>
<text text-anchor="start" x="180.63" y="-224.8" font-family="Arial" font-size="14.00" fill="#666666">[uuid]</text>
<polygon fill="none" stroke="black" points="96.57,-181.8 96.57,-212.6 350.25,-212.6 350.25,-181.8 96.57,-181.8"/>
<text text-anchor="start" x="103.57" y="-194" font-family="Arial" font-size="14.00">id </text>
<text text-anchor="start" x="118.35" y="-194" font-family="Arial" font-size="14.00" fill="#666666">[bigint]</text>
<polygon fill="none" stroke="black" points="96.57,-151 96.57,-181.8 350.25,-181.8 350.25,-151 96.57,-151"/>
<text text-anchor="start" x="103.57" y="-163.2" font-family="Arial" font-size="14.00">city_id </text>
<text text-anchor="start" x="147.14" y="-163.2" font-family="Arial" font-size="14.00" fill="#666666">[bigint]</text>
<polygon fill="none" stroke="black" points="96.57,-120.2 96.57,-151 350.25,-151 350.25,-120.2 96.57,-120.2"/>
<text text-anchor="start" x="103.57" y="-132.4" font-family="Arial" font-size="14.00">address </text>
<text text-anchor="start" x="157.26" y="-132.4" font-family="Arial" font-size="14.00" fill="#666666">[text]</text>
</g>
<!-- public.institutions&#45;&gt;public.locations -->
<g id="edge2" class="edge">
<title>public.institutions:location_id&#45;&gt;public.locations:id</title>
<path fill="none" stroke="black" d="M257.2,-649.78C217.98,-640.89 252.52,-575.96 268.41,-527.6 287.77,-468.69 330.99,-473.55 350.25,-414.6 380.25,-322.75 447.87,-197.2 351.25,-197.2"/>
<polygon fill="black" stroke="black" points="257.13,-649.77 266.63,-655.24 262.43,-650.3 266.74,-650.73 266.74,-650.73 266.74,-650.73 262.43,-650.3 267.52,-646.29 257.13,-649.77"/>
<text text-anchor="start" x="7" y="-660.8" font-family="Arial" font-size="10.00">FOREIGN KEY (location_id) REFERENCES locations(id)</text>
</g>
<!-- public.profiles -->
<g id="node4" class="node">
<title>public.profiles</title>
<polygon fill="#efefef" stroke="none" points="454.57,-412.8 454.57,-448.4 708.25,-448.4 708.25,-412.8 454.57,-412.8"/>
<polygon fill="none" stroke="black" points="454.57,-412.8 454.57,-448.4 708.25,-448.4 708.25,-412.8 454.57,-412.8"/>
<text text-anchor="start" x="466.92" y="-426.2" font-family="Arial Bold" font-size="18.00">public.profiles</text>
<text text-anchor="start" x="571.4" y="-426.2" font-family="Arial" font-size="14.00">    </text>
<text text-anchor="start" x="602.52" y="-426.2" font-family="Arial" font-size="14.00" fill="#666666">[BASE TABLE]</text>
<polygon fill="none" stroke="black" points="454.57,-382 454.57,-412.8 708.25,-412.8 708.25,-382 454.57,-382"/>
<text text-anchor="start" x="461.57" y="-394.2" font-family="Arial" font-size="14.00">created_at </text>
<text text-anchor="start" x="531.61" y="-394.2" font-family="Arial" font-size="14.00" fill="#666666">[timestamp with time zone]</text>
<polygon fill="none" stroke="black" points="454.57,-351.2 454.57,-382 708.25,-382 708.25,-351.2 454.57,-351.2"/>
<text text-anchor="start" x="461.57" y="-363.4" font-family="Arial" font-size="14.00">created_by </text>
<text text-anchor="start" x="534.72" y="-363.4" font-family="Arial" font-size="14.00" fill="#666666">[uuid]</text>
<polygon fill="none" stroke="black" points="454.57,-320.4 454.57,-351.2 708.25,-351.2 708.25,-320.4 454.57,-320.4"/>
<text text-anchor="start" x="461.57" y="-332.6" font-family="Arial" font-size="14.00">updated_at </text>
<text text-anchor="start" x="535.52" y="-332.6" font-family="Arial" font-size="14.00" fill="#666666">[timestamp with time zone]</text>
<polygon fill="none" stroke="black" points="454.57,-289.6 454.57,-320.4 708.25,-320.4 708.25,-289.6 454.57,-289.6"/>
<text text-anchor="start" x="461.57" y="-301.8" font-family="Arial" font-size="14.00">updated_by </text>
<text text-anchor="start" x="538.63" y="-301.8" font-family="Arial" font-size="14.00" fill="#666666">[uuid]</text>
<polygon fill="none" stroke="black" points="454.57,-258.8 454.57,-289.6 708.25,-289.6 708.25,-258.8 454.57,-258.8"/>
<text text-anchor="start" x="461.57" y="-271" font-family="Arial" font-size="14.00">id </text>
<text text-anchor="start" x="476.35" y="-271" font-family="Arial" font-size="14.00" fill="#666666">[uuid]</text>
<polygon fill="none" stroke="black" points="454.57,-228 454.57,-258.8 708.25,-258.8 708.25,-228 454.57,-228"/>
<text text-anchor="start" x="461.57" y="-240.2" font-family="Arial" font-size="14.00">first_name </text>
<text text-anchor="start" x="530.81" y="-240.2" font-family="Arial" font-size="14.00" fill="#666666">[text]</text>
<polygon fill="none" stroke="black" points="454.57,-197.2 454.57,-228 708.25,-228 708.25,-197.2 454.57,-197.2"/>
<text text-anchor="start" x="461.57" y="-209.4" font-family="Arial" font-size="14.00">last_name </text>
<text text-anchor="start" x="530.05" y="-209.4" font-family="Arial" font-size="14.00" fill="#666666">[text]</text>
<polygon fill="none" stroke="black" points="454.57,-166.4 454.57,-197.2 708.25,-197.2 708.25,-166.4 454.57,-166.4"/>
<text text-anchor="start" x="461.57" y="-178.6" font-family="Arial" font-size="14.00">national_id </text>
<text text-anchor="start" x="533.18" y="-178.6" font-family="Arial" font-size="14.00" fill="#666666">[text]</text>
<polygon fill="none" stroke="black" points="454.57,-135.6 454.57,-166.4 708.25,-166.4 708.25,-135.6 454.57,-135.6"/>
<text text-anchor="start" x="461.57" y="-147.8" font-family="Arial" font-size="14.00">email </text>
<text text-anchor="start" x="498.91" y="-147.8" font-family="Arial" font-size="14.00" fill="#666666">[text]</text>
<polygon fill="none" stroke="black" points="454.57,-104.8 454.57,-135.6 708.25,-135.6 708.25,-104.8 454.57,-104.8"/>
<text text-anchor="start" x="461.57" y="-117" font-family="Arial" font-size="14.00">primary_contact </text>
<text text-anchor="start" x="565.05" y="-117" font-family="Arial" font-size="14.00" fill="#666666">[text]</text>
<polygon fill="none" stroke="black" points="454.57,-74 454.57,-104.8 708.25,-104.8 708.25,-74 454.57,-74"/>
<text text-anchor="start" x="461.57" y="-86.2" font-family="Arial" font-size="14.00">secondary_contact </text>
<text text-anchor="start" x="582.97" y="-86.2" font-family="Arial" font-size="14.00" fill="#666666">[text]</text>
<polygon fill="none" stroke="black" points="454.57,-43.2 454.57,-74 708.25,-74 708.25,-43.2 454.57,-43.2"/>
<text text-anchor="start" x="461.57" y="-55.4" font-family="Arial" font-size="14.00">role_id </text>
<text text-anchor="start" x="507.48" y="-55.4" font-family="Arial" font-size="14.00" fill="#666666">[bigint]</text>
</g>
<!-- public.institutions&#45;&gt;public.profiles -->
<g id="edge3" class="edge">
<title>public.institutions:contact_person_profile_id&#45;&gt;public.profiles:id</title>
<path fill="none" stroke="black" d="M547.41,-618.53C574.8,-609.31 556.91,-558.66 536.4,-527.6 514.51,-494.44 476.36,-524.83 454.57,-491.6 428.07,-451.2 405.25,-274.2 453.57,-274.2"/>
<polygon fill="black" stroke="black" points="547.63,-618.5 537.08,-615.5 542.35,-619.28 538.07,-619.9 538.07,-619.9 538.07,-619.9 542.35,-619.28 538.39,-624.4 547.63,-618.5"/>
<text text-anchor="start" x="544.4" y="-630" font-family="Arial" font-size="10.00">FOREIGN KEY (contact_person_profile_id) REFERENCES profiles(id)</text>
</g>
<!-- public.projects -->
<g id="node2" class="node">
<title>public.projects</title>
<polygon fill="#efefef" stroke="none" points="230.04,-1535.6 230.04,-1571.2 574.77,-1571.2 574.77,-1535.6 230.04,-1535.6"/>
<polygon fill="none" stroke="black" points="230.04,-1535.6 230.04,-1571.2 574.77,-1571.2 574.77,-1535.6 230.04,-1535.6"/>
<text text-anchor="start" x="286.93" y="-1549" font-family="Arial Bold" font-size="18.00">public.projects</text>
<text text-anchor="start" x="393.4" y="-1549" font-family="Arial" font-size="14.00">    </text>
<text text-anchor="start" x="424.51" y="-1549" font-family="Arial" font-size="14.00" fill="#666666">[BASE TABLE]</text>
<polygon fill="none" stroke="black" points="230.04,-1504.8 230.04,-1535.6 574.77,-1535.6 574.77,-1504.8 230.04,-1504.8"/>
<text text-anchor="start" x="237.04" y="-1517" font-family="Arial" font-size="14.00">created_at </text>
<text text-anchor="start" x="307.09" y="-1517" font-family="Arial" font-size="14.00" fill="#666666">[timestamp with time zone]</text>
<polygon fill="none" stroke="black" points="230.04,-1474 230.04,-1504.8 574.77,-1504.8 574.77,-1474 230.04,-1474"/>
<text text-anchor="start" x="237.04" y="-1486.2" font-family="Arial" font-size="14.00">created_by </text>
<text text-anchor="start" x="310.2" y="-1486.2" font-family="Arial" font-size="14.00" fill="#666666">[uuid]</text>
<polygon fill="none" stroke="black" points="230.04,-1443.2 230.04,-1474 574.77,-1474 574.77,-1443.2 230.04,-1443.2"/>
<text text-anchor="start" x="237.04" y="-1455.4" font-family="Arial" font-size="14.00">updated_at </text>
<text text-anchor="start" x="311" y="-1455.4" font-family="Arial" font-size="14.00" fill="#666666">[timestamp with time zone]</text>
<polygon fill="none" stroke="black" points="230.04,-1412.4 230.04,-1443.2 574.77,-1443.2 574.77,-1412.4 230.04,-1412.4"/>
<text text-anchor="start" x="237.04" y="-1424.6" font-family="Arial" font-size="14.00">updated_by </text>
<text text-anchor="start" x="314.11" y="-1424.6" font-family="Arial" font-size="14.00" fill="#666666">[uuid]</text>
<polygon fill="none" stroke="black" points="230.04,-1381.6 230.04,-1412.4 574.77,-1412.4 574.77,-1381.6 230.04,-1381.6"/>
<text text-anchor="start" x="237.04" y="-1393.8" font-family="Arial" font-size="14.00">id </text>
<text text-anchor="start" x="251.83" y="-1393.8" font-family="Arial" font-size="14.00" fill="#666666">[bigint]</text>
<polygon fill="none" stroke="black" points="230.04,-1350.8 230.04,-1381.6 574.77,-1381.6 574.77,-1350.8 230.04,-1350.8"/>
<text text-anchor="start" x="237.04" y="-1363" font-family="Arial" font-size="14.00">tutor_profile_id </text>
<text text-anchor="start" x="333.54" y="-1363" font-family="Arial" font-size="14.00" fill="#666666">[uuid]</text>
<polygon fill="none" stroke="black" points="230.04,-1320 230.04,-1350.8 574.77,-1350.8 574.77,-1320 230.04,-1320"/>
<text text-anchor="start" x="237.04" y="-1332.2" font-family="Arial" font-size="14.00">coordinator_profile_id </text>
<text text-anchor="start" x="375.57" y="-1332.2" font-family="Arial" font-size="14.00" fill="#666666">[uuid]</text>
<polygon fill="none" stroke="black" points="230.04,-1289.2 230.04,-1320 574.77,-1320 574.77,-1289.2 230.04,-1289.2"/>
<text text-anchor="start" x="237.04" y="-1301.4" font-family="Arial" font-size="14.00">student_profile_id </text>
<text text-anchor="start" x="351.45" y="-1301.4" font-family="Arial" font-size="14.00" fill="#666666">[uuid]</text>
<polygon fill="none" stroke="black" points="230.04,-1258.4 230.04,-1289.2 574.77,-1289.2 574.77,-1258.4 230.04,-1258.4"/>
<text text-anchor="start" x="237.04" y="-1270.6" font-family="Arial" font-size="14.00">institution_id </text>
<text text-anchor="start" x="318.76" y="-1270.6" font-family="Arial" font-size="14.00" fill="#666666">[bigint]</text>
<polygon fill="none" stroke="black" points="230.04,-1227.6 230.04,-1258.4 574.77,-1258.4 574.77,-1227.6 230.04,-1227.6"/>
<text text-anchor="start" x="237.04" y="-1239.8" font-family="Arial" font-size="14.00">title </text>
<text text-anchor="start" x="262.72" y="-1239.8" font-family="Arial" font-size="14.00" fill="#666666">[text]</text>
<polygon fill="none" stroke="black" points="230.04,-1196.8 230.04,-1227.6 574.77,-1227.6 574.77,-1196.8 230.04,-1196.8"/>
<text text-anchor="start" x="237.04" y="-1209" font-family="Arial" font-size="14.00">abstract </text>
<text text-anchor="start" x="290.73" y="-1209" font-family="Arial" font-size="14.00" fill="#666666">[text]</text>
<polygon fill="none" stroke="black" points="230.04,-1166 230.04,-1196.8 574.77,-1196.8 574.77,-1166 230.04,-1166"/>
<text text-anchor="start" x="237.04" y="-1178.2" font-family="Arial" font-size="14.00">pre_project_document_id </text>
<text text-anchor="start" x="398.92" y="-1178.2" font-family="Arial" font-size="14.00" fill="#666666">[bigint]</text>
<polygon fill="none" stroke="black" points="230.04,-1135.2 230.04,-1166 574.77,-1166 574.77,-1135.2 230.04,-1135.2"/>
<text text-anchor="start" x="237.04" y="-1147.4" font-family="Arial" font-size="14.00">pre_project_observations </text>
<text text-anchor="start" x="398.14" y="-1147.4" font-family="Arial" font-size="14.00" fill="#666666">[text]</text>
<polygon fill="none" stroke="black" points="230.04,-1104.4 230.04,-1135.2 574.77,-1135.2 574.77,-1104.4 230.04,-1104.4"/>
<text text-anchor="start" x="237.04" y="-1116.6" font-family="Arial" font-size="14.00">pre_project_approved_at </text>
<text text-anchor="start" x="396.6" y="-1116.6" font-family="Arial" font-size="14.00" fill="#666666">[timestamp with time zone]</text>
<polygon fill="none" stroke="black" points="230.04,-1073.6 230.04,-1104.4 574.77,-1104.4 574.77,-1073.6 230.04,-1073.6"/>
<text text-anchor="start" x="237.04" y="-1085.8" font-family="Arial" font-size="14.00">project_document_id </text>
<text text-anchor="start" x="370.9" y="-1085.8" font-family="Arial" font-size="14.00" fill="#666666">[bigint]</text>
<polygon fill="none" stroke="black" points="230.04,-1042.8 230.04,-1073.6 574.77,-1073.6 574.77,-1042.8 230.04,-1042.8"/>
<text text-anchor="start" x="237.04" y="-1055" font-family="Arial" font-size="14.00">project_observations </text>
<text text-anchor="start" x="370.12" y="-1055" font-family="Arial" font-size="14.00" fill="#666666">[text]</text>
<polygon fill="none" stroke="black" points="230.04,-1012 230.04,-1042.8 574.77,-1042.8 574.77,-1012 230.04,-1012"/>
<text text-anchor="start" x="237.04" y="-1024.2" font-family="Arial" font-size="14.00">project_received_at </text>
<text text-anchor="start" x="363.12" y="-1024.2" font-family="Arial" font-size="14.00" fill="#666666">[timestamp with time zone]</text>
<polygon fill="none" stroke="black" points="230.04,-981.2 230.04,-1012 574.77,-1012 574.77,-981.2 230.04,-981.2"/>
<text text-anchor="start" x="237.04" y="-993.4" font-family="Arial" font-size="14.00">final_project_approved_at </text>
<text text-anchor="start" x="402.05" y="-993.4" font-family="Arial" font-size="14.00" fill="#666666">[timestamp with time zone]</text>
</g>
<!-- public.projects&#45;&gt;public.institutions -->
<g id="edge1" class="edge">
<title>public.projects:institution_id&#45;&gt;public.institutions:id</title>
<path fill="none" stroke="black" d="M586.05,-1273.49C838.47,-1258.29 797.68,-681.6 537.4,-681.6"/>
<polygon fill="black" stroke="black" points="586.1,-1273.49 575.97,-1269.29 580.77,-1273.65 576.44,-1273.78 576.44,-1273.78 576.44,-1273.78 580.77,-1273.65 576.24,-1278.29 586.1,-1273.49"/>
<text text-anchor="start" x="582.77" y="-1283.8" font-family="Arial" font-size="10.00">FOREIGN KEY (institution_id) REFERENCES institutions(id)</text>
</g>
</g>
</svg>
