<?xml version="1.0" encoding="UTF-8" standalone="no"?>
<!DOCTYPE svg PUBLIC "-//W3C//DTD SVG 1.1//EN"
 "http://www.w3.org/Graphics/SVG/1.1/DTD/svg11.dtd">
<!-- Generated by graphviz version 12.1.2 (20240928.0832)
 -->
<!-- Title: public.schools Pages: 1 -->
<svg width="801pt" height="1407pt"
 viewBox="0.00 0.00 801.26 1406.80" xmlns="http://www.w3.org/2000/svg" xmlns:xlink="http://www.w3.org/1999/xlink">
<g id="graph0" class="graph" transform="scale(1 1) rotate(0) translate(4 1402.8)">
<title>public.schools</title>
<polygon fill="white" stroke="none" points="-4,4 -4,-1402.8 797.26,-1402.8 797.26,4 -4,4"/>
<!-- public.schools -->
<g id="node1" class="node">
<title>public.schools</title>
<polygon fill="#efefef" stroke="none" points="260.06,-820.2 260.06,-855.8 513.74,-855.8 513.74,-820.2 260.06,-820.2"/>
<polygon fill="none" stroke="black" points="260.06,-820.2 260.06,-855.8 513.74,-855.8 513.74,-820.2 260.06,-820.2"/>
<text text-anchor="start" x="272.91" y="-833.6" font-family="Arial Bold" font-size="18.00">public.schools</text>
<text text-anchor="start" x="376.4" y="-833.6" font-family="Arial" font-size="14.00">    </text>
<text text-anchor="start" x="407.52" y="-833.6" font-family="Arial" font-size="14.00" fill="#666666">[BASE TABLE]</text>
<polygon fill="none" stroke="black" points="260.06,-789.4 260.06,-820.2 513.74,-820.2 513.74,-789.4 260.06,-789.4"/>
<text text-anchor="start" x="267.06" y="-801.6" font-family="Arial" font-size="14.00">created_at </text>
<text text-anchor="start" x="337.11" y="-801.6" font-family="Arial" font-size="14.00" fill="#666666">[timestamp with time zone]</text>
<polygon fill="none" stroke="black" points="260.06,-758.6 260.06,-789.4 513.74,-789.4 513.74,-758.6 260.06,-758.6"/>
<text text-anchor="start" x="267.06" y="-770.8" font-family="Arial" font-size="14.00">created_by </text>
<text text-anchor="start" x="340.22" y="-770.8" font-family="Arial" font-size="14.00" fill="#666666">[uuid]</text>
<polygon fill="none" stroke="black" points="260.06,-727.8 260.06,-758.6 513.74,-758.6 513.74,-727.8 260.06,-727.8"/>
<text text-anchor="start" x="267.06" y="-740" font-family="Arial" font-size="14.00">updated_at </text>
<text text-anchor="start" x="341.02" y="-740" font-family="Arial" font-size="14.00" fill="#666666">[timestamp with time zone]</text>
<polygon fill="none" stroke="black" points="260.06,-697 260.06,-727.8 513.74,-727.8 513.74,-697 260.06,-697"/>
<text text-anchor="start" x="267.06" y="-709.2" font-family="Arial" font-size="14.00">updated_by </text>
<text text-anchor="start" x="344.13" y="-709.2" font-family="Arial" font-size="14.00" fill="#666666">[uuid]</text>
<polygon fill="none" stroke="black" points="260.06,-666.2 260.06,-697 513.74,-697 513.74,-666.2 260.06,-666.2"/>
<text text-anchor="start" x="267.06" y="-678.4" font-family="Arial" font-size="14.00">id </text>
<text text-anchor="start" x="281.84" y="-678.4" font-family="Arial" font-size="14.00" fill="#666666">[bigint]</text>
<polygon fill="none" stroke="black" points="260.06,-635.4 260.06,-666.2 513.74,-666.2 513.74,-635.4 260.06,-635.4"/>
<text text-anchor="start" x="267.06" y="-647.6" font-family="Arial" font-size="14.00">faculty_id </text>
<text text-anchor="start" x="330.09" y="-647.6" font-family="Arial" font-size="14.00" fill="#666666">[bigint]</text>
<polygon fill="none" stroke="black" points="260.06,-604.6 260.06,-635.4 513.74,-635.4 513.74,-604.6 260.06,-604.6"/>
<text text-anchor="start" x="267.06" y="-616.8" font-family="Arial" font-size="14.00">school_name </text>
<text text-anchor="start" x="354.22" y="-616.8" font-family="Arial" font-size="14.00" fill="#666666">[text]</text>
<polygon fill="none" stroke="black" points="260.06,-573.8 260.06,-604.6 513.74,-604.6 513.74,-573.8 260.06,-573.8"/>
<text text-anchor="start" x="267.06" y="-586" font-family="Arial" font-size="14.00">tutor_profile_id </text>
<text text-anchor="start" x="363.56" y="-586" font-family="Arial" font-size="14.00" fill="#666666">[uuid]</text>
<polygon fill="none" stroke="black" stroke-width="3" points="258.56,-572.3 258.56,-857.3 515.24,-857.3 515.24,-572.3 258.56,-572.3"/>
</g>
<!-- public.faculties -->
<g id="node3" class="node">
<title>public.faculties</title>
<polygon fill="#efefef" stroke="none" points="81.06,-366.6 81.06,-402.2 334.74,-402.2 334.74,-366.6 81.06,-366.6"/>
<polygon fill="none" stroke="black" points="81.06,-366.6 81.06,-402.2 334.74,-402.2 334.74,-366.6 81.06,-366.6"/>
<text text-anchor="start" x="90.42" y="-380" font-family="Arial Bold" font-size="18.00">public.faculties</text>
<text text-anchor="start" x="200.89" y="-380" font-family="Arial" font-size="14.00">    </text>
<text text-anchor="start" x="232" y="-380" font-family="Arial" font-size="14.00" fill="#666666">[BASE TABLE]</text>
<polygon fill="none" stroke="black" points="81.06,-335.8 81.06,-366.6 334.74,-366.6 334.74,-335.8 81.06,-335.8"/>
<text text-anchor="start" x="88.06" y="-348" font-family="Arial" font-size="14.00">created_at </text>
<text text-anchor="start" x="158.11" y="-348" font-family="Arial" font-size="14.00" fill="#666666">[timestamp with time zone]</text>
<polygon fill="none" stroke="black" points="81.06,-305 81.06,-335.8 334.74,-335.8 334.74,-305 81.06,-305"/>
<text text-anchor="start" x="88.06" y="-317.2" font-family="Arial" font-size="14.00">created_by </text>
<text text-anchor="start" x="161.22" y="-317.2" font-family="Arial" font-size="14.00" fill="#666666">[uuid]</text>
<polygon fill="none" stroke="black" points="81.06,-274.2 81.06,-305 334.74,-305 334.74,-274.2 81.06,-274.2"/>
<text text-anchor="start" x="88.06" y="-286.4" font-family="Arial" font-size="14.00">updated_at </text>
<text text-anchor="start" x="162.02" y="-286.4" font-family="Arial" font-size="14.00" fill="#666666">[timestamp with time zone]</text>
<polygon fill="none" stroke="black" points="81.06,-243.4 81.06,-274.2 334.74,-274.2 334.74,-243.4 81.06,-243.4"/>
<text text-anchor="start" x="88.06" y="-255.6" font-family="Arial" font-size="14.00">updated_by </text>
<text text-anchor="start" x="165.13" y="-255.6" font-family="Arial" font-size="14.00" fill="#666666">[uuid]</text>
<polygon fill="none" stroke="black" points="81.06,-212.6 81.06,-243.4 334.74,-243.4 334.74,-212.6 81.06,-212.6"/>
<text text-anchor="start" x="88.06" y="-224.8" font-family="Arial" font-size="14.00">id </text>
<text text-anchor="start" x="102.84" y="-224.8" font-family="Arial" font-size="14.00" fill="#666666">[bigint]</text>
<polygon fill="none" stroke="black" points="81.06,-181.8 81.06,-212.6 334.74,-212.6 334.74,-181.8 81.06,-181.8"/>
<text text-anchor="start" x="88.06" y="-194" font-family="Arial" font-size="14.00">campus_id </text>
<text text-anchor="start" x="159.65" y="-194" font-family="Arial" font-size="14.00" fill="#666666">[bigint]</text>
<polygon fill="none" stroke="black" points="81.06,-151 81.06,-181.8 334.74,-181.8 334.74,-151 81.06,-151"/>
<text text-anchor="start" x="88.06" y="-163.2" font-family="Arial" font-size="14.00">faculty_name </text>
<text text-anchor="start" x="175.22" y="-163.2" font-family="Arial" font-size="14.00" fill="#666666">[text]</text>
<polygon fill="none" stroke="black" points="81.06,-120.2 81.06,-151 334.74,-151 334.74,-120.2 81.06,-120.2"/>
<text text-anchor="start" x="88.06" y="-132.4" font-family="Arial" font-size="14.00">dean_profile_id </text>
<text text-anchor="start" x="187.69" y="-132.4" font-family="Arial" font-size="14.00" fill="#666666">[uuid]</text>
<polygon fill="none" stroke="black" points="81.06,-89.4 81.06,-120.2 334.74,-120.2 334.74,-89.4 81.06,-89.4"/>
<text text-anchor="start" x="88.06" y="-101.6" font-family="Arial" font-size="14.00">coordinator_profile_id </text>
<text text-anchor="start" x="226.59" y="-101.6" font-family="Arial" font-size="14.00" fill="#666666">[uuid]</text>
</g>
<!-- public.schools&#45;&gt;public.faculties -->
<g id="edge2" class="edge">
<title>public.schools:faculty_id&#45;&gt;public.faculties:id</title>
<path fill="none" stroke="black" d="M248.81,-649.76C209.26,-640.75 241.52,-575.01 260.06,-527.6 278.04,-481.63 316.84,-491.4 334.74,-445.4 352.26,-400.38 384.05,-228 335.74,-228"/>
<polygon fill="black" stroke="black" points="248.78,-649.76 258.27,-655.24 254.08,-650.3 258.39,-650.73 258.39,-650.73 258.39,-650.73 254.08,-650.3 259.18,-646.29 248.78,-649.76"/>
<text text-anchor="start" x="7" y="-660.8" font-family="Arial" font-size="10.00">FOREIGN KEY (faculty_id) REFERENCES faculties(id)</text>
</g>
<!-- public.profiles -->
<g id="node4" class="node">
<title>public.profiles</title>
<polygon fill="#efefef" stroke="none" points="439.06,-412.8 439.06,-448.4 692.74,-448.4 692.74,-412.8 439.06,-412.8"/>
<polygon fill="none" stroke="black" points="439.06,-412.8 439.06,-448.4 692.74,-448.4 692.74,-412.8 439.06,-412.8"/>
<text text-anchor="start" x="451.42" y="-426.2" font-family="Arial Bold" font-size="18.00">public.profiles</text>
<text text-anchor="start" x="555.89" y="-426.2" font-family="Arial" font-size="14.00">    </text>
<text text-anchor="start" x="587.01" y="-426.2" font-family="Arial" font-size="14.00" fill="#666666">[BASE TABLE]</text>
<polygon fill="none" stroke="black" points="439.06,-382 439.06,-412.8 692.74,-412.8 692.74,-382 439.06,-382"/>
<text text-anchor="start" x="446.06" y="-394.2" font-family="Arial" font-size="14.00">created_at </text>
<text text-anchor="start" x="516.11" y="-394.2" font-family="Arial" font-size="14.00" fill="#666666">[timestamp with time zone]</text>
<polygon fill="none" stroke="black" points="439.06,-351.2 439.06,-382 692.74,-382 692.74,-351.2 439.06,-351.2"/>
<text text-anchor="start" x="446.06" y="-363.4" font-family="Arial" font-size="14.00">created_by </text>
<text text-anchor="start" x="519.22" y="-363.4" font-family="Arial" font-size="14.00" fill="#666666">[uuid]</text>
<polygon fill="none" stroke="black" points="439.06,-320.4 439.06,-351.2 692.74,-351.2 692.74,-320.4 439.06,-320.4"/>
<text text-anchor="start" x="446.06" y="-332.6" font-family="Arial" font-size="14.00">updated_at </text>
<text text-anchor="start" x="520.02" y="-332.6" font-family="Arial" font-size="14.00" fill="#666666">[timestamp with time zone]</text>
<polygon fill="none" stroke="black" points="439.06,-289.6 439.06,-320.4 692.74,-320.4 692.74,-289.6 439.06,-289.6"/>
<text text-anchor="start" x="446.06" y="-301.8" font-family="Arial" font-size="14.00">updated_by </text>
<text text-anchor="start" x="523.13" y="-301.8" font-family="Arial" font-size="14.00" fill="#666666">[uuid]</text>
<polygon fill="none" stroke="black" points="439.06,-258.8 439.06,-289.6 692.74,-289.6 692.74,-258.8 439.06,-258.8"/>
<text text-anchor="start" x="446.06" y="-271" font-family="Arial" font-size="14.00">id </text>
<text text-anchor="start" x="460.84" y="-271" font-family="Arial" font-size="14.00" fill="#666666">[uuid]</text>
<polygon fill="none" stroke="black" points="439.06,-228 439.06,-258.8 692.74,-258.8 692.74,-228 439.06,-228"/>
<text text-anchor="start" x="446.06" y="-240.2" font-family="Arial" font-size="14.00">first_name </text>
<text text-anchor="start" x="515.31" y="-240.2" font-family="Arial" font-size="14.00" fill="#666666">[text]</text>
<polygon fill="none" stroke="black" points="439.06,-197.2 439.06,-228 692.74,-228 692.74,-197.2 439.06,-197.2"/>
<text text-anchor="start" x="446.06" y="-209.4" font-family="Arial" font-size="14.00">last_name </text>
<text text-anchor="start" x="514.54" y="-209.4" font-family="Arial" font-size="14.00" fill="#666666">[text]</text>
<polygon fill="none" stroke="black" points="439.06,-166.4 439.06,-197.2 692.74,-197.2 692.74,-166.4 439.06,-166.4"/>
<text text-anchor="start" x="446.06" y="-178.6" font-family="Arial" font-size="14.00">national_id </text>
<text text-anchor="start" x="517.67" y="-178.6" font-family="Arial" font-size="14.00" fill="#666666">[text]</text>
<polygon fill="none" stroke="black" points="439.06,-135.6 439.06,-166.4 692.74,-166.4 692.74,-135.6 439.06,-135.6"/>
<text text-anchor="start" x="446.06" y="-147.8" font-family="Arial" font-size="14.00">email </text>
<text text-anchor="start" x="483.4" y="-147.8" font-family="Arial" font-size="14.00" fill="#666666">[text]</text>
<polygon fill="none" stroke="black" points="439.06,-104.8 439.06,-135.6 692.74,-135.6 692.74,-104.8 439.06,-104.8"/>
<text text-anchor="start" x="446.06" y="-117" font-family="Arial" font-size="14.00">primary_contact </text>
<text text-anchor="start" x="549.54" y="-117" font-family="Arial" font-size="14.00" fill="#666666">[text]</text>
<polygon fill="none" stroke="black" points="439.06,-74 439.06,-104.8 692.74,-104.8 692.74,-74 439.06,-74"/>
<text text-anchor="start" x="446.06" y="-86.2" font-family="Arial" font-size="14.00">secondary_contact </text>
<text text-anchor="start" x="567.46" y="-86.2" font-family="Arial" font-size="14.00" fill="#666666">[text]</text>
<polygon fill="none" stroke="black" points="439.06,-43.2 439.06,-74 692.74,-74 692.74,-43.2 439.06,-43.2"/>
<text text-anchor="start" x="446.06" y="-55.4" font-family="Arial" font-size="14.00">role_id </text>
<text text-anchor="start" x="491.98" y="-55.4" font-family="Arial" font-size="14.00" fill="#666666">[bigint]</text>
</g>
<!-- public.schools&#45;&gt;public.profiles -->
<g id="edge3" class="edge">
<title>public.schools:tutor_profile_id&#45;&gt;public.profiles:id</title>
<path fill="none" stroke="black" d="M524.72,-586.58C537.83,-577.54 526.19,-547.06 513.74,-527.6 493.89,-496.56 458.73,-522.76 439.06,-491.6 413.27,-450.75 389.75,-274.2 438.06,-274.2"/>
<polygon fill="black" stroke="black" points="524.74,-586.58 513.92,-584.76 519.58,-587.93 515.39,-589.03 515.39,-589.03 515.39,-589.03 519.58,-587.93 516.2,-593.47 524.74,-586.58"/>
<text text-anchor="start" x="521.74" y="-599.2" font-family="Arial" font-size="10.00">FOREIGN KEY (tutor_profile_id) REFERENCES profiles(id)</text>
</g>
<!-- public.students -->
<g id="node2" class="node">
<title>public.students</title>
<polygon fill="#efefef" stroke="none" points="260.06,-1320 260.06,-1355.6 513.74,-1355.6 513.74,-1320 260.06,-1320"/>
<polygon fill="none" stroke="black" points="260.06,-1320 260.06,-1355.6 513.74,-1355.6 513.74,-1320 260.06,-1320"/>
<text text-anchor="start" x="270.41" y="-1333.4" font-family="Arial Bold" font-size="18.00">public.students</text>
<text text-anchor="start" x="378.9" y="-1333.4" font-family="Arial" font-size="14.00">    </text>
<text text-anchor="start" x="410.02" y="-1333.4" font-family="Arial" font-size="14.00" fill="#666666">[BASE TABLE]</text>
<polygon fill="none" stroke="black" points="260.06,-1289.2 260.06,-1320 513.74,-1320 513.74,-1289.2 260.06,-1289.2"/>
<text text-anchor="start" x="267.06" y="-1301.4" font-family="Arial" font-size="14.00">created_at </text>
<text text-anchor="start" x="337.11" y="-1301.4" font-family="Arial" font-size="14.00" fill="#666666">[timestamp with time zone]</text>
<polygon fill="none" stroke="black" points="260.06,-1258.4 260.06,-1289.2 513.74,-1289.2 513.74,-1258.4 260.06,-1258.4"/>
<text text-anchor="start" x="267.06" y="-1270.6" font-family="Arial" font-size="14.00">created_by </text>
<text text-anchor="start" x="340.22" y="-1270.6" font-family="Arial" font-size="14.00" fill="#666666">[uuid]</text>
<polygon fill="none" stroke="black" points="260.06,-1227.6 260.06,-1258.4 513.74,-1258.4 513.74,-1227.6 260.06,-1227.6"/>
<text text-anchor="start" x="267.06" y="-1239.8" font-family="Arial" font-size="14.00">updated_at </text>
<text text-anchor="start" x="341.02" y="-1239.8" font-family="Arial" font-size="14.00" fill="#666666">[timestamp with time zone]</text>
<polygon fill="none" stroke="black" points="260.06,-1196.8 260.06,-1227.6 513.74,-1227.6 513.74,-1196.8 260.06,-1196.8"/>
<text text-anchor="start" x="267.06" y="-1209" font-family="Arial" font-size="14.00">updated_by </text>
<text text-anchor="start" x="344.13" y="-1209" font-family="Arial" font-size="14.00" fill="#666666">[uuid]</text>
<polygon fill="none" stroke="black" points="260.06,-1166 260.06,-1196.8 513.74,-1196.8 513.74,-1166 260.06,-1166"/>
<text text-anchor="start" x="267.06" y="-1178.2" font-family="Arial" font-size="14.00">id </text>
<text text-anchor="start" x="281.84" y="-1178.2" font-family="Arial" font-size="14.00" fill="#666666">[bigint]</text>
<polygon fill="none" stroke="black" points="260.06,-1135.2 260.06,-1166 513.74,-1166 513.74,-1135.2 260.06,-1135.2"/>
<text text-anchor="start" x="267.06" y="-1147.4" font-family="Arial" font-size="14.00">profile_id </text>
<text text-anchor="start" x="327.76" y="-1147.4" font-family="Arial" font-size="14.00" fill="#666666">[uuid]</text>
<polygon fill="none" stroke="black" points="260.06,-1104.4 260.06,-1135.2 513.74,-1135.2 513.74,-1104.4 260.06,-1104.4"/>
<text text-anchor="start" x="267.06" y="-1116.6" font-family="Arial" font-size="14.00">faculty_id </text>
<text text-anchor="start" x="330.09" y="-1116.6" font-family="Arial" font-size="14.00" fill="#666666">[bigint]</text>
<polygon fill="none" stroke="black" points="260.06,-1073.6 260.06,-1104.4 513.74,-1104.4 513.74,-1073.6 260.06,-1073.6"/>
<text text-anchor="start" x="267.06" y="-1085.8" font-family="Arial" font-size="14.00">school_id </text>
<text text-anchor="start" x="330.1" y="-1085.8" font-family="Arial" font-size="14.00" fill="#666666">[bigint]</text>
<polygon fill="none" stroke="black" points="260.06,-1042.8 260.06,-1073.6 513.74,-1073.6 513.74,-1042.8 260.06,-1042.8"/>
<text text-anchor="start" x="267.06" y="-1055" font-family="Arial" font-size="14.00">semester </text>
<text text-anchor="start" x="328.52" y="-1055" font-family="Arial" font-size="14.00" fill="#666666">[semester_enum]</text>
<polygon fill="none" stroke="black" points="260.06,-1012 260.06,-1042.8 513.74,-1042.8 513.74,-1012 260.06,-1012"/>
<text text-anchor="start" x="267.06" y="-1024.2" font-family="Arial" font-size="14.00">shift </text>
<text text-anchor="start" x="296.62" y="-1024.2" font-family="Arial" font-size="14.00" fill="#666666">[shift_enum]</text>
<polygon fill="none" stroke="black" points="260.06,-981.2 260.06,-1012 513.74,-1012 513.74,-981.2 260.06,-981.2"/>
<text text-anchor="start" x="267.06" y="-993.4" font-family="Arial" font-size="14.00">section </text>
<text text-anchor="start" x="315.31" y="-993.4" font-family="Arial" font-size="14.00" fill="#666666">[section_enum]</text>
</g>
<!-- public.students&#45;&gt;public.schools -->
<g id="edge1" class="edge">
<title>public.students:school_id&#45;&gt;public.schools:id</title>
<path fill="none" stroke="black" d="M525.14,-1088.54C695.74,-1073.24 692.27,-681.6 514.74,-681.6"/>
<polygon fill="black" stroke="black" points="525.06,-1088.54 514.88,-1084.49 519.74,-1088.78 515.41,-1088.97 515.41,-1088.97 515.41,-1088.97 519.74,-1088.78 515.27,-1093.48 525.06,-1088.54"/>
<text text-anchor="start" x="521.74" y="-1099" font-family="Arial" font-size="10.00">FOREIGN KEY (school_id) REFERENCES schools(id)</text>
</g>
</g>
</svg>
