<?xml version="1.0" encoding="UTF-8" standalone="no"?>
<!DOCTYPE svg PUBLIC "-//W3C//DTD SVG 1.1//EN"
 "http://www.w3.org/Graphics/SVG/1.1/DTD/svg11.dtd">
<!-- Generated by graphviz version 12.1.2 (20240928.0832)
 -->
<!-- Title: public.countries Pages: 1 -->
<svg width="576pt" height="694pt"
 viewBox="0.00 0.00 575.86 694.40" xmlns="http://www.w3.org/2000/svg" xmlns:xlink="http://www.w3.org/1999/xlink">
<g id="graph0" class="graph" transform="scale(1 1) rotate(0) translate(4 690.4)">
<title>public.countries</title>
<polygon fill="white" stroke="none" points="-4,4 -4,-690.4 571.86,-690.4 571.86,4 -4,4"/>
<!-- public.countries -->
<g id="node1" class="node">
<title>public.countries</title>
<polygon fill="#efefef" stroke="none" points="46.2,-231 46.2,-266.6 300.16,-266.6 300.16,-231 46.2,-231"/>
<polygon fill="none" stroke="black" points="46.2,-231 46.2,-266.6 300.16,-266.6 300.16,-231 46.2,-231"/>
<text text-anchor="start" x="53.2" y="-244.4" font-family="Arial Bold" font-size="18.00">public.countries</text>
<text text-anchor="start" x="168.67" y="-244.4" font-family="Arial" font-size="14.00">    </text>
<text text-anchor="start" x="199.79" y="-244.4" font-family="Arial" font-size="14.00" fill="#666666">[BASE TABLE]</text>
<polygon fill="none" stroke="black" points="46.2,-200.2 46.2,-231 300.16,-231 300.16,-200.2 46.2,-200.2"/>
<text text-anchor="start" x="53.2" y="-212.4" font-family="Arial" font-size="14.00">created_at </text>
<text text-anchor="start" x="123.25" y="-212.4" font-family="Arial" font-size="14.00" fill="#666666">[timestamp with time zone]</text>
<polygon fill="none" stroke="black" points="46.2,-169.4 46.2,-200.2 300.16,-200.2 300.16,-169.4 46.2,-169.4"/>
<text text-anchor="start" x="53.2" y="-181.6" font-family="Arial" font-size="14.00">created_by </text>
<text text-anchor="start" x="126.36" y="-181.6" font-family="Arial" font-size="14.00" fill="#666666">[uuid]</text>
<polygon fill="none" stroke="black" points="46.2,-138.6 46.2,-169.4 300.16,-169.4 300.16,-138.6 46.2,-138.6"/>
<text text-anchor="start" x="53.2" y="-150.8" font-family="Arial" font-size="14.00">updated_at </text>
<text text-anchor="start" x="127.16" y="-150.8" font-family="Arial" font-size="14.00" fill="#666666">[timestamp with time zone]</text>
<polygon fill="none" stroke="black" points="46.2,-107.8 46.2,-138.6 300.16,-138.6 300.16,-107.8 46.2,-107.8"/>
<text text-anchor="start" x="53.2" y="-120" font-family="Arial" font-size="14.00">updated_by </text>
<text text-anchor="start" x="130.27" y="-120" font-family="Arial" font-size="14.00" fill="#666666">[uuid]</text>
<polygon fill="none" stroke="black" points="46.2,-77 46.2,-107.8 300.16,-107.8 300.16,-77 46.2,-77"/>
<text text-anchor="start" x="53.2" y="-89.2" font-family="Arial" font-size="14.00">id </text>
<text text-anchor="start" x="67.99" y="-89.2" font-family="Arial" font-size="14.00" fill="#666666">[bigint]</text>
<polygon fill="none" stroke="black" points="46.2,-46.2 46.2,-77 300.16,-77 300.16,-46.2 46.2,-46.2"/>
<text text-anchor="start" x="53.2" y="-58.4" font-family="Arial" font-size="14.00">country_name </text>
<text text-anchor="start" x="145.81" y="-58.4" font-family="Arial" font-size="14.00" fill="#666666">[text]</text>
<polygon fill="none" stroke="black" stroke-width="3" points="44.7,-44.7 44.7,-268.1 301.66,-268.1 301.66,-44.7 44.7,-44.7"/>
</g>
<!-- public.states -->
<g id="node2" class="node">
<title>public.states</title>
<polygon fill="#efefef" stroke="none" points="46.34,-607.6 46.34,-643.2 300.02,-643.2 300.02,-607.6 46.34,-607.6"/>
<polygon fill="none" stroke="black" points="46.34,-607.6 46.34,-643.2 300.02,-643.2 300.02,-607.6 46.34,-607.6"/>
<text text-anchor="start" x="66.19" y="-621" font-family="Arial Bold" font-size="18.00">public.states</text>
<text text-anchor="start" x="155.68" y="-621" font-family="Arial" font-size="14.00">    </text>
<text text-anchor="start" x="186.79" y="-621" font-family="Arial" font-size="14.00" fill="#666666">[BASE TABLE]</text>
<polygon fill="none" stroke="black" points="46.34,-576.8 46.34,-607.6 300.02,-607.6 300.02,-576.8 46.34,-576.8"/>
<text text-anchor="start" x="53.34" y="-589" font-family="Arial" font-size="14.00">created_at </text>
<text text-anchor="start" x="123.39" y="-589" font-family="Arial" font-size="14.00" fill="#666666">[timestamp with time zone]</text>
<polygon fill="none" stroke="black" points="46.34,-546 46.34,-576.8 300.02,-576.8 300.02,-546 46.34,-546"/>
<text text-anchor="start" x="53.34" y="-558.2" font-family="Arial" font-size="14.00">created_by </text>
<text text-anchor="start" x="126.5" y="-558.2" font-family="Arial" font-size="14.00" fill="#666666">[uuid]</text>
<polygon fill="none" stroke="black" points="46.34,-515.2 46.34,-546 300.02,-546 300.02,-515.2 46.34,-515.2"/>
<text text-anchor="start" x="53.34" y="-527.4" font-family="Arial" font-size="14.00">updated_at </text>
<text text-anchor="start" x="127.3" y="-527.4" font-family="Arial" font-size="14.00" fill="#666666">[timestamp with time zone]</text>
<polygon fill="none" stroke="black" points="46.34,-484.4 46.34,-515.2 300.02,-515.2 300.02,-484.4 46.34,-484.4"/>
<text text-anchor="start" x="53.34" y="-496.6" font-family="Arial" font-size="14.00">updated_by </text>
<text text-anchor="start" x="130.41" y="-496.6" font-family="Arial" font-size="14.00" fill="#666666">[uuid]</text>
<polygon fill="none" stroke="black" points="46.34,-453.6 46.34,-484.4 300.02,-484.4 300.02,-453.6 46.34,-453.6"/>
<text text-anchor="start" x="53.34" y="-465.8" font-family="Arial" font-size="14.00">id </text>
<text text-anchor="start" x="68.13" y="-465.8" font-family="Arial" font-size="14.00" fill="#666666">[bigint]</text>
<polygon fill="none" stroke="black" points="46.34,-422.8 46.34,-453.6 300.02,-453.6 300.02,-422.8 46.34,-422.8"/>
<text text-anchor="start" x="53.34" y="-435" font-family="Arial" font-size="14.00">country_id </text>
<text text-anchor="start" x="121.82" y="-435" font-family="Arial" font-size="14.00" fill="#666666">[bigint]</text>
<polygon fill="none" stroke="black" points="46.34,-392 46.34,-422.8 300.02,-422.8 300.02,-392 46.34,-392"/>
<text text-anchor="start" x="53.34" y="-404.2" font-family="Arial" font-size="14.00">state_name </text>
<text text-anchor="start" x="130.39" y="-404.2" font-family="Arial" font-size="14.00" fill="#666666">[text]</text>
</g>
<!-- public.states&#45;&gt;public.countries -->
<g id="edge1" class="edge">
<title>public.states:country_id&#45;&gt;public.countries:id</title>
<path fill="none" stroke="black" d="M310.91,-436.17C377.72,-407.83 374.55,-92.4 301.16,-92.4"/>
<polygon fill="black" stroke="black" points="311.14,-436.12 300.44,-433.72 305.92,-437.19 301.68,-438.07 301.68,-438.07 301.68,-438.07 305.92,-437.19 302.25,-442.54 311.14,-436.12"/>
<text text-anchor="start" x="308.02" y="-448.2" font-family="Arial" font-size="10.00">FOREIGN KEY (country_id) REFERENCES countries(id)</text>
</g>
</g>
</svg>
