<?xml version="1.0" encoding="UTF-8" standalone="no"?>
<!DOCTYPE svg PUBLIC "-//W3C//DTD SVG 1.1//EN"
 "http://www.w3.org/Graphics/SVG/1.1/DTD/svg11.dtd">
<!-- Generated by graphviz version 12.1.2 (20240928.0832)
 -->
<!-- Title: public.invitations Pages: 1 -->
<svg width="809pt" height="972pt"
 viewBox="0.00 0.00 809.34 971.60" xmlns="http://www.w3.org/2000/svg" xmlns:xlink="http://www.w3.org/1999/xlink">
<g id="graph0" class="graph" transform="scale(1 1) rotate(0) translate(4 967.6)">
<title>public.invitations</title>
<polygon fill="white" stroke="none" points="-4,4 -4,-967.6 805.34,-967.6 805.34,4 -4,4"/>
<!-- public.invitations -->
<g id="node1" class="node">
<title>public.invitations</title>
<polygon fill="#efefef" stroke="none" points="304.54,-881.8 304.54,-917.4 568.52,-917.4 568.52,-881.8 304.54,-881.8"/>
<polygon fill="none" stroke="black" points="304.54,-881.8 304.54,-917.4 568.52,-917.4 568.52,-881.8 304.54,-881.8"/>
<text text-anchor="start" x="311.54" y="-895.2" font-family="Arial Bold" font-size="18.00">public.invitations</text>
<text text-anchor="start" x="437.03" y="-895.2" font-family="Arial" font-size="14.00">    </text>
<text text-anchor="start" x="468.14" y="-895.2" font-family="Arial" font-size="14.00" fill="#666666">[BASE TABLE]</text>
<polygon fill="none" stroke="black" points="304.54,-851 304.54,-881.8 568.52,-881.8 568.52,-851 304.54,-851"/>
<text text-anchor="start" x="311.54" y="-863.2" font-family="Arial" font-size="14.00">created_at </text>
<text text-anchor="start" x="381.58" y="-863.2" font-family="Arial" font-size="14.00" fill="#666666">[timestamp with time zone]</text>
<polygon fill="none" stroke="black" points="304.54,-820.2 304.54,-851 568.52,-851 568.52,-820.2 304.54,-820.2"/>
<text text-anchor="start" x="311.54" y="-832.4" font-family="Arial" font-size="14.00">created_by </text>
<text text-anchor="start" x="384.69" y="-832.4" font-family="Arial" font-size="14.00" fill="#666666">[uuid]</text>
<polygon fill="none" stroke="black" points="304.54,-789.4 304.54,-820.2 568.52,-820.2 568.52,-789.4 304.54,-789.4"/>
<text text-anchor="start" x="311.54" y="-801.6" font-family="Arial" font-size="14.00">updated_at </text>
<text text-anchor="start" x="385.49" y="-801.6" font-family="Arial" font-size="14.00" fill="#666666">[timestamp with time zone]</text>
<polygon fill="none" stroke="black" points="304.54,-758.6 304.54,-789.4 568.52,-789.4 568.52,-758.6 304.54,-758.6"/>
<text text-anchor="start" x="311.54" y="-770.8" font-family="Arial" font-size="14.00">updated_by </text>
<text text-anchor="start" x="388.6" y="-770.8" font-family="Arial" font-size="14.00" fill="#666666">[uuid]</text>
<polygon fill="none" stroke="black" points="304.54,-727.8 304.54,-758.6 568.52,-758.6 568.52,-727.8 304.54,-727.8"/>
<text text-anchor="start" x="311.54" y="-740" font-family="Arial" font-size="14.00">id </text>
<text text-anchor="start" x="326.32" y="-740" font-family="Arial" font-size="14.00" fill="#666666">[bigint]</text>
<polygon fill="none" stroke="black" points="304.54,-697 304.54,-727.8 568.52,-727.8 568.52,-697 304.54,-697"/>
<text text-anchor="start" x="311.54" y="-709.2" font-family="Arial" font-size="14.00">invited_by_profile_id </text>
<text text-anchor="start" x="443.07" y="-709.2" font-family="Arial" font-size="14.00" fill="#666666">[uuid]</text>
<polygon fill="none" stroke="black" points="304.54,-666.2 304.54,-697 568.52,-697 568.52,-666.2 304.54,-666.2"/>
<text text-anchor="start" x="311.54" y="-678.4" font-family="Arial" font-size="14.00">email </text>
<text text-anchor="start" x="348.88" y="-678.4" font-family="Arial" font-size="14.00" fill="#666666">[text]</text>
<polygon fill="none" stroke="black" points="304.54,-635.4 304.54,-666.2 568.52,-666.2 568.52,-635.4 304.54,-635.4"/>
<text text-anchor="start" x="311.54" y="-647.6" font-family="Arial" font-size="14.00">role_id </text>
<text text-anchor="start" x="357.45" y="-647.6" font-family="Arial" font-size="14.00" fill="#666666">[bigint]</text>
<polygon fill="none" stroke="black" points="304.54,-604.6 304.54,-635.4 568.52,-635.4 568.52,-604.6 304.54,-604.6"/>
<text text-anchor="start" x="311.54" y="-616.8" font-family="Arial" font-size="14.00">token </text>
<text text-anchor="start" x="349.67" y="-616.8" font-family="Arial" font-size="14.00" fill="#666666">[text]</text>
<polygon fill="none" stroke="black" points="304.54,-573.8 304.54,-604.6 568.52,-604.6 568.52,-573.8 304.54,-573.8"/>
<text text-anchor="start" x="311.54" y="-586" font-family="Arial" font-size="14.00">is_active </text>
<text text-anchor="start" x="369.89" y="-586" font-family="Arial" font-size="14.00" fill="#666666">[boolean]</text>
<polygon fill="none" stroke="black" stroke-width="3" points="303.04,-572.3 303.04,-918.9 570.02,-918.9 570.02,-572.3 303.04,-572.3"/>
</g>
<!-- public.profiles -->
<g id="node2" class="node">
<title>public.profiles</title>
<polygon fill="#efefef" stroke="none" points="130.69,-412.8 130.69,-448.4 384.37,-448.4 384.37,-412.8 130.69,-412.8"/>
<polygon fill="none" stroke="black" points="130.69,-412.8 130.69,-448.4 384.37,-448.4 384.37,-412.8 130.69,-412.8"/>
<text text-anchor="start" x="143.04" y="-426.2" font-family="Arial Bold" font-size="18.00">public.profiles</text>
<text text-anchor="start" x="247.52" y="-426.2" font-family="Arial" font-size="14.00">    </text>
<text text-anchor="start" x="278.64" y="-426.2" font-family="Arial" font-size="14.00" fill="#666666">[BASE TABLE]</text>
<polygon fill="none" stroke="black" points="130.69,-382 130.69,-412.8 384.37,-412.8 384.37,-382 130.69,-382"/>
<text text-anchor="start" x="137.69" y="-394.2" font-family="Arial" font-size="14.00">created_at </text>
<text text-anchor="start" x="207.73" y="-394.2" font-family="Arial" font-size="14.00" fill="#666666">[timestamp with time zone]</text>
<polygon fill="none" stroke="black" points="130.69,-351.2 130.69,-382 384.37,-382 384.37,-351.2 130.69,-351.2"/>
<text text-anchor="start" x="137.69" y="-363.4" font-family="Arial" font-size="14.00">created_by </text>
<text text-anchor="start" x="210.84" y="-363.4" font-family="Arial" font-size="14.00" fill="#666666">[uuid]</text>
<polygon fill="none" stroke="black" points="130.69,-320.4 130.69,-351.2 384.37,-351.2 384.37,-320.4 130.69,-320.4"/>
<text text-anchor="start" x="137.69" y="-332.6" font-family="Arial" font-size="14.00">updated_at </text>
<text text-anchor="start" x="211.64" y="-332.6" font-family="Arial" font-size="14.00" fill="#666666">[timestamp with time zone]</text>
<polygon fill="none" stroke="black" points="130.69,-289.6 130.69,-320.4 384.37,-320.4 384.37,-289.6 130.69,-289.6"/>
<text text-anchor="start" x="137.69" y="-301.8" font-family="Arial" font-size="14.00">updated_by </text>
<text text-anchor="start" x="214.75" y="-301.8" font-family="Arial" font-size="14.00" fill="#666666">[uuid]</text>
<polygon fill="none" stroke="black" points="130.69,-258.8 130.69,-289.6 384.37,-289.6 384.37,-258.8 130.69,-258.8"/>
<text text-anchor="start" x="137.69" y="-271" font-family="Arial" font-size="14.00">id </text>
<text text-anchor="start" x="152.47" y="-271" font-family="Arial" font-size="14.00" fill="#666666">[uuid]</text>
<polygon fill="none" stroke="black" points="130.69,-228 130.69,-258.8 384.37,-258.8 384.37,-228 130.69,-228"/>
<text text-anchor="start" x="137.69" y="-240.2" font-family="Arial" font-size="14.00">first_name </text>
<text text-anchor="start" x="206.93" y="-240.2" font-family="Arial" font-size="14.00" fill="#666666">[text]</text>
<polygon fill="none" stroke="black" points="130.69,-197.2 130.69,-228 384.37,-228 384.37,-197.2 130.69,-197.2"/>
<text text-anchor="start" x="137.69" y="-209.4" font-family="Arial" font-size="14.00">last_name </text>
<text text-anchor="start" x="206.17" y="-209.4" font-family="Arial" font-size="14.00" fill="#666666">[text]</text>
<polygon fill="none" stroke="black" points="130.69,-166.4 130.69,-197.2 384.37,-197.2 384.37,-166.4 130.69,-166.4"/>
<text text-anchor="start" x="137.69" y="-178.6" font-family="Arial" font-size="14.00">national_id </text>
<text text-anchor="start" x="209.3" y="-178.6" font-family="Arial" font-size="14.00" fill="#666666">[text]</text>
<polygon fill="none" stroke="black" points="130.69,-135.6 130.69,-166.4 384.37,-166.4 384.37,-135.6 130.69,-135.6"/>
<text text-anchor="start" x="137.69" y="-147.8" font-family="Arial" font-size="14.00">email </text>
<text text-anchor="start" x="175.03" y="-147.8" font-family="Arial" font-size="14.00" fill="#666666">[text]</text>
<polygon fill="none" stroke="black" points="130.69,-104.8 130.69,-135.6 384.37,-135.6 384.37,-104.8 130.69,-104.8"/>
<text text-anchor="start" x="137.69" y="-117" font-family="Arial" font-size="14.00">primary_contact </text>
<text text-anchor="start" x="241.17" y="-117" font-family="Arial" font-size="14.00" fill="#666666">[text]</text>
<polygon fill="none" stroke="black" points="130.69,-74 130.69,-104.8 384.37,-104.8 384.37,-74 130.69,-74"/>
<text text-anchor="start" x="137.69" y="-86.2" font-family="Arial" font-size="14.00">secondary_contact </text>
<text text-anchor="start" x="259.09" y="-86.2" font-family="Arial" font-size="14.00" fill="#666666">[text]</text>
<polygon fill="none" stroke="black" points="130.69,-43.2 130.69,-74 384.37,-74 384.37,-43.2 130.69,-43.2"/>
<text text-anchor="start" x="137.69" y="-55.4" font-family="Arial" font-size="14.00">role_id </text>
<text text-anchor="start" x="183.6" y="-55.4" font-family="Arial" font-size="14.00" fill="#666666">[bigint]</text>
</g>
<!-- public.invitations&#45;&gt;public.profiles -->
<g id="edge1" class="edge">
<title>public.invitations:invited_by_profile_id&#45;&gt;public.profiles:id</title>
<path fill="none" stroke="black" d="M293.19,-711.71C224.86,-702.08 261.79,-593.38 304.54,-527.6 325.74,-494.96 363.17,-524.24 384.37,-491.6 410.68,-451.08 433.68,-274.2 385.37,-274.2"/>
<polygon fill="black" stroke="black" points="293.22,-711.72 302.9,-716.87 298.55,-712.07 302.87,-712.36 302.87,-712.36 302.87,-712.36 298.55,-712.07 303.5,-707.89 293.22,-711.72"/>
<text text-anchor="start" x="7" y="-722.4" font-family="Arial" font-size="10.00">FOREIGN KEY (invited_by_profile_id) REFERENCES profiles(id)</text>
</g>
<!-- public.roles -->
<g id="node3" class="node">
<title>public.roles</title>
<polygon fill="#efefef" stroke="none" points="488.69,-335.8 488.69,-371.4 742.37,-371.4 742.37,-335.8 488.69,-335.8"/>
<polygon fill="none" stroke="black" points="488.69,-335.8 488.69,-371.4 742.37,-371.4 742.37,-335.8 488.69,-335.8"/>
<text text-anchor="start" x="511.04" y="-349.2" font-family="Arial Bold" font-size="18.00">public.roles</text>
<text text-anchor="start" x="595.52" y="-349.2" font-family="Arial" font-size="14.00">    </text>
<text text-anchor="start" x="626.64" y="-349.2" font-family="Arial" font-size="14.00" fill="#666666">[BASE TABLE]</text>
<polygon fill="none" stroke="black" points="488.69,-305 488.69,-335.8 742.37,-335.8 742.37,-305 488.69,-305"/>
<text text-anchor="start" x="495.69" y="-317.2" font-family="Arial" font-size="14.00">created_at </text>
<text text-anchor="start" x="565.73" y="-317.2" font-family="Arial" font-size="14.00" fill="#666666">[timestamp with time zone]</text>
<polygon fill="none" stroke="black" points="488.69,-274.2 488.69,-305 742.37,-305 742.37,-274.2 488.69,-274.2"/>
<text text-anchor="start" x="495.69" y="-286.4" font-family="Arial" font-size="14.00">created_by </text>
<text text-anchor="start" x="568.84" y="-286.4" font-family="Arial" font-size="14.00" fill="#666666">[uuid]</text>
<polygon fill="none" stroke="black" points="488.69,-243.4 488.69,-274.2 742.37,-274.2 742.37,-243.4 488.69,-243.4"/>
<text text-anchor="start" x="495.69" y="-255.6" font-family="Arial" font-size="14.00">updated_at </text>
<text text-anchor="start" x="569.64" y="-255.6" font-family="Arial" font-size="14.00" fill="#666666">[timestamp with time zone]</text>
<polygon fill="none" stroke="black" points="488.69,-212.6 488.69,-243.4 742.37,-243.4 742.37,-212.6 488.69,-212.6"/>
<text text-anchor="start" x="495.69" y="-224.8" font-family="Arial" font-size="14.00">updated_by </text>
<text text-anchor="start" x="572.75" y="-224.8" font-family="Arial" font-size="14.00" fill="#666666">[uuid]</text>
<polygon fill="none" stroke="black" points="488.69,-181.8 488.69,-212.6 742.37,-212.6 742.37,-181.8 488.69,-181.8"/>
<text text-anchor="start" x="495.69" y="-194" font-family="Arial" font-size="14.00">id </text>
<text text-anchor="start" x="510.47" y="-194" font-family="Arial" font-size="14.00" fill="#666666">[bigint]</text>
<polygon fill="none" stroke="black" points="488.69,-151 488.69,-181.8 742.37,-181.8 742.37,-151 488.69,-151"/>
<text text-anchor="start" x="495.69" y="-163.2" font-family="Arial" font-size="14.00">role_name </text>
<text text-anchor="start" x="565.73" y="-163.2" font-family="Arial" font-size="14.00" fill="#666666">[text]</text>
<polygon fill="none" stroke="black" points="488.69,-120.2 488.69,-151 742.37,-151 742.37,-120.2 488.69,-120.2"/>
<text text-anchor="start" x="495.69" y="-132.4" font-family="Arial" font-size="14.00">permission_level </text>
<text text-anchor="start" x="603.84" y="-132.4" font-family="Arial" font-size="14.00" fill="#666666">[integer]</text>
</g>
<!-- public.invitations&#45;&gt;public.roles -->
<g id="edge2" class="edge">
<title>public.invitations:role_id&#45;&gt;public.roles:id</title>
<path fill="none" stroke="black" d="M579.72,-649.78C618.9,-640.9 584.12,-576.06 568.52,-527.6 549.66,-469.07 507.43,-473.16 488.69,-414.6 459.23,-322.58 391.06,-197.2 487.69,-197.2"/>
<polygon fill="black" stroke="black" points="579.8,-649.77 569.4,-646.29 574.49,-650.3 570.18,-650.73 570.18,-650.73 570.18,-650.73 574.49,-650.3 570.3,-655.24 579.8,-649.77"/>
<text text-anchor="start" x="576.52" y="-660.8" font-family="Arial" font-size="10.00">FOREIGN KEY (role_id) REFERENCES roles(id)</text>
</g>
</g>
</svg>
