<?xml version="1.0" encoding="UTF-8" standalone="no"?>
<!DOCTYPE svg PUBLIC "-//W3C//DTD SVG 1.1//EN"
 "http://www.w3.org/Graphics/SVG/1.1/DTD/svg11.dtd">
<!-- Generated by graphviz version 12.1.2 (20240928.0832)
 -->
<!-- Title: public.students Pages: 1 -->
<svg width="1064pt" height="1002pt"
 viewBox="0.00 0.00 1064.08 1002.40" xmlns="http://www.w3.org/2000/svg" xmlns:xlink="http://www.w3.org/1999/xlink">
<g id="graph0" class="graph" transform="scale(1 1) rotate(0) translate(4 998.4)">
<title>public.students</title>
<polygon fill="white" stroke="none" points="-4,4 -4,-998.4 1060.08,-998.4 1060.08,4 -4,4"/>
<!-- public.students -->
<g id="node1" class="node">
<title>public.students</title>
<polygon fill="#efefef" stroke="none" points="401.2,-912.6 401.2,-948.2 654.88,-948.2 654.88,-912.6 401.2,-912.6"/>
<polygon fill="none" stroke="black" points="401.2,-912.6 401.2,-948.2 654.88,-948.2 654.88,-912.6 401.2,-912.6"/>
<text text-anchor="start" x="411.55" y="-926" font-family="Arial Bold" font-size="18.00">public.students</text>
<text text-anchor="start" x="520.04" y="-926" font-family="Arial" font-size="14.00">    </text>
<text text-anchor="start" x="551.16" y="-926" font-family="Arial" font-size="14.00" fill="#666666">[BASE TABLE]</text>
<polygon fill="none" stroke="black" points="401.2,-881.8 401.2,-912.6 654.88,-912.6 654.88,-881.8 401.2,-881.8"/>
<text text-anchor="start" x="408.2" y="-894" font-family="Arial" font-size="14.00">created_at </text>
<text text-anchor="start" x="478.25" y="-894" font-family="Arial" font-size="14.00" fill="#666666">[timestamp with time zone]</text>
<polygon fill="none" stroke="black" points="401.2,-851 401.2,-881.8 654.88,-881.8 654.88,-851 401.2,-851"/>
<text text-anchor="start" x="408.2" y="-863.2" font-family="Arial" font-size="14.00">created_by </text>
<text text-anchor="start" x="481.36" y="-863.2" font-family="Arial" font-size="14.00" fill="#666666">[uuid]</text>
<polygon fill="none" stroke="black" points="401.2,-820.2 401.2,-851 654.88,-851 654.88,-820.2 401.2,-820.2"/>
<text text-anchor="start" x="408.2" y="-832.4" font-family="Arial" font-size="14.00">updated_at </text>
<text text-anchor="start" x="482.16" y="-832.4" font-family="Arial" font-size="14.00" fill="#666666">[timestamp with time zone]</text>
<polygon fill="none" stroke="black" points="401.2,-789.4 401.2,-820.2 654.88,-820.2 654.88,-789.4 401.2,-789.4"/>
<text text-anchor="start" x="408.2" y="-801.6" font-family="Arial" font-size="14.00">updated_by </text>
<text text-anchor="start" x="485.27" y="-801.6" font-family="Arial" font-size="14.00" fill="#666666">[uuid]</text>
<polygon fill="none" stroke="black" points="401.2,-758.6 401.2,-789.4 654.88,-789.4 654.88,-758.6 401.2,-758.6"/>
<text text-anchor="start" x="408.2" y="-770.8" font-family="Arial" font-size="14.00">id </text>
<text text-anchor="start" x="422.99" y="-770.8" font-family="Arial" font-size="14.00" fill="#666666">[bigint]</text>
<polygon fill="none" stroke="black" points="401.2,-727.8 401.2,-758.6 654.88,-758.6 654.88,-727.8 401.2,-727.8"/>
<text text-anchor="start" x="408.2" y="-740" font-family="Arial" font-size="14.00">profile_id </text>
<text text-anchor="start" x="468.9" y="-740" font-family="Arial" font-size="14.00" fill="#666666">[uuid]</text>
<polygon fill="none" stroke="black" points="401.2,-697 401.2,-727.8 654.88,-727.8 654.88,-697 401.2,-697"/>
<text text-anchor="start" x="408.2" y="-709.2" font-family="Arial" font-size="14.00">faculty_id </text>
<text text-anchor="start" x="471.23" y="-709.2" font-family="Arial" font-size="14.00" fill="#666666">[bigint]</text>
<polygon fill="none" stroke="black" points="401.2,-666.2 401.2,-697 654.88,-697 654.88,-666.2 401.2,-666.2"/>
<text text-anchor="start" x="408.2" y="-678.4" font-family="Arial" font-size="14.00">school_id </text>
<text text-anchor="start" x="471.24" y="-678.4" font-family="Arial" font-size="14.00" fill="#666666">[bigint]</text>
<polygon fill="none" stroke="black" points="401.2,-635.4 401.2,-666.2 654.88,-666.2 654.88,-635.4 401.2,-635.4"/>
<text text-anchor="start" x="408.2" y="-647.6" font-family="Arial" font-size="14.00">semester </text>
<text text-anchor="start" x="469.66" y="-647.6" font-family="Arial" font-size="14.00" fill="#666666">[semester_enum]</text>
<polygon fill="none" stroke="black" points="401.2,-604.6 401.2,-635.4 654.88,-635.4 654.88,-604.6 401.2,-604.6"/>
<text text-anchor="start" x="408.2" y="-616.8" font-family="Arial" font-size="14.00">shift </text>
<text text-anchor="start" x="437.77" y="-616.8" font-family="Arial" font-size="14.00" fill="#666666">[shift_enum]</text>
<polygon fill="none" stroke="black" points="401.2,-573.8 401.2,-604.6 654.88,-604.6 654.88,-573.8 401.2,-573.8"/>
<text text-anchor="start" x="408.2" y="-586" font-family="Arial" font-size="14.00">section </text>
<text text-anchor="start" x="456.45" y="-586" font-family="Arial" font-size="14.00" fill="#666666">[section_enum]</text>
<polygon fill="none" stroke="black" stroke-width="3" points="399.7,-572.3 399.7,-949.7 656.38,-949.7 656.38,-572.3 399.7,-572.3"/>
</g>
<!-- public.profiles -->
<g id="node2" class="node">
<title>public.profiles</title>
<polygon fill="#efefef" stroke="none" points="43.2,-412.8 43.2,-448.4 296.88,-448.4 296.88,-412.8 43.2,-412.8"/>
<polygon fill="none" stroke="black" points="43.2,-412.8 43.2,-448.4 296.88,-448.4 296.88,-412.8 43.2,-412.8"/>
<text text-anchor="start" x="55.56" y="-426.2" font-family="Arial Bold" font-size="18.00">public.profiles</text>
<text text-anchor="start" x="160.03" y="-426.2" font-family="Arial" font-size="14.00">    </text>
<text text-anchor="start" x="191.15" y="-426.2" font-family="Arial" font-size="14.00" fill="#666666">[BASE TABLE]</text>
<polygon fill="none" stroke="black" points="43.2,-382 43.2,-412.8 296.88,-412.8 296.88,-382 43.2,-382"/>
<text text-anchor="start" x="50.2" y="-394.2" font-family="Arial" font-size="14.00">created_at </text>
<text text-anchor="start" x="120.25" y="-394.2" font-family="Arial" font-size="14.00" fill="#666666">[timestamp with time zone]</text>
<polygon fill="none" stroke="black" points="43.2,-351.2 43.2,-382 296.88,-382 296.88,-351.2 43.2,-351.2"/>
<text text-anchor="start" x="50.2" y="-363.4" font-family="Arial" font-size="14.00">created_by </text>
<text text-anchor="start" x="123.36" y="-363.4" font-family="Arial" font-size="14.00" fill="#666666">[uuid]</text>
<polygon fill="none" stroke="black" points="43.2,-320.4 43.2,-351.2 296.88,-351.2 296.88,-320.4 43.2,-320.4"/>
<text text-anchor="start" x="50.2" y="-332.6" font-family="Arial" font-size="14.00">updated_at </text>
<text text-anchor="start" x="124.16" y="-332.6" font-family="Arial" font-size="14.00" fill="#666666">[timestamp with time zone]</text>
<polygon fill="none" stroke="black" points="43.2,-289.6 43.2,-320.4 296.88,-320.4 296.88,-289.6 43.2,-289.6"/>
<text text-anchor="start" x="50.2" y="-301.8" font-family="Arial" font-size="14.00">updated_by </text>
<text text-anchor="start" x="127.27" y="-301.8" font-family="Arial" font-size="14.00" fill="#666666">[uuid]</text>
<polygon fill="none" stroke="black" points="43.2,-258.8 43.2,-289.6 296.88,-289.6 296.88,-258.8 43.2,-258.8"/>
<text text-anchor="start" x="50.2" y="-271" font-family="Arial" font-size="14.00">id </text>
<text text-anchor="start" x="64.99" y="-271" font-family="Arial" font-size="14.00" fill="#666666">[uuid]</text>
<polygon fill="none" stroke="black" points="43.2,-228 43.2,-258.8 296.88,-258.8 296.88,-228 43.2,-228"/>
<text text-anchor="start" x="50.2" y="-240.2" font-family="Arial" font-size="14.00">first_name </text>
<text text-anchor="start" x="119.45" y="-240.2" font-family="Arial" font-size="14.00" fill="#666666">[text]</text>
<polygon fill="none" stroke="black" points="43.2,-197.2 43.2,-228 296.88,-228 296.88,-197.2 43.2,-197.2"/>
<text text-anchor="start" x="50.2" y="-209.4" font-family="Arial" font-size="14.00">last_name </text>
<text text-anchor="start" x="118.68" y="-209.4" font-family="Arial" font-size="14.00" fill="#666666">[text]</text>
<polygon fill="none" stroke="black" points="43.2,-166.4 43.2,-197.2 296.88,-197.2 296.88,-166.4 43.2,-166.4"/>
<text text-anchor="start" x="50.2" y="-178.6" font-family="Arial" font-size="14.00">national_id </text>
<text text-anchor="start" x="121.81" y="-178.6" font-family="Arial" font-size="14.00" fill="#666666">[text]</text>
<polygon fill="none" stroke="black" points="43.2,-135.6 43.2,-166.4 296.88,-166.4 296.88,-135.6 43.2,-135.6"/>
<text text-anchor="start" x="50.2" y="-147.8" font-family="Arial" font-size="14.00">email </text>
<text text-anchor="start" x="87.54" y="-147.8" font-family="Arial" font-size="14.00" fill="#666666">[text]</text>
<polygon fill="none" stroke="black" points="43.2,-104.8 43.2,-135.6 296.88,-135.6 296.88,-104.8 43.2,-104.8"/>
<text text-anchor="start" x="50.2" y="-117" font-family="Arial" font-size="14.00">primary_contact </text>
<text text-anchor="start" x="153.68" y="-117" font-family="Arial" font-size="14.00" fill="#666666">[text]</text>
<polygon fill="none" stroke="black" points="43.2,-74 43.2,-104.8 296.88,-104.8 296.88,-74 43.2,-74"/>
<text text-anchor="start" x="50.2" y="-86.2" font-family="Arial" font-size="14.00">secondary_contact </text>
<text text-anchor="start" x="171.61" y="-86.2" font-family="Arial" font-size="14.00" fill="#666666">[text]</text>
<polygon fill="none" stroke="black" points="43.2,-43.2 43.2,-74 296.88,-74 296.88,-43.2 43.2,-43.2"/>
<text text-anchor="start" x="50.2" y="-55.4" font-family="Arial" font-size="14.00">role_id </text>
<text text-anchor="start" x="96.12" y="-55.4" font-family="Arial" font-size="14.00" fill="#666666">[bigint]</text>
</g>
<!-- public.students&#45;&gt;public.profiles -->
<g id="edge1" class="edge">
<title>public.students:profile_id&#45;&gt;public.profiles:id</title>
<path fill="none" stroke="black" d="M391.12,-738.25C347.18,-688.13 347.99,-274.2 297.88,-274.2"/>
<polygon fill="black" stroke="black" points="391.13,-738.25 397.75,-746.99 395.81,-740.81 399.61,-742.88 399.61,-742.88 399.61,-742.88 395.81,-740.81 402.06,-739.09 391.13,-738.25"/>
<text text-anchor="start" x="154.25" y="-753.2" font-family="Arial" font-size="10.00">FOREIGN KEY (profile_id) REFERENCES profiles(id)</text>
</g>
<!-- public.faculties -->
<g id="node3" class="node">
<title>public.faculties</title>
<polygon fill="#efefef" stroke="none" points="401.2,-366.6 401.2,-402.2 654.88,-402.2 654.88,-366.6 401.2,-366.6"/>
<polygon fill="none" stroke="black" points="401.2,-366.6 401.2,-402.2 654.88,-402.2 654.88,-366.6 401.2,-366.6"/>
<text text-anchor="start" x="410.57" y="-380" font-family="Arial Bold" font-size="18.00">public.faculties</text>
<text text-anchor="start" x="521.03" y="-380" font-family="Arial" font-size="14.00">    </text>
<text text-anchor="start" x="552.14" y="-380" font-family="Arial" font-size="14.00" fill="#666666">[BASE TABLE]</text>
<polygon fill="none" stroke="black" points="401.2,-335.8 401.2,-366.6 654.88,-366.6 654.88,-335.8 401.2,-335.8"/>
<text text-anchor="start" x="408.2" y="-348" font-family="Arial" font-size="14.00">created_at </text>
<text text-anchor="start" x="478.25" y="-348" font-family="Arial" font-size="14.00" fill="#666666">[timestamp with time zone]</text>
<polygon fill="none" stroke="black" points="401.2,-305 401.2,-335.8 654.88,-335.8 654.88,-305 401.2,-305"/>
<text text-anchor="start" x="408.2" y="-317.2" font-family="Arial" font-size="14.00">created_by </text>
<text text-anchor="start" x="481.36" y="-317.2" font-family="Arial" font-size="14.00" fill="#666666">[uuid]</text>
<polygon fill="none" stroke="black" points="401.2,-274.2 401.2,-305 654.88,-305 654.88,-274.2 401.2,-274.2"/>
<text text-anchor="start" x="408.2" y="-286.4" font-family="Arial" font-size="14.00">updated_at </text>
<text text-anchor="start" x="482.16" y="-286.4" font-family="Arial" font-size="14.00" fill="#666666">[timestamp with time zone]</text>
<polygon fill="none" stroke="black" points="401.2,-243.4 401.2,-274.2 654.88,-274.2 654.88,-243.4 401.2,-243.4"/>
<text text-anchor="start" x="408.2" y="-255.6" font-family="Arial" font-size="14.00">updated_by </text>
<text text-anchor="start" x="485.27" y="-255.6" font-family="Arial" font-size="14.00" fill="#666666">[uuid]</text>
<polygon fill="none" stroke="black" points="401.2,-212.6 401.2,-243.4 654.88,-243.4 654.88,-212.6 401.2,-212.6"/>
<text text-anchor="start" x="408.2" y="-224.8" font-family="Arial" font-size="14.00">id </text>
<text text-anchor="start" x="422.99" y="-224.8" font-family="Arial" font-size="14.00" fill="#666666">[bigint]</text>
<polygon fill="none" stroke="black" points="401.2,-181.8 401.2,-212.6 654.88,-212.6 654.88,-181.8 401.2,-181.8"/>
<text text-anchor="start" x="408.2" y="-194" font-family="Arial" font-size="14.00">campus_id </text>
<text text-anchor="start" x="479.79" y="-194" font-family="Arial" font-size="14.00" fill="#666666">[bigint]</text>
<polygon fill="none" stroke="black" points="401.2,-151 401.2,-181.8 654.88,-181.8 654.88,-151 401.2,-151"/>
<text text-anchor="start" x="408.2" y="-163.2" font-family="Arial" font-size="14.00">faculty_name </text>
<text text-anchor="start" x="495.36" y="-163.2" font-family="Arial" font-size="14.00" fill="#666666">[text]</text>
<polygon fill="none" stroke="black" points="401.2,-120.2 401.2,-151 654.88,-151 654.88,-120.2 401.2,-120.2"/>
<text text-anchor="start" x="408.2" y="-132.4" font-family="Arial" font-size="14.00">dean_profile_id </text>
<text text-anchor="start" x="507.83" y="-132.4" font-family="Arial" font-size="14.00" fill="#666666">[uuid]</text>
<polygon fill="none" stroke="black" points="401.2,-89.4 401.2,-120.2 654.88,-120.2 654.88,-89.4 401.2,-89.4"/>
<text text-anchor="start" x="408.2" y="-101.6" font-family="Arial" font-size="14.00">coordinator_profile_id </text>
<text text-anchor="start" x="546.73" y="-101.6" font-family="Arial" font-size="14.00" fill="#666666">[uuid]</text>
</g>
<!-- public.students&#45;&gt;public.faculties -->
<g id="edge2" class="edge">
<title>public.students:faculty_id&#45;&gt;public.faculties:id</title>
<path fill="none" stroke="black" d="M664.79,-707.61C709.52,-657.3 706.55,-228 655.88,-228"/>
<polygon fill="black" stroke="black" points="664.98,-707.5 654.04,-708.28 660.28,-710.03 656.47,-712.08 656.47,-712.08 656.47,-712.08 660.28,-710.03 658.31,-716.2 664.98,-707.5"/>
<text text-anchor="start" x="662.88" y="-722.4" font-family="Arial" font-size="10.00">FOREIGN KEY (faculty_id) REFERENCES faculties(id)</text>
</g>
<!-- public.schools -->
<g id="node4" class="node">
<title>public.schools</title>
<polygon fill="#efefef" stroke="none" points="759.2,-351.2 759.2,-386.8 1012.88,-386.8 1012.88,-351.2 759.2,-351.2"/>
<polygon fill="none" stroke="black" points="759.2,-351.2 759.2,-386.8 1012.88,-386.8 1012.88,-351.2 759.2,-351.2"/>
<text text-anchor="start" x="772.05" y="-364.6" font-family="Arial Bold" font-size="18.00">public.schools</text>
<text text-anchor="start" x="875.54" y="-364.6" font-family="Arial" font-size="14.00">    </text>
<text text-anchor="start" x="906.66" y="-364.6" font-family="Arial" font-size="14.00" fill="#666666">[BASE TABLE]</text>
<polygon fill="none" stroke="black" points="759.2,-320.4 759.2,-351.2 1012.88,-351.2 1012.88,-320.4 759.2,-320.4"/>
<text text-anchor="start" x="766.2" y="-332.6" font-family="Arial" font-size="14.00">created_at </text>
<text text-anchor="start" x="836.25" y="-332.6" font-family="Arial" font-size="14.00" fill="#666666">[timestamp with time zone]</text>
<polygon fill="none" stroke="black" points="759.2,-289.6 759.2,-320.4 1012.88,-320.4 1012.88,-289.6 759.2,-289.6"/>
<text text-anchor="start" x="766.2" y="-301.8" font-family="Arial" font-size="14.00">created_by </text>
<text text-anchor="start" x="839.36" y="-301.8" font-family="Arial" font-size="14.00" fill="#666666">[uuid]</text>
<polygon fill="none" stroke="black" points="759.2,-258.8 759.2,-289.6 1012.88,-289.6 1012.88,-258.8 759.2,-258.8"/>
<text text-anchor="start" x="766.2" y="-271" font-family="Arial" font-size="14.00">updated_at </text>
<text text-anchor="start" x="840.16" y="-271" font-family="Arial" font-size="14.00" fill="#666666">[timestamp with time zone]</text>
<polygon fill="none" stroke="black" points="759.2,-228 759.2,-258.8 1012.88,-258.8 1012.88,-228 759.2,-228"/>
<text text-anchor="start" x="766.2" y="-240.2" font-family="Arial" font-size="14.00">updated_by </text>
<text text-anchor="start" x="843.27" y="-240.2" font-family="Arial" font-size="14.00" fill="#666666">[uuid]</text>
<polygon fill="none" stroke="black" points="759.2,-197.2 759.2,-228 1012.88,-228 1012.88,-197.2 759.2,-197.2"/>
<text text-anchor="start" x="766.2" y="-209.4" font-family="Arial" font-size="14.00">id </text>
<text text-anchor="start" x="780.99" y="-209.4" font-family="Arial" font-size="14.00" fill="#666666">[bigint]</text>
<polygon fill="none" stroke="black" points="759.2,-166.4 759.2,-197.2 1012.88,-197.2 1012.88,-166.4 759.2,-166.4"/>
<text text-anchor="start" x="766.2" y="-178.6" font-family="Arial" font-size="14.00">faculty_id </text>
<text text-anchor="start" x="829.23" y="-178.6" font-family="Arial" font-size="14.00" fill="#666666">[bigint]</text>
<polygon fill="none" stroke="black" points="759.2,-135.6 759.2,-166.4 1012.88,-166.4 1012.88,-135.6 759.2,-135.6"/>
<text text-anchor="start" x="766.2" y="-147.8" font-family="Arial" font-size="14.00">school_name </text>
<text text-anchor="start" x="853.37" y="-147.8" font-family="Arial" font-size="14.00" fill="#666666">[text]</text>
<polygon fill="none" stroke="black" points="759.2,-104.8 759.2,-135.6 1012.88,-135.6 1012.88,-104.8 759.2,-104.8"/>
<text text-anchor="start" x="766.2" y="-117" font-family="Arial" font-size="14.00">tutor_profile_id </text>
<text text-anchor="start" x="862.7" y="-117" font-family="Arial" font-size="14.00" fill="#666666">[uuid]</text>
</g>
<!-- public.students&#45;&gt;public.schools -->
<g id="edge3" class="edge">
<title>public.students:school_id&#45;&gt;public.schools:id</title>
<path fill="none" stroke="black" d="M665.94,-681.08C738.9,-673.04 688.56,-573.4 707.04,-491.6 720.93,-430.12 695.17,-212.6 758.2,-212.6"/>
<polygon fill="black" stroke="black" points="666.2,-681.07 655.98,-677.09 660.87,-681.34 656.55,-681.57 656.55,-681.57 656.55,-681.57 660.87,-681.34 656.45,-686.08 666.2,-681.07"/>
<text text-anchor="start" x="662.88" y="-691.6" font-family="Arial" font-size="10.00">FOREIGN KEY (school_id) REFERENCES schools(id)</text>
</g>
</g>
</svg>
